Chivo-Regular.ufo
<glyph name="exclam" format="1">
  <advance width="269"/>
  <unicode hex="0021"/>
  <outline>
    <contour>
      <point x="78" y="686" type="line"/>
      <point x="193" y="686" type="line"/>
      <point x="191" y="671"/>
      <point x="183" y="500"/>
      <point x="168" y="174" type="curve"/>
      <point x="78" y="174" type="line"/>
    </contour>
    <contour>
      <point x="186" y="0" type="line"/>
      <point x="85" y="0" type="line"/>
      <point x="85" y="111" type="line"/>
      <point x="186" y="111" type="line"/>
    </contour>
  </outline>
</glyph>
<glyph name="quotedbl" format="1">
  <advance width="364"/>
  <unicode hex="0022"/>
  <outline>
    <contour>
      <point x="146" y="539" type="line"/>
      <point x="125" y="407" type="line"/>
      <point x="86" y="407" type="line"/>
      <point x="64" y="539" type="line"/>
      <point x="64" y="686" type="line"/>
      <point x="146" y="686" type="line"/>
    </contour>
    <contour>
      <point x="300" y="686" type="line"/>
      <point x="300" y="539" type="line"/>
      <point x="291" y="486"/>
      <point x="283" y="442"/>
      <point x="278" y="407" type="curve"/>
      <point x="239" y="407" type="line"/>
      <point x="218" y="539" type="line"/>
      <point x="218" y="686" type="line"/>
    </contour>
  </outline>
</glyph>
<glyph name="numbersign" format="1">
  <advance width="643"/>
  <unicode hex="0023"/>
  <outline>
    <contour>
      <point x="508" y="486" type="line"/>
      <point x="613" y="486" type="line"/>
      <point x="613" y="410" type="line"/>
      <point x="491" y="410" type="line"/>
      <point x="457" y="255" type="line"/>
      <point x="573" y="255" type="line"/>
      <point x="573" y="179" type="line"/>
      <point x="440" y="179" type="line"/>
      <point x="400" y="0" type="line"/>
      <point x="324" y="0" type="line"/>
      <point x="364" y="179" type="line"/>
      <point x="214" y="179" type="line"/>
      <point x="174" y="0" type="line"/>
      <point x="98" y="0" type="line"/>
      <point x="138" y="179" type="line"/>
      <point x="28" y="179" type="line"/>
      <point x="28" y="255" type="line"/>
      <point x="155" y="255" type="line"/>
      <point x="189" y="410" type="line"/>
      <point x="68" y="410" type="line"/>
      <point x="68" y="486" type="line"/>
      <point x="206" y="486" type="line"/>
      <point x="253" y="696" type="line"/>
      <point x="329" y="696" type="line"/>
      <point x="282" y="486" type="line"/>
      <point x="432" y="486" type="line"/>
      <point x="479" y="696" type="line"/>
      <point x="555" y="696" type="line"/>
    </contour>
    <contour>
      <point x="265" y="410" type="line"/>
      <point x="231" y="255" type="line"/>
      <point x="381" y="255" type="line"/>
      <point x="415" y="410" type="line"/>
    </contour>
  </outline>
</glyph>
<glyph name="dollar" format="1">
  <advance width="546"/>
  <unicode hex="0024"/>
  <outline>
    <contour>
      <point x="307" y="760" type="line"/>
      <point x="296" y="671" type="line"/>
      <point x="416" y="665"/>
      <point x="498" y="606"/>
      <point x="498" y="495" type="curve" smooth="yes"/>
      <point x="498" y="483" type="line"/>
      <point x="403" y="483" type="line"/>
      <point x="403" y="497" type="line" smooth="yes"/>
      <point x="403" y="556"/>
      <point x="349" y="586"/>
      <point x="274" y="586" type="curve" smooth="yes"/>
      <point x="199" y="586"/>
      <point x="141" y="561"/>
      <point x="141" y="505" type="curve" smooth="yes"/>
      <point x="141" y="363"/>
      <point x="514" y="443"/>
      <point x="514" y="216" type="curve" smooth="yes"/>
      <point x="514" y="93"/>
      <point x="438" y="25"/>
      <point x="296" y="19" type="curve"/>
      <point x="307" y="-66" type="line"/>
      <point x="234" y="-66" type="line"/>
      <point x="244" y="20" type="line"/>
      <point x="107" y="29"/>
      <point x="31" y="92"/>
      <point x="31" y="209" type="curve"/>
      <point x="32" y="227" type="line"/>
      <point x="127" y="227" type="line"/>
      <point x="126" y="208" type="line" smooth="yes"/>
      <point x="126" y="137"/>
      <point x="185" y="105"/>
      <point x="268" y="105" type="curve" smooth="yes"/>
      <point x="369" y="105"/>
      <point x="420" y="137"/>
      <point x="420" y="202" type="curve" smooth="yes"/>
      <point x="420" y="354"/>
      <point x="46" y="269"/>
      <point x="46" y="490" type="curve" smooth="yes"/>
      <point x="46" y="614"/>
      <point x="132" y="663"/>
      <point x="245" y="671" type="curve"/>
      <point x="234" y="760" type="line"/>
    </contour>
  </outline>
</glyph>
<glyph name="ampersand" format="1">
  <advance width="662"/>
  <unicode hex="0026"/>
  <outline>
    <contour>
      <point x="291" y="696" type="curve" smooth="yes"/>
      <point x="316" y="696"/>
      <point x="339" y="694"/>
      <point x="361" y="689" type="curve"/>
      <point x="361" y="598" type="line"/>
      <point x="342" y="604"/>
      <point x="323" y="607"/>
      <point x="305" y="607" type="curve" smooth="yes"/>
      <point x="225" y="607"/>
      <point x="171" y="569"/>
      <point x="171" y="503" type="curve" smooth="yes"/>
      <point x="171" y="440"/>
      <point x="229" y="395"/>
      <point x="306" y="395" type="curve" smooth="yes"/>
      <point x="429" y="395" type="line"/>
      <point x="457" y="538" type="line"/>
      <point x="525" y="538" type="line"/>
      <point x="525" y="395" type="line"/>
      <point x="633" y="395" type="line"/>
      <point x="633" y="306" type="line"/>
      <point x="525" y="306" type="line"/>
      <point x="525" y="0" type="line"/>
      <point x="300" y="0" type="line" smooth="yes"/>
      <point x="158" y="0"/>
      <point x="58" y="68"/>
      <point x="58" y="193" type="curve" smooth="yes"/>
      <point x="58" y="275"/>
      <point x="100" y="329"/>
      <point x="184" y="354" type="curve"/>
      <point x="187" y="356" type="line"/>
      <point x="123" y="384"/>
      <point x="74" y="430"/>
      <point x="74" y="501" type="curve" smooth="yes"/>
      <point x="74" y="642"/>
      <point x="192" y="696"/>
    </contour>
    <contour>
      <point x="427" y="306" type="line"/>
      <point x="313" y="306" type="line" smooth="yes"/>
      <point x="213" y="306"/>
      <point x="156" y="270"/>
      <point x="156" y="198" type="curve" smooth="yes"/>
      <point x="156" y="127"/>
      <point x="215" y="89"/>
      <point x="314" y="89" type="curve" smooth="yes"/>
      <point x="427" y="89" type="line"/>
    </contour>
  </outline>
</glyph>
<glyph name="quotesingle" format="1">
  <advance width="210"/>
  <unicode hex="0027"/>
  <outline>
    <contour>
      <point x="146" y="539" type="line"/>
      <point x="124" y="407" type="line"/>
      <point x="85" y="407" type="line"/>
      <point x="64" y="539" type="line"/>
      <point x="64" y="686" type="line"/>
      <point x="146" y="686" type="line"/>
    </contour>
  </outline>
</glyph>
<glyph name="parenright" format="1">
  <advance width="288"/>
  <unicode hex="0029"/>
  <outline>
    <contour>
      <point x="29" y="686" type="curve"/>
      <point x="81" y="686" type="line"/>
      <point x="184" y="569"/>
      <point x="240" y="420"/>
      <point x="240" y="265" type="curve" smooth="yes"/>
      <point x="240" y="109"/>
      <point x="184" y="-40"/>
      <point x="81" y="-157" type="curve"/>
      <point x="29" y="-157" type="line"/>
      <point x="106" y="-34"/>
      <point x="157" y="116"/>
      <point x="157" y="265" type="curve" smooth="yes"/>
      <point x="157" y="410"/>
      <point x="105" y="564"/>
    </contour>
  </outline>
</glyph>
<glyph name="asterisk" format="1">
  <advance width="468"/>
  <unicode hex="002A"/>
  <outline>
    <contour>
      <point x="259" y="519" type="line"/>
      <point x="417" y="584" type="line"/>
      <point x="440" y="506" type="line"/>
      <point x="275" y="468" type="line"/>
      <point x="384" y="343" type="line"/>
      <point x="320" y="294" type="line"/>
      <point x="232" y="438" type="line"/>
      <point x="145" y="296" type="line"/>
      <point x="81" y="344" type="line"/>
      <point x="192" y="469" type="line"/>
      <point x="29" y="509" type="line"/>
      <point x="54" y="586" type="line"/>
      <point x="209" y="520" type="line"/>
      <point x="196" y="686" type="line"/>
      <point x="275" y="686" type="line"/>
    </contour>
  </outline>
</glyph>
<glyph name="plus" format="1">
  <advance width="615"/>
  <unicode hex="002B"/>
  <outline>
    <contour>
      <point x="348" y="297" type="line"/>
      <point x="563" y="297" type="line"/>
      <point x="563" y="213" type="line"/>
      <point x="348" y="213" type="line"/>
      <point x="348" y="0" type="line"/>
      <point x="265" y="0" type="line"/>
      <point x="265" y="213" type="line"/>
      <point x="51" y="213" type="line"/>
      <point x="51" y="297" type="line"/>
      <point x="265" y="297" type="line"/>
      <point x="265" y="511" type="line"/>
      <point x="348" y="511" type="line"/>
    </contour>
  </outline>
</glyph>
<glyph name="hyphen" format="1">
  <advance width="391"/>
  <unicode hex="002D"/>
  <outline>
    <contour>
      <point x="322" y="221" type="line"/>
      <point x="69" y="221" type="line"/>
      <point x="69" y="319" type="line"/>
      <point x="322" y="319" type="line"/>
    </contour>
  </outline>
</glyph>
<glyph name="period" format="1">
  <advance width="239"/>
  <unicode hex="002E"/>
  <outline>
    <contour>
      <point x="170" y="0" type="line"/>
      <point x="69" y="0" type="line"/>
      <point x="69" y="111" type="line"/>
      <point x="170" y="111" type="line"/>
    </contour>
  </outline>
</glyph>
<glyph name="slash" format="1">
  <advance width="600"/>
  <unicode hex="002F"/>
  <outline>
    <contour>
      <point x="96" y="-171" type="line"/>
      <point x="15" y="-171" type="line"/>
      <point x="505" y="686" type="line"/>
      <point x="585" y="686" type="line"/>
    </contour>
  </outline>
</glyph>
<glyph name="zero" format="1">
  <advance width="615"/>
  <unicode hex="0030"/>
  <outline>
    <contour>
      <point x="300" y="696" type="curve" smooth="yes"/>
      <point x="313" y="696" type="line" smooth="yes"/>
      <point x="439" y="696"/>
      <point x="543" y="600"/>
      <point x="543" y="464" type="curve" smooth="yes"/>
      <point x="543" y="221" type="line" smooth="yes"/>
      <point x="543" y="90"/>
      <point x="446" y="-10"/>
      <point x="313" y="-10" type="curve" smooth="yes"/>
      <point x="300" y="-10" type="line" smooth="yes"/>
      <point x="165" y="-10"/>
      <point x="71" y="92"/>
      <point x="71" y="221" type="curve" smooth="yes"/>
      <point x="71" y="464" type="line" smooth="yes"/>
      <point x="71" y="600"/>
      <point x="172" y="696"/>
    </contour>
    <contour>
      <point x="307" y="607" type="curve" smooth="yes"/>
      <point x="231" y="607"/>
      <point x="169" y="551"/>
      <point x="169" y="472" type="curve" smooth="yes"/>
      <point x="169" y="214" type="line" smooth="yes"/>
      <point x="169" y="135"/>
      <point x="231" y="79"/>
      <point x="307" y="79" type="curve" smooth="yes"/>
      <point x="387" y="79"/>
      <point x="445" y="138"/>
      <point x="445" y="214" type="curve" smooth="yes"/>
      <point x="445" y="472" type="line" smooth="yes"/>
      <point x="445" y="548"/>
      <point x="387" y="607"/>
    </contour>
  </outline>
</glyph>
<glyph name="one" format="1">
  <advance width="615"/>
  <unicode hex="0031"/>
  <outline>
    <contour>
      <point x="377" y="89" type="line"/>
      <point x="557" y="89" type="line"/>
      <point x="557" y="0" type="line"/>
      <point x="99" y="0" type="line"/>
      <point x="99" y="89" type="line"/>
      <point x="279" y="89" type="line"/>
      <point x="279" y="555" type="line"/>
      <point x="97" y="555" type="line"/>
      <point x="97" y="619" type="line"/>
      <point x="175" y="627"/>
      <point x="256" y="649"/>
      <point x="339" y="686" type="curve"/>
      <point x="377" y="686" type="line"/>
    </contour>
  </outline>
</glyph>
<glyph name="two" format="1">
  <advance width="615"/>
  <unicode hex="0032"/>
  <outline>
    <contour>
      <point x="316" y="696" type="curve" smooth="yes"/>
      <point x="467" y="696"/>
      <point x="538" y="592"/>
      <point x="538" y="495" type="curve" smooth="yes"/>
      <point x="538" y="392"/>
      <point x="493" y="341"/>
      <point x="416" y="282" type="curve" smooth="yes"/>
      <point x="225" y="136" type="line" smooth="yes"/>
      <point x="192" y="113"/>
      <point x="177" y="96"/>
      <point x="177" y="89" type="curve"/>
      <point x="541" y="89" type="line"/>
      <point x="541" y="0" type="line"/>
      <point x="70" y="0" type="line"/>
      <point x="70" y="24" type="line" smooth="yes"/>
      <point x="70" y="92"/>
      <point x="104" y="157"/>
      <point x="163" y="201" type="curve" smooth="yes"/>
      <point x="362" y="351" type="line" smooth="yes"/>
      <point x="420" y="397"/>
      <point x="440" y="439"/>
      <point x="440" y="491" type="curve" smooth="yes"/>
      <point x="440" y="548"/>
      <point x="396" y="607"/>
      <point x="311" y="607" type="curve" smooth="yes"/>
      <point x="225" y="607"/>
      <point x="168" y="547"/>
      <point x="168" y="475" type="curve" smooth="yes"/>
      <point x="168" y="461" type="line" smooth="yes"/>
      <point x="168" y="457"/>
      <point x="168" y="453"/>
      <point x="169" y="449" type="curve"/>
      <point x="71" y="449" type="line"/>
      <point x="70" y="454"/>
      <point x="70" y="457"/>
      <point x="70" y="459" type="curve" smooth="yes"/>
      <point x="70" y="467" type="line" smooth="yes"/>
      <point x="70" y="576"/>
      <point x="139" y="696"/>
    </contour>
  </outline>
</glyph>
<glyph name="three" format="1">
  <advance width="615"/>
  <unicode hex="0033"/>
  <outline>
    <contour>
      <point x="299" y="696" type="curve" smooth="yes"/>
      <point x="308" y="696" type="line" smooth="yes"/>
      <point x="441" y="696"/>
      <point x="531" y="617"/>
      <point x="531" y="510" type="curve" smooth="yes"/>
      <point x="531" y="429"/>
      <point x="485" y="385"/>
      <point x="422" y="356" type="curve"/>
      <point x="423" y="353" type="line"/>
      <point x="495" y="330"/>
      <point x="547" y="276"/>
      <point x="547" y="184" type="curve" smooth="yes"/>
      <point x="547" y="70"/>
      <point x="444" y="-10"/>
      <point x="308" y="-10" type="curve" smooth="yes"/>
      <point x="296" y="-10" type="line" smooth="yes"/>
      <point x="152" y="-10"/>
      <point x="58" y="67"/>
      <point x="58" y="194" type="curve" smooth="yes"/>
      <point x="58" y="202" type="line"/>
      <point x="156" y="202" type="line"/>
      <point x="156" y="191" type="line" smooth="yes"/>
      <point x="156" y="118"/>
      <point x="207" y="79"/>
      <point x="299" y="79" type="curve" smooth="yes"/>
      <point x="390" y="79"/>
      <point x="449" y="115"/>
      <point x="449" y="194" type="curve" smooth="yes"/>
      <point x="449" y="266"/>
      <point x="399" y="304"/>
      <point x="295" y="304" type="curve" smooth="yes"/>
      <point x="220" y="304" type="line"/>
      <point x="220" y="394" type="line"/>
      <point x="297" y="394" type="line" smooth="yes"/>
      <point x="375" y="394"/>
      <point x="433" y="430"/>
      <point x="433" y="502" type="curve" smooth="yes"/>
      <point x="433" y="572"/>
      <point x="378" y="607"/>
      <point x="299" y="607" type="curve" smooth="yes"/>
      <point x="225" y="607"/>
      <point x="172" y="570"/>
      <point x="172" y="501" type="curve" smooth="yes"/>
      <point x="172" y="492" type="line"/>
      <point x="74" y="492" type="line"/>
      <point x="74" y="510" type="line" smooth="yes"/>
      <point x="74" y="623"/>
      <point x="173" y="696"/>
    </contour>
  </outline>
</glyph>
<glyph name="four" format="1">
  <advance width="615"/>
  <unicode hex="0034"/>
  <outline>
    <contour>
      <point x="263" y="696" type="curve"/>
      <point x="368" y="696" type="line"/>
      <point x="330" y="561"/>
      <point x="218" y="346"/>
      <point x="143" y="258" type="curve"/>
      <point x="373" y="258" type="line"/>
      <point x="373" y="457" type="line"/>
      <point x="396" y="502"/>
      <point x="414" y="548"/>
      <point x="427" y="594" type="curve"/>
      <point x="471" y="594" type="line"/>
      <point x="471" y="258" type="line"/>
      <point x="558" y="258" type="line"/>
      <point x="558" y="169" type="line"/>
      <point x="471" y="169" type="line"/>
      <point x="471" y="0" type="line"/>
      <point x="373" y="0" type="line"/>
      <point x="373" y="169" type="line"/>
      <point x="50" y="169" type="line"/>
      <point x="50" y="259" type="line"/>
      <point x="141" y="395"/>
      <point x="212" y="541"/>
    </contour>
  </outline>
</glyph>
<glyph name="five" format="1">
  <advance width="615"/>
  <unicode hex="0035"/>
  <outline>
    <contour>
      <point x="509" y="597" type="line"/>
      <point x="205" y="597" type="line"/>
      <point x="190" y="396" type="line"/>
      <point x="233" y="430"/>
      <point x="276" y="447"/>
      <point x="320" y="447" type="curve" smooth="yes"/>
      <point x="482" y="447"/>
      <point x="545" y="345"/>
      <point x="545" y="222" type="curve" smooth="yes"/>
      <point x="545" y="85"/>
      <point x="451" y="-10"/>
      <point x="308" y="-10" type="curve" smooth="yes"/>
      <point x="171" y="-10"/>
      <point x="73" y="85"/>
      <point x="71" y="214" type="curve"/>
      <point x="169" y="214" type="line"/>
      <point x="171" y="137"/>
      <point x="230" y="79"/>
      <point x="308" y="79" type="curve" smooth="yes"/>
      <point x="390" y="79"/>
      <point x="447" y="135"/>
      <point x="447" y="225" type="curve" smooth="yes"/>
      <point x="447" y="306"/>
      <point x="387" y="363"/>
      <point x="312" y="363" type="curve" smooth="yes"/>
      <point x="255" y="363"/>
      <point x="212" y="340"/>
      <point x="183" y="294" type="curve"/>
      <point x="95" y="307" type="line"/>
      <point x="123" y="686" type="line"/>
      <point x="509" y="686" type="line"/>
    </contour>
  </outline>
</glyph>
<glyph name="six" format="1">
  <advance width="615"/>
  <unicode hex="0036"/>
  <outline>
    <contour>
      <point x="310" y="696" type="curve" smooth="yes"/>
      <point x="446" y="696"/>
      <point x="541" y="607"/>
      <point x="541" y="473" type="curve"/>
      <point x="443" y="473" type="line"/>
      <point x="443" y="557"/>
      <point x="390" y="607"/>
      <point x="310" y="607" type="curve" smooth="yes"/>
      <point x="237" y="607"/>
      <point x="177" y="547"/>
      <point x="177" y="474" type="curve" smooth="yes"/>
      <point x="177" y="366" type="line"/>
      <point x="218" y="410"/>
      <point x="270" y="432"/>
      <point x="332" y="432" type="curve" smooth="yes"/>
      <point x="453" y="432"/>
      <point x="552" y="339"/>
      <point x="552" y="221" type="curve" smooth="yes"/>
      <point x="552" y="83"/>
      <point x="454" y="-10"/>
      <point x="316" y="-10" type="curve" smooth="yes"/>
      <point x="179" y="-10"/>
      <point x="79" y="86"/>
      <point x="79" y="223" type="curve" smooth="yes"/>
      <point x="79" y="465" type="line" smooth="yes"/>
      <point x="79" y="592"/>
      <point x="183" y="696"/>
    </contour>
    <contour>
      <point x="316" y="343" type="curve" smooth="yes"/>
      <point x="237" y="343"/>
      <point x="177" y="287"/>
      <point x="177" y="211" type="curve" smooth="yes"/>
      <point x="177" y="135"/>
      <point x="237" y="79"/>
      <point x="316" y="79" type="curve" smooth="yes"/>
      <point x="393" y="79"/>
      <point x="454" y="131"/>
      <point x="454" y="211" type="curve" smooth="yes"/>
      <point x="454" y="291"/>
      <point x="393" y="343"/>
    </contour>
  </outline>
</glyph>
<glyph name="seven" format="1">
  <advance width="615"/>
  <unicode hex="0037"/>
  <outline>
    <contour>
      <point x="555" y="686" type="line"/>
      <point x="555" y="633" type="line"/>
      <point x="395" y="445"/>
      <point x="292" y="240"/>
      <point x="292" y="51" type="curve" smooth="yes"/>
      <point x="292" y="28" type="line" smooth="yes"/>
      <point x="292" y="21"/>
      <point x="293" y="12"/>
      <point x="294" y="0" type="curve"/>
      <point x="180" y="0" type="line"/>
      <point x="180" y="189"/>
      <point x="263" y="388"/>
      <point x="430" y="597" type="curve"/>
      <point x="73" y="597" type="line"/>
      <point x="73" y="686" type="line"/>
    </contour>
  </outline>
</glyph>
<glyph name="eight" format="1">
  <advance width="615"/>
  <unicode hex="0038"/>
  <outline>
    <contour>
      <point x="307" y="696" type="curve" smooth="yes"/>
      <point x="437" y="696"/>
      <point x="524" y="621"/>
      <point x="524" y="505" type="curve" smooth="yes"/>
      <point x="524" y="430"/>
      <point x="492" y="391"/>
      <point x="431" y="354" type="curve"/>
      <point x="431" y="350" type="line"/>
      <point x="500" y="318"/>
      <point x="547" y="274"/>
      <point x="547" y="185" type="curve" smooth="yes"/>
      <point x="547" y="64"/>
      <point x="462" y="-10"/>
      <point x="307" y="-10" type="curve" smooth="yes"/>
      <point x="162" y="-10"/>
      <point x="67" y="61"/>
      <point x="67" y="185" type="curve" smooth="yes"/>
      <point x="67" y="273"/>
      <point x="114" y="321"/>
      <point x="183" y="350" type="curve"/>
      <point x="183" y="354" type="line"/>
      <point x="105" y="402"/>
      <point x="90" y="444"/>
      <point x="90" y="499" type="curve" smooth="yes"/>
      <point x="90" y="632"/>
      <point x="183" y="696"/>
    </contour>
    <contour>
      <point x="307" y="607" type="curve" smooth="yes"/>
      <point x="234" y="607"/>
      <point x="188" y="561"/>
      <point x="188" y="501" type="curve" smooth="yes"/>
      <point x="188" y="441"/>
      <point x="234" y="395"/>
      <point x="307" y="395" type="curve" smooth="yes"/>
      <point x="380" y="395"/>
      <point x="426" y="441"/>
      <point x="426" y="501" type="curve" smooth="yes"/>
      <point x="426" y="561"/>
      <point x="380" y="607"/>
    </contour>
    <contour>
      <point x="307" y="306" type="curve" smooth="yes"/>
      <point x="242" y="306"/>
      <point x="198" y="285"/>
      <point x="176" y="242" type="curve" smooth="yes"/>
      <point x="169" y="227"/>
      <point x="165" y="211"/>
      <point x="165" y="192" type="curve" smooth="yes"/>
      <point x="165" y="114"/>
      <point x="230" y="79"/>
      <point x="307" y="79" type="curve" smooth="yes"/>
      <point x="388" y="79"/>
      <point x="449" y="118"/>
      <point x="449" y="192" type="curve" smooth="yes"/>
      <point x="449" y="264"/>
      <point x="392" y="306"/>
    </contour>
  </outline>
</glyph>
<glyph name="nine" format="1">
  <advance width="615"/>
  <unicode hex="0039"/>
  <outline>
    <contour>
      <point x="299" y="696" type="curve" smooth="yes"/>
      <point x="438" y="696"/>
      <point x="536" y="598"/>
      <point x="536" y="463" type="curve" smooth="yes"/>
      <point x="536" y="221" type="line" smooth="yes"/>
      <point x="536" y="94"/>
      <point x="432" y="-10"/>
      <point x="305" y="-10" type="curve" smooth="yes"/>
      <point x="167" y="-10"/>
      <point x="74" y="82"/>
      <point x="74" y="213" type="curve"/>
      <point x="172" y="213" type="line"/>
      <point x="172" y="129"/>
      <point x="225" y="79"/>
      <point x="305" y="79" type="curve" smooth="yes"/>
      <point x="378" y="79"/>
      <point x="438" y="139"/>
      <point x="438" y="212" type="curve" smooth="yes"/>
      <point x="438" y="320" type="line"/>
      <point x="397" y="276"/>
      <point x="345" y="254"/>
      <point x="283" y="254" type="curve" smooth="yes"/>
      <point x="162" y="254"/>
      <point x="63" y="347"/>
      <point x="63" y="465" type="curve" smooth="yes"/>
      <point x="63" y="603"/>
      <point x="160" y="696"/>
    </contour>
    <contour>
      <point x="299" y="607" type="curve" smooth="yes"/>
      <point x="222" y="607"/>
      <point x="161" y="555"/>
      <point x="161" y="475" type="curve" smooth="yes"/>
      <point x="161" y="395"/>
      <point x="222" y="343"/>
      <point x="299" y="343" type="curve" smooth="yes"/>
      <point x="377" y="343"/>
      <point x="438" y="397"/>
      <point x="438" y="475" type="curve" smooth="yes"/>
      <point x="438" y="553"/>
      <point x="377" y="607"/>
    </contour>
  </outline>
</glyph>
<glyph name="colon" format="1">
  <advance width="239"/>
  <unicode hex="003A"/>
  <outline>
    <contour>
      <point x="170" y="399" type="line"/>
      <point x="69" y="399" type="line"/>
      <point x="69" y="511" type="line"/>
      <point x="170" y="511" type="line"/>
    </contour>
    <contour>
      <point x="170" y="0" type="line"/>
      <point x="69" y="0" type="line"/>
      <point x="69" y="111" type="line"/>
      <point x="170" y="111" type="line"/>
    </contour>
  </outline>
</glyph>
<glyph name="less" format="1">
  <advance width="615"/>
  <unicode hex="003C"/>
  <outline>
    <contour>
      <point x="553" y="414" type="line"/>
      <point x="124" y="254" type="line"/>
      <point x="553" y="94" type="line"/>
      <point x="553" y="4" type="line"/>
      <point x="44" y="200" type="line"/>
      <point x="44" y="307" type="line"/>
      <point x="553" y="504" type="line"/>
    </contour>
  </outline>
</glyph>
<glyph name="equal" format="1">
  <advance width="615"/>
  <unicode hex="003D"/>
  <outline>
    <contour>
      <point x="559" y="318" type="line"/>
      <point x="55" y="318" type="line"/>
      <point x="55" y="402" type="line"/>
      <point x="559" y="402" type="line"/>
    </contour>
    <contour>
      <point x="559" y="106" type="line"/>
      <point x="55" y="106" type="line"/>
      <point x="55" y="189" type="line"/>
      <point x="559" y="189" type="line"/>
    </contour>
  </outline>
</glyph>
<glyph name="greater" format="1">
  <advance width="615"/>
  <unicode hex="003E"/>
  <outline>
    <contour>
      <point x="571" y="307" type="line"/>
      <point x="571" y="200" type="line"/>
      <point x="62" y="4" type="line"/>
      <point x="62" y="94" type="line"/>
      <point x="205" y="147"/>
      <point x="346" y="199"/>
      <point x="490" y="254" type="curve"/>
      <point x="282" y="331"/>
      <point x="139" y="385"/>
      <point x="62" y="414" type="curve"/>
      <point x="62" y="504" type="line"/>
    </contour>
  </outline>
</glyph>
<glyph name="question" format="1">
  <advance width="502"/>
  <unicode hex="003F"/>
  <outline>
    <contour>
      <point x="246" y="696" type="curve" smooth="yes"/>
      <point x="252" y="696" type="line" smooth="yes"/>
      <point x="391" y="696"/>
      <point x="462" y="595"/>
      <point x="462" y="492" type="curve" smooth="yes"/>
      <point x="462" y="343"/>
      <point x="307" y="316"/>
      <point x="307" y="234" type="curve" smooth="yes"/>
      <point x="307" y="185" type="line"/>
      <point x="207" y="185" type="line"/>
      <point x="207" y="249" type="line" smooth="yes"/>
      <point x="207" y="350"/>
      <point x="363" y="400"/>
      <point x="363" y="498" type="curve" smooth="yes"/>
      <point x="363" y="561"/>
      <point x="312" y="607"/>
      <point x="245" y="607" type="curve" smooth="yes"/>
      <point x="172" y="607"/>
      <point x="125" y="562"/>
      <point x="125" y="495" type="curve" smooth="yes"/>
      <point x="127" y="458" type="line"/>
      <point x="29" y="458" type="line"/>
      <point x="27" y="466"/>
      <point x="26" y="479"/>
      <point x="26" y="496" type="curve" smooth="yes"/>
      <point x="26" y="588"/>
      <point x="102" y="696"/>
    </contour>
    <contour>
      <point x="309" y="0" type="line"/>
      <point x="205" y="0" type="line"/>
      <point x="205" y="111" type="line"/>
      <point x="309" y="111" type="line"/>
    </contour>
  </outline>
</glyph>
<glyph name="at" format="1">
  <advance width="885"/>
  <unicode hex="0040"/>
  <outline>
    <contour>
      <point x="459" y="697" type="curve" smooth="yes"/>
      <point x="705" y="697"/>
      <point x="855" y="571"/>
      <point x="855" y="328" type="curve" smooth="yes"/>
      <point x="855" y="94"/>
      <point x="756" y="22"/>
      <point x="668" y="22" type="curve" smooth="yes"/>
      <point x="601" y="22"/>
      <point x="571" y="51"/>
      <point x="567" y="109" type="curve"/>
      <point x="564" y="106" type="line"/>
      <point x="527" y="50"/>
      <point x="472" y="22"/>
      <point x="398" y="22" type="curve" smooth="yes"/>
      <point x="294" y="22"/>
      <point x="241" y="64"/>
      <point x="241" y="164" type="curve" smooth="yes"/>
      <point x="241" y="279"/>
      <point x="321" y="320"/>
      <point x="562" y="320" type="curve"/>
      <point x="562" y="364" type="line" smooth="yes"/>
      <point x="562" y="430"/>
      <point x="519" y="451"/>
      <point x="452" y="451" type="curve" smooth="yes"/>
      <point x="386" y="451"/>
      <point x="345" y="422"/>
      <point x="345" y="375" type="curve" smooth="yes"/>
      <point x="345" y="364" type="line"/>
      <point x="259" y="364" type="line"/>
      <point x="258" y="371"/>
      <point x="257" y="381"/>
      <point x="257" y="395" type="curve" smooth="yes"/>
      <point x="257" y="457"/>
      <point x="334" y="521"/>
      <point x="454" y="521" type="curve" smooth="yes"/>
      <point x="463" y="521" type="line" smooth="yes"/>
      <point x="591" y="521"/>
      <point x="651" y="467"/>
      <point x="651" y="374" type="curve" smooth="yes"/>
      <point x="651" y="129" type="line" smooth="yes"/>
      <point x="651" y="104"/>
      <point x="663" y="91"/>
      <point x="688" y="91" type="curve" smooth="yes"/>
      <point x="756" y="91"/>
      <point x="796" y="166"/>
      <point x="796" y="330" type="curve" smooth="yes"/>
      <point x="796" y="531"/>
      <point x="674" y="642"/>
      <point x="458" y="642" type="curve" smooth="yes"/>
      <point x="228" y="642"/>
      <point x="97" y="508"/>
      <point x="97" y="266" type="curve" smooth="yes"/>
      <point x="97" y="19"/>
      <point x="200" y="-98"/>
      <point x="424" y="-98" type="curve" smooth="yes"/>
      <point x="496" y="-98"/>
      <point x="574" y="-74"/>
      <point x="589" y="-66" type="curve"/>
      <point x="589" y="-126" type="line"/>
      <point x="531" y="-149"/>
      <point x="441" y="-153"/>
      <point x="424" y="-153" type="curve" smooth="yes"/>
      <point x="173" y="-153"/>
      <point x="38" y="-16"/>
      <point x="38" y="268" type="curve" smooth="yes"/>
      <point x="38" y="559"/>
      <point x="211" y="697"/>
    </contour>
    <contour>
      <point x="562" y="233" type="curve" smooth="yes"/>
      <point x="562" y="251" type="line"/>
      <point x="361" y="251"/>
      <point x="329" y="220"/>
      <point x="329" y="158" type="curve" smooth="yes"/>
      <point x="329" y="114"/>
      <point x="362" y="92"/>
      <point x="428" y="92" type="curve" smooth="yes"/>
      <point x="504" y="92"/>
      <point x="562" y="153"/>
    </contour>
  </outline>
</glyph>
<glyph name="B" format="1">
  <advance width="651"/>
  <unicode hex="0042"/>
  <outline>
    <contour>
      <point x="92" y="686" type="line"/>
      <point x="396" y="686" type="line" smooth="yes"/>
      <point x="495" y="686"/>
      <point x="576" y="612"/>
      <point x="576" y="518" type="curve" smooth="yes"/>
      <point x="576" y="439"/>
      <point x="538" y="381"/>
      <point x="456" y="358" type="curve"/>
      <point x="456" y="353" type="line"/>
      <point x="531" y="341"/>
      <point x="592" y="283"/>
      <point x="592" y="187" type="curve" smooth="yes"/>
      <point x="592" y="73"/>
      <point x="499" y="0"/>
      <point x="402" y="0" type="curve" smooth="yes"/>
      <point x="92" y="0" type="line"/>
    </contour>
    <contour>
      <point x="190" y="597" type="line"/>
      <point x="190" y="394" type="line"/>
      <point x="376" y="394" type="line" smooth="yes"/>
      <point x="427" y="394"/>
      <point x="478" y="436"/>
      <point x="478" y="495" type="curve" smooth="yes"/>
      <point x="478" y="551"/>
      <point x="432" y="597"/>
      <point x="376" y="597" type="curve" smooth="yes"/>
    </contour>
    <contour>
      <point x="190" y="305" type="line"/>
      <point x="190" y="89" type="line"/>
      <point x="386" y="89" type="line" smooth="yes"/>
      <point x="446" y="89"/>
      <point x="494" y="137"/>
      <point x="494" y="197" type="curve" smooth="yes"/>
      <point x="494" y="257"/>
      <point x="446" y="305"/>
      <point x="386" y="305" type="curve" smooth="yes"/>
    </contour>
  </outline>
</glyph>
<glyph name="C" format="1">
  <advance width="663"/>
  <unicode hex="0043"/>
  <outline>
    <contour>
      <point x="344" y="696" type="curve" smooth="yes"/>
      <point x="505" y="696"/>
      <point x="609" y="593"/>
      <point x="609" y="423" type="curve"/>
      <point x="511" y="423" type="line"/>
      <point x="511" y="538"/>
      <point x="453" y="607"/>
      <point x="344" y="607" type="curve" smooth="yes"/>
      <point x="225" y="607"/>
      <point x="160" y="532"/>
      <point x="160" y="388" type="curve" smooth="yes"/>
      <point x="160" y="298" type="line" smooth="yes"/>
      <point x="160" y="156"/>
      <point x="222" y="79"/>
      <point x="342" y="79" type="curve" smooth="yes"/>
      <point x="456" y="79"/>
      <point x="515" y="148"/>
      <point x="515" y="261" type="curve"/>
      <point x="609" y="261" type="line"/>
      <point x="609" y="94"/>
      <point x="506" y="-10"/>
      <point x="344" y="-10" type="curve" smooth="yes"/>
      <point x="167" y="-10"/>
      <point x="62" y="104"/>
      <point x="62" y="298" type="curve" smooth="yes"/>
      <point x="62" y="388" type="line" smooth="yes"/>
      <point x="62" y="580"/>
      <point x="167" y="696"/>
    </contour>
    <contour>
      <point x="332" y="0" type="move" name="Bottom"/>
    </contour>
  </outline>
</glyph>
<glyph name="E" format="1">
  <advance width="593"/>
  <unicode hex="0045"/>
  <outline>
    <contour>
      <point x="529" y="597" type="line"/>
      <point x="190" y="597" type="line"/>
      <point x="190" y="395" type="line"/>
      <point x="497" y="395" type="line"/>
      <point x="497" y="306" type="line"/>
      <point x="190" y="306" type="line"/>
      <point x="190" y="89" type="line"/>
      <point x="535" y="89" type="line"/>
      <point x="549" y="0" type="line"/>
      <point x="92" y="0" type="line"/>
      <point x="92" y="686" type="line"/>
      <point x="542" y="686" type="line"/>
    </contour>
    <contour>
      <point x="297" y="0" type="move" name="Bottom"/>
    </contour>
  </outline>
</glyph>
<glyph name="F" format="1">
  <advance width="550"/>
  <unicode hex="0046"/>
  <outline>
    <contour>
      <point x="511" y="597" type="line"/>
      <point x="190" y="597" type="line"/>
      <point x="190" y="388" type="line"/>
      <point x="470" y="388" type="line"/>
      <point x="470" y="299" type="line"/>
      <point x="190" y="299" type="line"/>
      <point x="190" y="0" type="line"/>
      <point x="92" y="0" type="line"/>
      <point x="92" y="686" type="line"/>
      <point x="524" y="686" type="line"/>
    </contour>
  </outline>
</glyph>
<glyph name="H" format="1">
  <advance width="693"/>
  <unicode hex="0048"/>
  <outline>
    <contour>
      <point x="601" y="0" type="line"/>
      <point x="503" y="0" type="line"/>
      <point x="503" y="306" type="line"/>
      <point x="190" y="306" type="line"/>
      <point x="190" y="0" type="line"/>
      <point x="92" y="0" type="line"/>
      <point x="92" y="686" type="line"/>
      <point x="190" y="686" type="line"/>
      <point x="190" y="395" type="line"/>
      <point x="503" y="395" type="line"/>
      <point x="503" y="686" type="line"/>
      <point x="601" y="686" type="line"/>
    </contour>
  </outline>
</glyph>
<glyph name="J" format="1">
  <advance width="526"/>
  <unicode hex="004A"/>
  <outline>
    <contour>
      <point x="439" y="686" type="line"/>
      <point x="439" y="187" type="line" smooth="yes"/>
      <point x="439" y="65"/>
      <point x="356" y="-10"/>
      <point x="236" y="-10" type="curve" smooth="yes"/>
      <point x="227" y="-10" type="line" smooth="yes"/>
      <point x="108" y="-10"/>
      <point x="29" y="57"/>
      <point x="29" y="187" type="curve" smooth="yes"/>
      <point x="29" y="208" type="line"/>
      <point x="127" y="208" type="line"/>
      <point x="127" y="181" type="line" smooth="yes"/>
      <point x="127" y="121"/>
      <point x="172" y="79"/>
      <point x="235" y="79" type="curve" smooth="yes"/>
      <point x="296" y="79"/>
      <point x="341" y="118"/>
      <point x="341" y="181" type="curve" smooth="yes"/>
      <point x="341" y="686" type="line"/>
    </contour>
  </outline>
</glyph>
<glyph name="K" format="1">
  <advance width="623"/>
  <unicode hex="004B"/>
  <outline>
    <contour>
      <point x="349" y="383" type="line"/>
      <point x="609" y="0" type="line"/>
      <point x="495" y="0" type="line"/>
      <point x="287" y="308" type="line"/>
      <point x="190" y="206" type="line"/>
      <point x="190" y="0" type="line"/>
      <point x="92" y="0" type="line"/>
      <point x="92" y="686" type="line"/>
      <point x="190" y="686" type="line"/>
      <point x="190" y="329" type="line"/>
      <point x="488" y="686" type="line"/>
      <point x="601" y="686" type="line"/>
    </contour>
    <contour>
      <point x="312" y="0" type="move" name="Bottom"/>
    </contour>
  </outline>
</glyph>
<glyph name="M" format="1">
  <advance width="938"/>
  <unicode hex="004D"/>
  <outline>
    <contour>
      <point x="846" y="0" type="line"/>
      <point x="748" y="0" type="line"/>
      <point x="748" y="571" type="line"/>
      <point x="742" y="571" type="line"/>
      <point x="505" y="0" type="line"/>
      <point x="422" y="0" type="line"/>
      <point x="186" y="571" type="line"/>
      <point x="181" y="571" type="line"/>
      <point x="181" y="0" type="line"/>
      <point x="92" y="0" type="line"/>
      <point x="92" y="686" type="line"/>
      <point x="246" y="686" type="line"/>
      <point x="467" y="146" type="line"/>
      <point x="471" y="146" type="line"/>
      <point x="693" y="686" type="line"/>
      <point x="846" y="686" type="line"/>
    </contour>
  </outline>
</glyph>
<glyph name="N" format="1">
  <advance width="694"/>
  <unicode hex="004E"/>
  <outline>
    <contour>
      <point x="602" y="0" type="line"/>
      <point x="519" y="0" type="line"/>
      <point x="184" y="502" type="line"/>
      <point x="181" y="501" type="line"/>
      <point x="181" y="0" type="line"/>
      <point x="92" y="0" type="line"/>
      <point x="92" y="686" type="line"/>
      <point x="178" y="686" type="line"/>
      <point x="510" y="190" type="line"/>
      <point x="513" y="191" type="line"/>
      <point x="513" y="686" type="line"/>
      <point x="602" y="686" type="line"/>
    </contour>
    <contour>
      <point x="347" y="0" type="move" name="Bottom"/>
    </contour>
  </outline>
</glyph>
<glyph name="P" format="1">
  <advance width="624"/>
  <unicode hex="0050"/>
  <outline>
    <contour>
      <point x="92" y="686" type="line"/>
      <point x="388" y="686" type="line" smooth="yes"/>
      <point x="506" y="686"/>
      <point x="593" y="602"/>
      <point x="593" y="486" type="curve" smooth="yes"/>
      <point x="593" y="370"/>
      <point x="506" y="286"/>
      <point x="388" y="286" type="curve" smooth="yes"/>
      <point x="190" y="286" type="line"/>
      <point x="190" y="0" type="line"/>
      <point x="92" y="0" type="line"/>
    </contour>
    <contour>
      <point x="190" y="597" type="line"/>
      <point x="190" y="375" type="line"/>
      <point x="379" y="375" type="line" smooth="yes"/>
      <point x="440" y="375"/>
      <point x="495" y="423"/>
      <point x="495" y="486" type="curve" smooth="yes"/>
      <point x="495" y="549"/>
      <point x="441" y="597"/>
      <point x="379" y="597" type="curve" smooth="yes"/>
    </contour>
  </outline>
</glyph>
<glyph name="Q" format="1">
  <advance width="690"/>
  <unicode hex="0051"/>
  <outline>
    <contour>
      <point x="345" y="696" type="curve" smooth="yes"/>
      <point x="515" y="696"/>
      <point x="629" y="581"/>
      <point x="629" y="388" type="curve" smooth="yes"/>
      <point x="629" y="298" type="line" smooth="yes"/>
      <point x="629" y="131"/>
      <point x="545" y="18"/>
      <point x="402" y="-5" type="curve"/>
      <point x="415" y="-54"/>
      <point x="457" y="-70"/>
      <point x="501" y="-70" type="curve" smooth="yes"/>
      <point x="531" y="-70"/>
      <point x="566" y="-62"/>
      <point x="606" y="-46" type="curve" smooth="yes"/>
      <point x="618" y="-42" type="line"/>
      <point x="618" y="-112" type="line"/>
      <point x="579" y="-134"/>
      <point x="539" y="-145"/>
      <point x="499" y="-145" type="curve" smooth="yes"/>
      <point x="355" y="-145"/>
      <point x="318" y="-77"/>
      <point x="305" y="-8" type="curve"/>
      <point x="151" y="11"/>
      <point x="61" y="123"/>
      <point x="61" y="298" type="curve" smooth="yes"/>
      <point x="61" y="388" type="line" smooth="yes"/>
      <point x="61" y="581"/>
      <point x="175" y="696"/>
    </contour>
    <contour>
      <point x="345" y="607" type="curve" smooth="yes"/>
      <point x="229" y="607"/>
      <point x="159" y="533"/>
      <point x="159" y="388" type="curve" smooth="yes"/>
      <point x="159" y="298" type="line" smooth="yes"/>
      <point x="159" y="156"/>
      <point x="223" y="79"/>
      <point x="345" y="79" type="curve" smooth="yes"/>
      <point x="459" y="79"/>
      <point x="531" y="151"/>
      <point x="531" y="298" type="curve" smooth="yes"/>
      <point x="531" y="388" type="line" smooth="yes"/>
      <point x="531" y="530"/>
      <point x="467" y="607"/>
    </contour>
  </outline>
</glyph>
<glyph name="T" format="1">
  <advance width="578"/>
  <unicode hex="0054"/>
  <outline>
    <contour>
      <point x="553" y="597" type="line"/>
      <point x="338" y="597" type="line"/>
      <point x="338" y="0" type="line"/>
      <point x="240" y="0" type="line"/>
      <point x="240" y="597" type="line"/>
      <point x="25" y="597" type="line"/>
      <point x="25" y="686" type="line"/>
      <point x="553" y="686" type="line"/>
    </contour>
    <contour>
      <point x="289" y="0" type="move" name="Bottom"/>
    </contour>
  </outline>
</glyph>
<glyph name="V" format="1">
  <advance width="603"/>
  <unicode hex="0056"/>
  <outline>
    <contour>
      <point x="354" y="0" type="line"/>
      <point x="249" y="0" type="line"/>
      <point x="5" y="686" type="line"/>
      <point x="110" y="686" type="line"/>
      <point x="303" y="133" type="line"/>
      <point x="309" y="133" type="line"/>
      <point x="503" y="686" type="line"/>
      <point x="598" y="686" type="line"/>
    </contour>
  </outline>
</glyph>
<glyph name="W" format="1">
  <advance width="916"/>
  <unicode hex="0057"/>
  <outline>
    <contour>
      <point x="702" y="0" type="line"/>
      <point x="602" y="0" type="line"/>
      <point x="462" y="496" type="line"/>
      <point x="455" y="496" type="line"/>
      <point x="310" y="0" type="line"/>
      <point x="210" y="0" type="line"/>
      <point x="14" y="686" type="line"/>
      <point x="119" y="686" type="line"/>
      <point x="264" y="169" type="line"/>
      <point x="270" y="169" type="line"/>
      <point x="416" y="686" type="line"/>
      <point x="511" y="686" type="line"/>
      <point x="656" y="169" type="line"/>
      <point x="662" y="169" type="line"/>
      <point x="808" y="686" type="line"/>
      <point x="903" y="686" type="line"/>
    </contour>
  </outline>
</glyph>
<glyph name="X" format="1">
  <advance width="631"/>
  <unicode hex="0058"/>
  <outline>
    <contour>
      <point x="372" y="361" type="line"/>
      <point x="621" y="0" type="line"/>
      <point x="503" y="0" type="line"/>
      <point x="313" y="276" type="line"/>
      <point x="118" y="0" type="line"/>
      <point x="9" y="0" type="line"/>
      <point x="259" y="355" type="line"/>
      <point x="32" y="685" type="line"/>
      <point x="150" y="685" type="line"/>
      <point x="318" y="440" type="line"/>
      <point x="388" y="538"/>
      <point x="449" y="627"/>
      <point x="476" y="665" type="curve" smooth="yes"/>
      <point x="490" y="685" type="line"/>
      <point x="599" y="685" type="line"/>
    </contour>
  </outline>
</glyph>
<glyph name="Y" format="1">
  <advance width="572"/>
  <unicode hex="0059"/>
  <outline>
    <contour>
      <point x="335" y="265" type="line"/>
      <point x="335" y="0" type="line"/>
      <point x="237" y="0" type="line"/>
      <point x="237" y="265" type="line"/>
      <point x="-5" y="686" type="line"/>
      <point x="107" y="686" type="line"/>
      <point x="290" y="367" type="line"/>
      <point x="294" y="367" type="line"/>
      <point x="475" y="686" type="line"/>
      <point x="576" y="686" type="line"/>
    </contour>
  </outline>
</glyph>
<glyph name="Z" format="1">
  <advance width="596"/>
  <unicode hex="005A"/>
  <outline>
    <contour>
      <point x="547" y="648" type="line"/>
      <point x="181" y="89" type="line"/>
      <point x="555" y="89" type="line"/>
      <point x="555" y="0" type="line"/>
      <point x="32" y="0" type="line"/>
      <point x="32" y="38" type="line"/>
      <point x="397" y="597" type="line"/>
      <point x="56" y="597" type="line"/>
      <point x="56" y="686" type="line"/>
      <point x="547" y="686" type="line"/>
    </contour>
  </outline>
</glyph>
<glyph name="bracketleft" format="1">
  <advance width="293"/>
  <unicode hex="005B"/>
  <outline>
    <contour>
      <point x="254" y="631" type="line"/>
      <point x="166" y="631" type="line"/>
      <point x="166" y="-106" type="line"/>
      <point x="254" y="-106" type="line"/>
      <point x="254" y="-161" type="line"/>
      <point x="85" y="-161" type="line"/>
      <point x="85" y="686" type="line"/>
      <point x="254" y="686" type="line"/>
    </contour>
  </outline>
</glyph>
<glyph name="backslash" format="1">
  <advance width="600"/>
  <unicode hex="005C"/>
  <outline>
    <contour>
      <point x="585" y="-171" type="line"/>
      <point x="504" y="-171" type="line"/>
      <point x="15" y="686" type="line"/>
      <point x="95" y="686" type="line"/>
    </contour>
  </outline>
</glyph>
<glyph name="bracketright" format="1">
  <advance width="293"/>
  <unicode hex="005D"/>
  <outline>
    <contour>
      <point x="208" y="-161" type="line"/>
      <point x="39" y="-161" type="line"/>
      <point x="39" y="-106" type="line"/>
      <point x="127" y="-106" type="line"/>
      <point x="127" y="631" type="line"/>
      <point x="39" y="631" type="line"/>
      <point x="39" y="686" type="line"/>
      <point x="208" y="686" type="line"/>
    </contour>
  </outline>
</glyph>
<glyph name="asciicircum" format="1">
  <advance width="596"/>
  <unicode hex="005E"/>
  <outline>
    <contour>
      <point x="546" y="0" type="line"/>
      <point x="462" y="0" type="line"/>
      <point x="429" y="82"/>
      <point x="375" y="222"/>
      <point x="298" y="421" type="curve"/>
      <point x="133" y="0" type="line"/>
      <point x="49" y="0" type="line"/>
      <point x="246" y="511" type="line"/>
      <point x="349" y="511" type="line"/>
    </contour>
  </outline>
</glyph>
<glyph name="underscore" format="1">
  <advance width="694"/>
  <unicode hex="005F"/>
  <outline>
    <contour>
      <point x="597" y="-124" type="line"/>
      <point x="97" y="-124" type="line"/>
      <point x="97" y="-64" type="line"/>
      <point x="597" y="-64" type="line"/>
    </contour>
  </outline>
</glyph>
<glyph name="grave" format="1">
  <advance width="333"/>
  <unicode hex="0060"/>
  <outline>
    <contour>
      <point x="253" y="575" type="line"/>
      <point x="183" y="575" type="line"/>
      <point x="68" y="717" type="line"/>
      <point x="69" y="720" type="line"/>
      <point x="158" y="720" type="line"/>
    </contour>
  </outline>
</glyph>
<glyph name="b" format="1">
  <advance width="583"/>
  <unicode hex="0062"/>
  <outline>
    <contour>
      <point x="177" y="720" type="line"/>
      <point x="177" y="446" type="line"/>
      <point x="206" y="487"/>
      <point x="261" y="521"/>
      <point x="325" y="521" type="curve" smooth="yes"/>
      <point x="457" y="521"/>
      <point x="531" y="420"/>
      <point x="531" y="267" type="curve" smooth="yes"/>
      <point x="531" y="256" type="line" smooth="yes"/>
      <point x="531" y="90"/>
      <point x="452" y="-10"/>
      <point x="324" y="-10" type="curve" smooth="yes"/>
      <point x="248" y="-10"/>
      <point x="191" y="20"/>
      <point x="152" y="81" type="curve"/>
      <point x="119" y="0" type="line"/>
      <point x="83" y="0" type="line"/>
      <point x="83" y="720" type="line"/>
    </contour>
    <contour>
      <point x="306" y="446" type="curve" smooth="yes"/>
      <point x="217" y="446"/>
      <point x="176" y="385"/>
      <point x="176" y="255" type="curve" smooth="yes"/>
      <point x="176" y="123"/>
      <point x="219" y="65"/>
      <point x="306" y="65" type="curve" smooth="yes"/>
      <point x="393" y="65"/>
      <point x="437" y="128"/>
      <point x="437" y="255" type="curve" smooth="yes"/>
      <point x="437" y="387"/>
      <point x="392" y="446"/>
    </contour>
  </outline>
</glyph>
<glyph name="c" format="1">
  <advance width="544"/>
  <unicode hex="0063"/>
  <outline>
    <contour>
      <point x="275" y="521" type="curve" smooth="yes"/>
      <point x="283" y="521" type="line" smooth="yes"/>
      <point x="406" y="521"/>
      <point x="495" y="437"/>
      <point x="495" y="310" type="curve"/>
      <point x="402" y="310" type="line"/>
      <point x="402" y="390"/>
      <point x="361" y="446"/>
      <point x="280" y="446" type="curve" smooth="yes"/>
      <point x="198" y="446"/>
      <point x="145" y="388"/>
      <point x="145" y="291" type="curve" smooth="yes"/>
      <point x="145" y="237" type="line" smooth="yes"/>
      <point x="145" y="118"/>
      <point x="198" y="65"/>
      <point x="283" y="65" type="curve" smooth="yes"/>
      <point x="367" y="65"/>
      <point x="405" y="121"/>
      <point x="405" y="200" type="curve"/>
      <point x="495" y="200" type="line"/>
      <point x="495" y="71"/>
      <point x="411" y="-10"/>
      <point x="284" y="-10" type="curve" smooth="yes"/>
      <point x="276" y="-10" type="line" smooth="yes"/>
      <point x="138" y="-10"/>
      <point x="51" y="91"/>
      <point x="51" y="243" type="curve" smooth="yes"/>
      <point x="51" y="267" type="line" smooth="yes"/>
      <point x="51" y="420"/>
      <point x="141" y="521"/>
    </contour>
    <contour>
      <point x="272" y="0" type="move" name="Bottom"/>
    </contour>
  </outline>
</glyph>
<glyph name="i" format="1">
  <advance width="260"/>
  <unicode hex="0069"/>
  <outline>
    <contour>
      <point x="179" y="633" type="line"/>
      <point x="81" y="633" type="line"/>
      <point x="81" y="720" type="line"/>
      <point x="179" y="720" type="line"/>
    </contour>
    <contour>
      <point x="177" y="0" type="line"/>
      <point x="83" y="0" type="line"/>
      <point x="83" y="511" type="line"/>
      <point x="177" y="511" type="line"/>
    </contour>
  </outline>
</glyph>
<glyph name="j" format="1">
  <advance width="260"/>
  <unicode hex="006A"/>
  <outline>
    <contour>
      <point x="179" y="633" type="line"/>
      <point x="81" y="633" type="line"/>
      <point x="81" y="720" type="line"/>
      <point x="179" y="720" type="line"/>
    </contour>
    <contour>
      <point x="177" y="511" type="line"/>
      <point x="177" y="-15" type="line" smooth="yes"/>
      <point x="177" y="-134"/>
      <point x="145" y="-186"/>
      <point x="52" y="-186" type="curve" smooth="yes"/>
      <point x="17" y="-186"/>
      <point x="-11" y="-180"/>
      <point x="-34" y="-167" type="curve"/>
      <point x="-34" y="-97" type="line"/>
      <point x="-12" y="-107"/>
      <point x="5" y="-112"/>
      <point x="18" y="-112" type="curve" smooth="yes"/>
      <point x="68" y="-112"/>
      <point x="83" y="-93"/>
      <point x="83" y="-44" type="curve" smooth="yes"/>
      <point x="83" y="511" type="line"/>
    </contour>
  </outline>
</glyph>
<glyph name="l" format="1">
  <advance width="268"/>
  <unicode hex="006C"/>
  <outline>
    <contour>
      <point x="181" y="0" type="line"/>
      <point x="87" y="0" type="line"/>
      <point x="87" y="720" type="line"/>
      <point x="181" y="720" type="line"/>
    </contour>
    <contour>
      <point x="134" y="0" type="move" name="Bottom"/>
    </contour>
  </outline>
</glyph>
<glyph name="m" format="1">
  <advance width="867"/>
  <unicode hex="006D"/>
  <outline>
    <contour>
      <point x="622" y="521" type="curve" smooth="yes"/>
      <point x="726" y="521"/>
      <point x="789" y="458"/>
      <point x="789" y="344" type="curve" smooth="yes"/>
      <point x="789" y="0" type="line"/>
      <point x="695" y="0" type="line"/>
      <point x="695" y="327" type="line" smooth="yes"/>
      <point x="695" y="406"/>
      <point x="664" y="446"/>
      <point x="603" y="446" type="curve" smooth="yes"/>
      <point x="538" y="446"/>
      <point x="483" y="384"/>
      <point x="483" y="304" type="curve" smooth="yes"/>
      <point x="483" y="0" type="line"/>
      <point x="389" y="0" type="line"/>
      <point x="389" y="327" type="line" smooth="yes"/>
      <point x="389" y="406"/>
      <point x="358" y="446"/>
      <point x="297" y="446" type="curve" smooth="yes"/>
      <point x="232" y="446"/>
      <point x="177" y="384"/>
      <point x="177" y="304" type="curve" smooth="yes"/>
      <point x="177" y="0" type="line"/>
      <point x="83" y="0" type="line"/>
      <point x="83" y="511" type="line"/>
      <point x="151" y="511" type="line"/>
      <point x="164" y="436" type="line"/>
      <point x="203" y="493"/>
      <point x="257" y="521"/>
      <point x="325" y="521" type="curve" smooth="yes"/>
      <point x="392" y="521"/>
      <point x="439" y="493"/>
      <point x="465" y="436" type="curve"/>
      <point x="514" y="505"/>
      <point x="570" y="521"/>
    </contour>
  </outline>
</glyph>
<glyph name="n" format="1">
  <advance width="593"/>
  <unicode hex="006E"/>
  <outline>
    <contour>
      <point x="335" y="521" type="curve" smooth="yes"/>
      <point x="444" y="521"/>
      <point x="515" y="462"/>
      <point x="515" y="344" type="curve" smooth="yes"/>
      <point x="515" y="0" type="line"/>
      <point x="421" y="0" type="line"/>
      <point x="421" y="327" type="line" smooth="yes"/>
      <point x="421" y="414"/>
      <point x="377" y="446"/>
      <point x="313" y="446" type="curve" smooth="yes"/>
      <point x="241" y="446"/>
      <point x="177" y="383"/>
      <point x="177" y="304" type="curve" smooth="yes"/>
      <point x="177" y="0" type="line"/>
      <point x="83" y="0" type="line"/>
      <point x="83" y="511" type="line"/>
      <point x="151" y="511" type="line"/>
      <point x="164" y="436" type="line"/>
      <point x="207" y="493"/>
      <point x="264" y="521"/>
    </contour>
    <contour>
      <point x="297" y="0" type="move" name="Bottom"/>
    </contour>
  </outline>
</glyph>
<glyph name="p" format="1">
  <advance width="583"/>
  <unicode hex="0070"/>
  <outline>
    <contour>
      <point x="324" y="521" type="curve" smooth="yes"/>
      <point x="453" y="521"/>
      <point x="531" y="421"/>
      <point x="531" y="255" type="curve" smooth="yes"/>
      <point x="531" y="244" type="line" smooth="yes"/>
      <point x="531" y="89"/>
      <point x="456" y="-10"/>
      <point x="324" y="-10" type="curve" smooth="yes"/>
      <point x="261" y="-10"/>
      <point x="212" y="15"/>
      <point x="177" y="65" type="curve"/>
      <point x="177" y="-181" type="line"/>
      <point x="83" y="-181" type="line"/>
      <point x="83" y="511" type="line"/>
      <point x="153" y="511" type="line"/>
      <point x="156" y="498"/>
      <point x="161" y="475"/>
      <point x="166" y="441" type="curve"/>
      <point x="204" y="494"/>
      <point x="257" y="521"/>
    </contour>
    <contour>
      <point x="307" y="446" type="curve" smooth="yes"/>
      <point x="216" y="446"/>
      <point x="176" y="383"/>
      <point x="176" y="256" type="curve" smooth="yes"/>
      <point x="176" y="124"/>
      <point x="219" y="65"/>
      <point x="307" y="65" type="curve" smooth="yes"/>
      <point x="395" y="65"/>
      <point x="437" y="126"/>
      <point x="437" y="256" type="curve" smooth="yes"/>
      <point x="437" y="388"/>
      <point x="392" y="446"/>
    </contour>
  </outline>
</glyph>
<glyph name="q" format="1">
  <advance width="583"/>
  <unicode hex="0071"/>
  <outline>
    <contour>
      <point x="259" y="521" type="curve" smooth="yes"/>
      <point x="335" y="521"/>
      <point x="392" y="491"/>
      <point x="431" y="430" type="curve"/>
      <point x="464" y="511" type="line"/>
      <point x="500" y="511" type="line"/>
      <point x="500" y="-180" type="line"/>
      <point x="406" y="-180" type="line"/>
      <point x="406" y="65" type="line"/>
      <point x="377" y="24"/>
      <point x="322" y="-10"/>
      <point x="258" y="-10" type="curve" smooth="yes"/>
      <point x="126" y="-10"/>
      <point x="52" y="91"/>
      <point x="52" y="244" type="curve" smooth="yes"/>
      <point x="52" y="255" type="line" smooth="yes"/>
      <point x="52" y="421"/>
      <point x="129" y="521"/>
    </contour>
    <contour>
      <point x="277" y="446" type="curve" smooth="yes"/>
      <point x="186" y="446"/>
      <point x="146" y="383"/>
      <point x="146" y="256" type="curve" smooth="yes"/>
      <point x="146" y="124"/>
      <point x="189" y="65"/>
      <point x="277" y="65" type="curve" smooth="yes"/>
      <point x="365" y="65"/>
      <point x="407" y="126"/>
      <point x="407" y="256" type="curve" smooth="yes"/>
      <point x="407" y="388"/>
      <point x="362" y="446"/>
    </contour>
  </outline>
</glyph>
<glyph name="t" format="1">
  <advance width="346"/>
  <unicode hex="0074"/>
  <outline>
    <contour>
      <point x="193" y="511" type="line"/>
      <point x="312" y="511" type="line"/>
      <point x="312" y="436" type="line"/>
      <point x="193" y="436" type="line"/>
      <point x="193" y="131" type="line" smooth="yes"/>
      <point x="193" y="82"/>
      <point x="212" y="63"/>
      <point x="250" y="63" type="curve" smooth="yes"/>
      <point x="267" y="63"/>
      <point x="288" y="68"/>
      <point x="312" y="78" type="curve"/>
      <point x="312" y="8" type="line"/>
      <point x="288" y="-4"/>
      <point x="257" y="-10"/>
      <point x="219" y="-10" type="curve" smooth="yes"/>
      <point x="142" y="-10"/>
      <point x="99" y="32"/>
      <point x="99" y="136" type="curve" smooth="yes"/>
      <point x="99" y="436" type="line"/>
      <point x="43" y="436" type="line"/>
      <point x="43" y="511" type="line"/>
      <point x="102" y="511" type="line"/>
      <point x="134" y="674" type="line"/>
      <point x="193" y="674" type="line"/>
    </contour>
    <contour>
      <point x="173" y="0" type="move" name="Bottom"/>
    </contour>
  </outline>
</glyph>
<glyph name="v" format="1">
  <advance width="512"/>
  <unicode hex="0076"/>
  <outline>
    <contour>
      <point x="306" y="0" type="line"/>
      <point x="206" y="0" type="line"/>
      <point x="12" y="511" type="line"/>
      <point x="112" y="511" type="line"/>
      <point x="258" y="120" type="line"/>
      <point x="262" y="120" type="line"/>
      <point x="408" y="511" type="line"/>
      <point x="500" y="511" type="line"/>
    </contour>
  </outline>
</glyph>
<glyph name="w" format="1">
  <advance width="811"/>
  <unicode hex="0077"/>
  <outline>
    <contour>
      <point x="622" y="0" type="line"/>
      <point x="524" y="0" type="line"/>
      <point x="406" y="357" type="line"/>
      <point x="402" y="357" type="line"/>
      <point x="286" y="0" type="line"/>
      <point x="188" y="0" type="line"/>
      <point x="20" y="511" type="line"/>
      <point x="117" y="511" type="line"/>
      <point x="236" y="137" type="line"/>
      <point x="240" y="137" type="line"/>
      <point x="361" y="511" type="line"/>
      <point x="453" y="511" type="line"/>
      <point x="572" y="137" type="line"/>
      <point x="576" y="137" type="line"/>
      <point x="697" y="511" type="line"/>
      <point x="789" y="511" type="line"/>
    </contour>
  </outline>
</glyph>
<glyph name="x" format="1">
  <advance width="519"/>
  <unicode hex="0078"/>
  <outline>
    <contour>
      <point x="313" y="265" type="line"/>
      <point x="501" y="0" type="line"/>
      <point x="389" y="0" type="line"/>
      <point x="256" y="187" type="line"/>
      <point x="121" y="0" type="line"/>
      <point x="18" y="0" type="line"/>
      <point x="206" y="259" type="line"/>
      <point x="28" y="511" type="line"/>
      <point x="140" y="511" type="line"/>
      <point x="263" y="337" type="line"/>
      <point x="389" y="511" type="line"/>
      <point x="492" y="511" type="line"/>
    </contour>
  </outline>
</glyph>
<glyph name="y" format="1">
  <advance width="512"/>
  <unicode hex="0079"/>
  <outline>
    <contour>
      <point x="500" y="511" type="line"/>
      <point x="309" y="20" type="line" smooth="yes"/>
      <point x="240" y="-151"/>
      <point x="193" y="-186"/>
      <point x="117" y="-186" type="curve" smooth="yes"/>
      <point x="91" y="-186"/>
      <point x="68" y="-181"/>
      <point x="47" y="-172" type="curve"/>
      <point x="47" y="-95" type="line"/>
      <point x="68" y="-104"/>
      <point x="84" y="-109"/>
      <point x="97" y="-109" type="curve" smooth="yes"/>
      <point x="153" y="-109"/>
      <point x="187" y="-72"/>
      <point x="211" y="5" type="curve"/>
      <point x="12" y="511" type="line"/>
      <point x="112" y="511" type="line"/>
      <point x="259" y="134" type="line"/>
      <point x="263" y="134" type="line"/>
      <point x="408" y="511" type="line"/>
    </contour>
  </outline>
</glyph>
<glyph name="braceleft" format="1">
  <advance width="315"/>
  <unicode hex="007B"/>
  <outline>
    <contour>
      <point x="275" y="686" type="curve"/>
      <point x="275" y="636" type="line"/>
      <point x="215" y="636"/>
      <point x="196" y="602"/>
      <point x="196" y="560" type="curve" smooth="yes"/>
      <point x="196" y="501"/>
      <point x="192" y="436"/>
      <point x="189" y="371" type="curve" smooth="yes"/>
      <point x="186" y="306"/>
      <point x="165" y="268"/>
      <point x="100" y="268" type="curve"/>
      <point x="100" y="259" type="line"/>
      <point x="165" y="259"/>
      <point x="186" y="221"/>
      <point x="189" y="156" type="curve" smooth="yes"/>
      <point x="192" y="91"/>
      <point x="196" y="23"/>
      <point x="196" y="-24" type="curve" smooth="yes"/>
      <point x="196" y="-103"/>
      <point x="234" y="-109"/>
      <point x="275" y="-109" type="curve"/>
      <point x="275" y="-159" type="line"/>
      <point x="164" y="-159"/>
      <point x="117" y="-117"/>
      <point x="117" y="-19" type="curve" smooth="yes"/>
      <point x="117" y="167" type="line" smooth="yes"/>
      <point x="117" y="200"/>
      <point x="88" y="224"/>
      <point x="40" y="224" type="curve"/>
      <point x="40" y="303" type="line"/>
      <point x="84" y="303"/>
      <point x="117" y="322"/>
      <point x="117" y="360" type="curve" smooth="yes"/>
      <point x="117" y="546" type="line" smooth="yes"/>
      <point x="117" y="649"/>
      <point x="170" y="686"/>
    </contour>
  </outline>
</glyph>
<glyph name="bar" format="1">
  <advance width="248"/>
  <unicode hex="007C"/>
  <outline>
    <contour>
      <point x="164" y="-199" type="line"/>
      <point x="84" y="-199" type="line"/>
      <point x="84" y="721" type="line"/>
      <point x="164" y="721" type="line"/>
    </contour>
  </outline>
</glyph>
<glyph name="asciitilde" format="1">
  <advance width="689"/>
  <unicode hex="007E"/>
  <outline>
    <contour>
      <point x="628" y="386" type="curve"/>
      <point x="628" y="301" type="line"/>
      <point x="592" y="261"/>
      <point x="529" y="223"/>
      <point x="467" y="223" type="curve" smooth="yes"/>
      <point x="378" y="223"/>
      <point x="317" y="289"/>
      <point x="226" y="289" type="curve" smooth="yes"/>
      <point x="177" y="289"/>
      <point x="111" y="262"/>
      <point x="64" y="211" type="curve"/>
      <point x="64" y="296" type="line"/>
      <point x="111" y="346"/>
      <point x="177" y="374"/>
      <point x="227" y="374" type="curve" smooth="yes"/>
      <point x="312" y="374"/>
      <point x="376" y="308"/>
      <point x="466" y="308" type="curve" smooth="yes"/>
      <point x="519" y="308"/>
      <point x="586" y="337"/>
    </contour>
  </outline>
</glyph>
<glyph name="exclamdown" format="1">
  <advance width="254"/>
  <unicode hex="00A1"/>
  <outline>
    <contour>
      <point x="177" y="399" type="line"/>
      <point x="76" y="399" type="line"/>
      <point x="76" y="510" type="line"/>
      <point x="177" y="510" type="line"/>
    </contour>
    <contour>
      <point x="184" y="-176" type="line"/>
      <point x="94" y="-176" type="line"/>
      <point x="94" y="335" type="line"/>
      <point x="184" y="335" type="line"/>
    </contour>
  </outline>
</glyph>
<glyph name="cent" format="1">
  <advance width="527"/>
  <unicode hex="00A2"/>
  <outline>
    <contour>
      <point x="314" y="693" type="line"/>
      <point x="303" y="608" type="line"/>
      <point x="413" y="597"/>
      <point x="492" y="524"/>
      <point x="492" y="398" type="curve"/>
      <point x="399" y="398" type="line"/>
      <point x="399" y="479"/>
      <point x="357" y="534"/>
      <point x="277" y="534" type="curve" smooth="yes"/>
      <point x="195" y="534"/>
      <point x="142" y="476"/>
      <point x="142" y="379" type="curve" smooth="yes"/>
      <point x="142" y="325" type="line" smooth="yes"/>
      <point x="142" y="206"/>
      <point x="195" y="153"/>
      <point x="280" y="153" type="curve" smooth="yes"/>
      <point x="364" y="153"/>
      <point x="402" y="209"/>
      <point x="402" y="288" type="curve"/>
      <point x="492" y="288" type="line"/>
      <point x="492" y="168"/>
      <point x="417" y="87"/>
      <point x="303" y="79" type="curve"/>
      <point x="314" y="-7" type="line"/>
      <point x="241" y="-7" type="line"/>
      <point x="251" y="79" type="line"/>
      <point x="129" y="87"/>
      <point x="48" y="183"/>
      <point x="48" y="331" type="curve" smooth="yes"/>
      <point x="48" y="355" type="line" smooth="yes"/>
      <point x="48" y="500"/>
      <point x="127" y="600"/>
      <point x="251" y="608" type="curve"/>
      <point x="241" y="693" type="line"/>
    </contour>
  </outline>
</glyph>
<glyph name="sterling" format="1">
  <advance width="597"/>
  <unicode hex="00A3"/>
  <outline>
    <contour>
      <point x="358" y="696" type="curve" smooth="yes"/>
      <point x="367" y="696" type="line" smooth="yes"/>
      <point x="485" y="696"/>
      <point x="565" y="629"/>
      <point x="565" y="499" type="curve" smooth="yes"/>
      <point x="565" y="490" type="line"/>
      <point x="467" y="490" type="line"/>
      <point x="467" y="505" type="line" smooth="yes"/>
      <point x="467" y="565"/>
      <point x="421" y="607"/>
      <point x="360" y="607" type="curve" smooth="yes"/>
      <point x="297" y="607"/>
      <point x="253" y="568"/>
      <point x="253" y="505" type="curve" smooth="yes"/>
      <point x="253" y="382" type="line"/>
      <point x="440" y="382" type="line"/>
      <point x="440" y="293" type="line"/>
      <point x="253" y="293" type="line"/>
      <point x="236" y="89" type="line"/>
      <point x="539" y="89" type="line"/>
      <point x="539" y="0" type="line"/>
      <point x="65" y="0" type="line"/>
      <point x="65" y="89" type="line"/>
      <point x="155" y="89" type="line"/>
      <point x="155" y="293" type="line"/>
      <point x="29" y="293" type="line"/>
      <point x="29" y="382" type="line"/>
      <point x="155" y="382" type="line"/>
      <point x="155" y="499" type="line" smooth="yes"/>
      <point x="155" y="621"/>
      <point x="238" y="696"/>
    </contour>
  </outline>
</glyph>
<glyph name="currency" format="1">
  <advance width="624"/>
  <unicode hex="00A4"/>
  <outline>
    <contour>
      <point x="565" y="539" type="line"/>
      <point x="511" y="485" type="line"/>
      <point x="544" y="440"/>
      <point x="560" y="390"/>
      <point x="560" y="337" type="curve" smooth="yes"/>
      <point x="560" y="282"/>
      <point x="543" y="232"/>
      <point x="509" y="187" type="curve"/>
      <point x="564" y="133" type="line"/>
      <point x="516" y="85" type="line"/>
      <point x="461" y="139" type="line"/>
      <point x="416" y="106"/>
      <point x="367" y="89"/>
      <point x="312" y="89" type="curve" smooth="yes"/>
      <point x="258" y="89"/>
      <point x="208" y="105"/>
      <point x="163" y="138" type="curve"/>
      <point x="110" y="85" type="line"/>
      <point x="62" y="133" type="line"/>
      <point x="115" y="186" type="line"/>
      <point x="81" y="231"/>
      <point x="64" y="281"/>
      <point x="64" y="336" type="curve" smooth="yes"/>
      <point x="64" y="390"/>
      <point x="81" y="440"/>
      <point x="114" y="487" type="curve"/>
      <point x="63" y="539" type="line"/>
      <point x="111" y="587" type="line"/>
      <point x="162" y="535" type="line"/>
      <point x="209" y="568"/>
      <point x="259" y="585"/>
      <point x="313" y="585" type="curve" smooth="yes"/>
      <point x="367" y="585"/>
      <point x="417" y="568"/>
      <point x="463" y="533" type="curve"/>
      <point x="517" y="587" type="line"/>
    </contour>
    <contour>
      <point x="312" y="516" type="curve" smooth="yes"/>
      <point x="214" y="516"/>
      <point x="133" y="435"/>
      <point x="133" y="337" type="curve" smooth="yes"/>
      <point x="133" y="238"/>
      <point x="213" y="158"/>
      <point x="312" y="158" type="curve" smooth="yes"/>
      <point x="410" y="158"/>
      <point x="491" y="239"/>
      <point x="491" y="337" type="curve" smooth="yes"/>
      <point x="491" y="434"/>
      <point x="409" y="516"/>
    </contour>
  </outline>
</glyph>
<glyph name="yen" format="1">
  <advance width="634"/>
  <unicode hex="00A5"/>
  <outline>
    <contour>
      <point x="466" y="440" type="line"/>
      <point x="577" y="440" type="line"/>
      <point x="577" y="376" type="line"/>
      <point x="429" y="376" type="line"/>
      <point x="388" y="303" type="line"/>
      <point x="577" y="303" type="line"/>
      <point x="577" y="239" type="line"/>
      <point x="366" y="239" type="line"/>
      <point x="366" y="0" type="line"/>
      <point x="268" y="0" type="line"/>
      <point x="268" y="239" type="line"/>
      <point x="59" y="239" type="line"/>
      <point x="59" y="303" type="line"/>
      <point x="246" y="303" type="line"/>
      <point x="204" y="376" type="line"/>
      <point x="59" y="376" type="line"/>
      <point x="59" y="440" type="line"/>
      <point x="167" y="440" type="line"/>
      <point x="26" y="686" type="line"/>
      <point x="138" y="686" type="line"/>
      <point x="321" y="367" type="line"/>
      <point x="325" y="367" type="line"/>
      <point x="506" y="686" type="line"/>
      <point x="607" y="686" type="line"/>
    </contour>
  </outline>
</glyph>
<glyph name="brokenbar" format="1">
  <advance width="269"/>
  <unicode hex="00A6"/>
  <outline>
    <contour>
      <point x="179" y="419" type="line"/>
      <point x="90" y="419" type="line"/>
      <point x="90" y="686" type="line"/>
      <point x="179" y="686" type="line"/>
    </contour>
    <contour>
      <point x="179" y="0" type="line"/>
      <point x="90" y="0" type="line"/>
      <point x="90" y="266" type="line"/>
      <point x="179" y="266" type="line"/>
    </contour>
  </outline>
</glyph>
<glyph name="section" format="1">
  <advance width="514"/>
  <unicode hex="00A7"/>
  <outline>
    <contour>
      <point x="259" y="696" type="curve" smooth="yes"/>
      <point x="268" y="696" type="line" smooth="yes"/>
      <point x="384" y="696"/>
      <point x="463" y="636"/>
      <point x="463" y="557" type="curve"/>
      <point x="462" y="539" type="line"/>
      <point x="369" y="539" type="line"/>
      <point x="369" y="548" type="line" smooth="yes"/>
      <point x="369" y="597"/>
      <point x="331" y="621"/>
      <point x="256" y="621" type="curve" smooth="yes"/>
      <point x="181" y="621"/>
      <point x="144" y="598"/>
      <point x="144" y="554" type="curve" smooth="yes"/>
      <point x="144" y="418"/>
      <point x="475" y="428"/>
      <point x="475" y="248" type="curve" smooth="yes"/>
      <point x="475" y="183"/>
      <point x="446" y="133"/>
      <point x="389" y="98" type="curve"/>
      <point x="438" y="63"/>
      <point x="463" y="20"/>
      <point x="463" y="-30" type="curve" smooth="yes"/>
      <point x="463" y="-130"/>
      <point x="383" y="-186"/>
      <point x="254" y="-186" type="curve" smooth="yes"/>
      <point x="245" y="-186" type="line" smooth="yes"/>
      <point x="129" y="-186"/>
      <point x="50" y="-126"/>
      <point x="50" y="-47" type="curve"/>
      <point x="51" y="-29" type="line"/>
      <point x="144" y="-29" type="line"/>
      <point x="144" y="-38" type="line" smooth="yes"/>
      <point x="144" y="-87"/>
      <point x="182" y="-111"/>
      <point x="257" y="-111" type="curve" smooth="yes"/>
      <point x="331" y="-111"/>
      <point x="369" y="-87"/>
      <point x="369" y="-44" type="curve" smooth="yes"/>
      <point x="369" y="92"/>
      <point x="38" y="81"/>
      <point x="38" y="262" type="curve" smooth="yes"/>
      <point x="38" y="328"/>
      <point x="66" y="378"/>
      <point x="123" y="412" type="curve"/>
      <point x="80" y="443"/>
      <point x="50" y="481"/>
      <point x="50" y="544" type="curve" smooth="yes"/>
      <point x="50" y="639"/>
      <point x="130" y="696"/>
    </contour>
    <contour>
      <point x="189" y="375" type="curve"/>
      <point x="164" y="360"/>
      <point x="131" y="332"/>
      <point x="131" y="289" type="curve" smooth="yes"/>
      <point x="131" y="205"/>
      <point x="233" y="177"/>
      <point x="324" y="134" type="curve"/>
      <point x="363" y="160"/>
      <point x="382" y="189"/>
      <point x="382" y="222" type="curve" smooth="yes"/>
      <point x="382" y="298"/>
      <point x="286" y="329"/>
    </contour>
  </outline>
</glyph>
<glyph name="dieresis" format="1">
  <advance width="440"/>
  <unicode hex="00A8"/>
  <outline>
    <contour>
      <point x="171" y="633" type="line"/>
      <point x="81" y="633" type="line"/>
      <point x="81" y="731" type="line"/>
      <point x="171" y="731" type="line"/>
    </contour>
    <contour>
      <point x="360" y="633" type="line"/>
      <point x="269" y="633" type="line"/>
      <point x="269" y="731" type="line"/>
      <point x="360" y="731" type="line"/>
    </contour>
  </outline>
</glyph>
<glyph name="guillemetleft" format="1">
  <advance width="460"/>
  <unicode hex="00AB"/>
  <outline>
    <contour>
      <point x="128" y="337" type="line"/>
      <point x="222" y="163" type="line"/>
      <point x="171" y="163" type="line"/>
      <point x="49" y="337" type="line"/>
      <point x="171" y="511" type="line"/>
      <point x="222" y="511" type="line"/>
    </contour>
    <contour>
      <point x="311" y="337" type="line"/>
      <point x="404" y="163" type="line"/>
      <point x="354" y="163" type="line"/>
      <point x="231" y="337" type="line"/>
      <point x="354" y="511" type="line"/>
      <point x="404" y="511" type="line"/>
    </contour>
  </outline>
</glyph>
<glyph name="logicalnot" format="1">
  <advance width="617"/>
  <unicode hex="00AC"/>
  <outline>
    <contour>
      <point x="556" y="174" type="line"/>
      <point x="472" y="174" type="line"/>
      <point x="472" y="360" type="line"/>
      <point x="37" y="360" type="line"/>
      <point x="37" y="453" type="line"/>
      <point x="556" y="453" type="line"/>
    </contour>
  </outline>
</glyph>
<glyph name="registered" format="1">
  <advance width="780"/>
  <unicode hex="00AE"/>
  <outline>
    <contour>
      <point x="390" y="696" type="curve" smooth="yes"/>
      <point x="585" y="696"/>
      <point x="744" y="539"/>
      <point x="744" y="344" type="curve" smooth="yes"/>
      <point x="744" y="147"/>
      <point x="585" y="-10"/>
      <point x="390" y="-10" type="curve" smooth="yes"/>
      <point x="193" y="-10"/>
      <point x="36" y="147"/>
      <point x="36" y="344" type="curve" smooth="yes"/>
      <point x="36" y="539"/>
      <point x="193" y="696"/>
    </contour>
    <contour>
      <point x="390" y="656" type="curve" smooth="yes"/>
      <point x="209" y="656"/>
      <point x="76" y="519"/>
      <point x="76" y="344" type="curve" smooth="yes"/>
      <point x="76" y="166"/>
      <point x="209" y="30"/>
      <point x="390" y="30" type="curve" smooth="yes"/>
      <point x="565" y="30"/>
      <point x="704" y="162"/>
      <point x="704" y="344" type="curve" smooth="yes"/>
      <point x="704" y="529"/>
      <point x="560" y="656"/>
    </contour>
    <contour>
      <point x="246" y="547" type="line"/>
      <point x="433" y="547" type="line" smooth="yes"/>
      <point x="491" y="547"/>
      <point x="547" y="502"/>
      <point x="547" y="449" type="curve" smooth="yes"/>
      <point x="547" y="396"/>
      <point x="515" y="360"/>
      <point x="480" y="347" type="curve"/>
      <point x="568" y="311"/>
      <point x="514" y="176"/>
      <point x="571" y="156" type="curve"/>
      <point x="571" y="138" type="line"/>
      <point x="561" y="134"/>
      <point x="551" y="132"/>
      <point x="541" y="132" type="curve" smooth="yes"/>
      <point x="495" y="132"/>
      <point x="476" y="157"/>
      <point x="476" y="205" type="curve" smooth="yes"/>
      <point x="476" y="296"/>
      <point x="441" y="319"/>
      <point x="409" y="319" type="curve" smooth="yes"/>
      <point x="310" y="319" type="line"/>
      <point x="310" y="135" type="line"/>
      <point x="246" y="135" type="line"/>
    </contour>
    <contour>
      <point x="310" y="492" type="line"/>
      <point x="310" y="373" type="line"/>
      <point x="421" y="373" type="line" smooth="yes"/>
      <point x="456" y="373"/>
      <point x="484" y="399"/>
      <point x="484" y="431" type="curve" smooth="yes"/>
      <point x="484" y="435" type="line" smooth="yes"/>
      <point x="484" y="467"/>
      <point x="456" y="492"/>
      <point x="421" y="492" type="curve" smooth="yes"/>
    </contour>
  </outline>
</glyph>
<glyph name="degree" format="1">
  <advance width="394"/>
  <unicode hex="00B0"/>
  <outline>
    <contour>
      <point x="197" y="696" type="curve" smooth="yes"/>
      <point x="277" y="696"/>
      <point x="347" y="626"/>
      <point x="347" y="546" type="curve" smooth="yes"/>
      <point x="347" y="463"/>
      <point x="276" y="396"/>
      <point x="197" y="396" type="curve" smooth="yes"/>
      <point x="118" y="396"/>
      <point x="47" y="463"/>
      <point x="47" y="546" type="curve" smooth="yes"/>
      <point x="47" y="623"/>
      <point x="111" y="696"/>
    </contour>
    <contour>
      <point x="196" y="635" type="curve" smooth="yes"/>
      <point x="147" y="635"/>
      <point x="103" y="597"/>
      <point x="103" y="545" type="curve" smooth="yes"/>
      <point x="103" y="493"/>
      <point x="146" y="455"/>
      <point x="197" y="455" type="curve" smooth="yes"/>
      <point x="247" y="455"/>
      <point x="290" y="495"/>
      <point x="290" y="545" type="curve" smooth="yes"/>
      <point x="290" y="594"/>
      <point x="248" y="635"/>
    </contour>
  </outline>
</glyph>
<glyph name="twosuperior" format="1">
  <advance width="384"/>
  <unicode hex="00B2"/>
  <outline>
    <contour>
      <point x="195" y="800" type="curve" smooth="yes"/>
      <point x="270" y="800"/>
      <point x="319" y="750"/>
      <point x="319" y="694" type="curve" smooth="yes"/>
      <point x="319" y="646"/>
      <point x="308" y="615"/>
      <point x="251" y="572" type="curve" smooth="yes"/>
      <point x="146" y="492" type="line" smooth="yes"/>
      <point x="129" y="479"/>
      <point x="120" y="470"/>
      <point x="120" y="466" type="curve"/>
      <point x="320" y="466" type="line"/>
      <point x="320" y="417" type="line"/>
      <point x="61" y="417" type="line"/>
      <point x="61" y="430" type="line" smooth="yes"/>
      <point x="61" y="469"/>
      <point x="78" y="503"/>
      <point x="112" y="528" type="curve" smooth="yes"/>
      <point x="222" y="610" type="line" smooth="yes"/>
      <point x="251" y="631"/>
      <point x="265" y="657"/>
      <point x="265" y="688" type="curve" smooth="yes"/>
      <point x="265" y="722"/>
      <point x="242" y="751"/>
      <point x="191" y="751" type="curve" smooth="yes"/>
      <point x="134" y="751"/>
      <point x="115" y="706"/>
      <point x="115" y="678" type="curve" smooth="yes"/>
      <point x="115" y="664" type="line"/>
      <point x="62" y="664" type="line" smooth="yes"/>
      <point x="61" y="667"/>
      <point x="61" y="671"/>
      <point x="61" y="675" type="curve" smooth="yes"/>
      <point x="61" y="682"/>
      <point x="63" y="714"/>
      <point x="80" y="743" type="curve" smooth="yes"/>
      <point x="103" y="781"/>
      <point x="142" y="800"/>
    </contour>
  </outline>
</glyph>
<glyph name="threesuperior" format="1">
  <advance width="363"/>
  <unicode hex="00B3"/>
  <outline>
    <contour>
      <point x="175" y="800" type="curve" smooth="yes"/>
      <point x="180" y="800" type="line" smooth="yes"/>
      <point x="249" y="800"/>
      <point x="302" y="761"/>
      <point x="302" y="698" type="curve" smooth="yes"/>
      <point x="302" y="660"/>
      <point x="282" y="632"/>
      <point x="242" y="613" type="curve"/>
      <point x="288" y="596"/>
      <point x="311" y="565"/>
      <point x="311" y="519" type="curve" smooth="yes"/>
      <point x="311" y="454"/>
      <point x="256" y="412"/>
      <point x="180" y="412" type="curve" smooth="yes"/>
      <point x="173" y="412" type="line" smooth="yes"/>
      <point x="89" y="412"/>
      <point x="42" y="456"/>
      <point x="42" y="524" type="curve" smooth="yes"/>
      <point x="42" y="528" type="line"/>
      <point x="96" y="528" type="line"/>
      <point x="96" y="522" type="line" smooth="yes"/>
      <point x="96" y="481"/>
      <point x="122" y="461"/>
      <point x="174" y="461" type="curve" smooth="yes"/>
      <point x="225" y="461"/>
      <point x="257" y="481"/>
      <point x="257" y="526" type="curve" smooth="yes"/>
      <point x="257" y="570"/>
      <point x="216" y="585"/>
      <point x="172" y="585" type="curve" smooth="yes"/>
      <point x="131" y="585" type="line"/>
      <point x="131" y="634" type="line"/>
      <point x="173" y="634" type="line" smooth="yes"/>
      <point x="214" y="634"/>
      <point x="248" y="654"/>
      <point x="248" y="695" type="curve" smooth="yes"/>
      <point x="248" y="735"/>
      <point x="215" y="751"/>
      <point x="176" y="751" type="curve" smooth="yes"/>
      <point x="136" y="751"/>
      <point x="105" y="732"/>
      <point x="105" y="693" type="curve" smooth="yes"/>
      <point x="105" y="688" type="line"/>
      <point x="51" y="688" type="line"/>
      <point x="51" y="698" type="line" smooth="yes"/>
      <point x="51" y="761"/>
      <point x="103" y="800"/>
    </contour>
  </outline>
</glyph>
<glyph name="micro" format="1">
  <advance width="612"/>
  <unicode hex="00B5"/>
  <outline>
    <contour>
      <point x="514" y="511" type="line"/>
      <point x="514" y="100" type="line" smooth="yes"/>
      <point x="514" y="75"/>
      <point x="527" y="65"/>
      <point x="542" y="65" type="curve" smooth="yes"/>
      <point x="557" y="65"/>
      <point x="572" y="70"/>
      <point x="587" y="79" type="curve"/>
      <point x="587" y="10" type="line"/>
      <point x="567" y="-3"/>
      <point x="546" y="-10"/>
      <point x="524" y="-10" type="curve" smooth="yes"/>
      <point x="446" y="-10"/>
      <point x="427" y="27"/>
      <point x="425" y="74" type="curve"/>
      <point x="392" y="25"/>
      <point x="332" y="-10"/>
      <point x="264" y="-10" type="curve" smooth="yes"/>
      <point x="229" y="-10"/>
      <point x="197" y="-2"/>
      <point x="170" y="15" type="curve"/>
      <point x="176" y="-32" type="line"/>
      <point x="176" y="-161" type="line"/>
      <point x="82" y="-161" type="line"/>
      <point x="82" y="511" type="line"/>
      <point x="176" y="511" type="line"/>
      <point x="176" y="184" type="line" smooth="yes"/>
      <point x="176" y="97"/>
      <point x="220" y="65"/>
      <point x="284" y="65" type="curve" smooth="yes"/>
      <point x="355" y="65"/>
      <point x="420" y="127"/>
      <point x="420" y="207" type="curve" smooth="yes"/>
      <point x="420" y="511" type="line"/>
    </contour>
  </outline>
</glyph>
<glyph name="paragraph" format="1">
  <advance width="524"/>
  <unicode hex="00B6"/>
  <outline>
    <contour>
      <point x="481" y="625" type="line"/>
      <point x="415" y="625" type="line"/>
      <point x="415" y="-169" type="line"/>
      <point x="352" y="-169" type="line"/>
      <point x="352" y="625" type="line"/>
      <point x="280" y="625" type="line"/>
      <point x="280" y="-169" type="line"/>
      <point x="217" y="-169" type="line"/>
      <point x="217" y="250" type="line"/>
      <point x="108" y="264"/>
      <point x="25" y="354"/>
      <point x="25" y="467" type="curve" smooth="yes"/>
      <point x="25" y="587"/>
      <point x="121" y="686"/>
      <point x="243" y="686" type="curve" smooth="yes"/>
      <point x="481" y="686" type="line"/>
    </contour>
  </outline>
</glyph>
<glyph name="periodcentered" format="1">
  <advance width="239"/>
  <unicode hex="00B7"/>
  <outline>
    <contour>
      <point x="170" y="232" type="line"/>
      <point x="69" y="232" type="line"/>
      <point x="69" y="344" type="line"/>
      <point x="170" y="344" type="line"/>
    </contour>
  </outline>
</glyph>
<glyph name="cedilla" format="1">
  <advance width="350"/>
  <unicode hex="00B8"/>
  <outline>
    <contour>
      <point x="145" y="-17" type="line"/>
      <point x="169" y="-17" type="line" smooth="yes"/>
      <point x="243" y="-17"/>
      <point x="280" y="-47"/>
      <point x="280" y="-106" type="curve" smooth="yes"/>
      <point x="280" y="-164"/>
      <point x="227" y="-197"/>
      <point x="175" y="-197" type="curve" smooth="yes"/>
      <point x="132" y="-197"/>
      <point x="97" y="-190"/>
      <point x="70" y="-175" type="curve"/>
      <point x="79" y="-126" type="line"/>
      <point x="106" y="-139"/>
      <point x="130" y="-146"/>
      <point x="152" y="-146" type="curve" smooth="yes"/>
      <point x="196" y="-146"/>
      <point x="218" y="-131"/>
      <point x="218" y="-101" type="curve" smooth="yes"/>
      <point x="218" y="-74"/>
      <point x="194" y="-60"/>
      <point x="166" y="-60" type="curve" smooth="yes"/>
      <point x="145" y="-60" type="line"/>
    </contour>
  </outline>
</glyph>
<glyph name="onesuperior" format="1">
  <advance width="334"/>
  <unicode hex="00B9"/>
  <outline>
    <contour>
      <point x="203" y="471" type="line"/>
      <point x="284" y="471" type="line"/>
      <point x="284" y="422" type="line"/>
      <point x="50" y="422" type="line"/>
      <point x="50" y="471" type="line"/>
      <point x="149" y="471" type="line"/>
      <point x="149" y="724" type="line"/>
      <point x="50" y="724" type="line"/>
      <point x="50" y="759" type="line"/>
      <point x="87" y="762"/>
      <point x="131" y="774"/>
      <point x="182" y="796" type="curve"/>
      <point x="203" y="796" type="line"/>
    </contour>
  </outline>
</glyph>
<glyph name="guillemetright" format="1">
  <advance width="460"/>
  <unicode hex="00BB"/>
  <outline>
    <contour>
      <point x="230" y="337" type="line"/>
      <point x="107" y="163" type="line"/>
      <point x="56" y="163" type="line"/>
      <point x="150" y="337" type="line"/>
      <point x="56" y="511" type="line"/>
      <point x="107" y="511" type="line"/>
    </contour>
    <contour>
      <point x="411" y="337" type="line"/>
      <point x="289" y="163" type="line"/>
      <point x="239" y="163" type="line"/>
      <point x="332" y="337" type="line"/>
      <point x="239" y="511" type="line"/>
      <point x="289" y="511" type="line"/>
    </contour>
  </outline>
</glyph>
<glyph name="onequarter" format="1">
  <advance width="702"/>
  <unicode hex="00BC"/>
  <outline>
    <contour>
      <point x="198" y="0" type="line"/>
      <point x="143" y="0" type="line"/>
      <point x="563" y="686" type="line"/>
      <point x="615" y="686" type="line"/>
    </contour>
    <contour>
      <point x="189" y="359" type="line"/>
      <point x="270" y="359" type="line"/>
      <point x="270" y="310" type="line"/>
      <point x="36" y="310" type="line"/>
      <point x="36" y="359" type="line"/>
      <point x="135" y="359" type="line"/>
      <point x="135" y="612" type="line"/>
      <point x="36" y="612" type="line"/>
      <point x="36" y="647" type="line"/>
      <point x="73" y="650"/>
      <point x="117" y="662"/>
      <point x="168" y="684" type="curve"/>
      <point x="189" y="684" type="line"/>
    </contour>
    <contour>
      <point x="517" y="374" type="curve"/>
      <point x="572" y="374" type="line"/>
      <point x="545" y="269"/>
      <point x="473" y="163"/>
      <point x="452" y="140" type="curve"/>
      <point x="575" y="140" type="line"/>
      <point x="575" y="245" type="line"/>
      <point x="587" y="270"/>
      <point x="597" y="294"/>
      <point x="604" y="319" type="curve"/>
      <point x="629" y="319" type="line"/>
      <point x="629" y="140" type="line"/>
      <point x="675" y="140" type="line"/>
      <point x="675" y="91" type="line"/>
      <point x="629" y="91" type="line"/>
      <point x="629" y="0" type="line"/>
      <point x="575" y="0" type="line"/>
      <point x="575" y="91" type="line"/>
      <point x="402" y="91" type="line"/>
      <point x="402" y="141" type="line"/>
      <point x="452" y="217"/>
      <point x="490" y="295"/>
    </contour>
  </outline>
</glyph>
<glyph name="onehalf" format="1">
  <advance width="726"/>
  <unicode hex="00BD"/>
  <outline>
    <contour>
      <point x="178" y="0" type="line"/>
      <point x="123" y="0" type="line"/>
      <point x="543" y="686" type="line"/>
      <point x="595" y="686" type="line"/>
    </contour>
    <contour>
      <point x="186" y="359" type="line"/>
      <point x="267" y="359" type="line"/>
      <point x="267" y="310" type="line"/>
      <point x="33" y="310" type="line"/>
      <point x="33" y="359" type="line"/>
      <point x="132" y="359" type="line"/>
      <point x="132" y="612" type="line"/>
      <point x="33" y="612" type="line"/>
      <point x="33" y="647" type="line"/>
      <point x="70" y="650"/>
      <point x="114" y="662"/>
      <point x="165" y="684" type="curve"/>
      <point x="186" y="684" type="line"/>
    </contour>
    <contour>
      <point x="571" y="383" type="curve" smooth="yes"/>
      <point x="645" y="383"/>
      <point x="695" y="333"/>
      <point x="695" y="277" type="curve" smooth="yes"/>
      <point x="695" y="229"/>
      <point x="684" y="198"/>
      <point x="627" y="155" type="curve" smooth="yes"/>
      <point x="522" y="75" type="line" smooth="yes"/>
      <point x="505" y="62"/>
      <point x="496" y="54"/>
      <point x="496" y="49" type="curve"/>
      <point x="696" y="49" type="line"/>
      <point x="696" y="0" type="line"/>
      <point x="437" y="0" type="line"/>
      <point x="437" y="13" type="line" smooth="yes"/>
      <point x="437" y="52"/>
      <point x="454" y="86"/>
      <point x="488" y="111" type="curve" smooth="yes"/>
      <point x="598" y="193" type="line" smooth="yes"/>
      <point x="627" y="214"/>
      <point x="641" y="240"/>
      <point x="641" y="271" type="curve" smooth="yes"/>
      <point x="641" y="305"/>
      <point x="618" y="334"/>
      <point x="567" y="334" type="curve" smooth="yes"/>
      <point x="510" y="334"/>
      <point x="491" y="289"/>
      <point x="491" y="261" type="curve" smooth="yes"/>
      <point x="491" y="247" type="line"/>
      <point x="438" y="247" type="line" smooth="yes"/>
      <point x="437" y="250"/>
      <point x="437" y="254"/>
      <point x="437" y="258" type="curve" smooth="yes"/>
      <point x="437" y="265"/>
      <point x="439" y="297"/>
      <point x="456" y="326" type="curve" smooth="yes"/>
      <point x="479" y="364"/>
      <point x="518" y="383"/>
    </contour>
  </outline>
</glyph>
<glyph name="threequarters" format="1">
  <advance width="698"/>
  <unicode hex="00BE"/>
  <outline>
    <contour>
      <point x="164" y="686" type="curve" smooth="yes"/>
      <point x="169" y="686" type="line" smooth="yes"/>
      <point x="238" y="686"/>
      <point x="291" y="647"/>
      <point x="291" y="584" type="curve" smooth="yes"/>
      <point x="291" y="546"/>
      <point x="271" y="518"/>
      <point x="231" y="499" type="curve"/>
      <point x="277" y="482"/>
      <point x="300" y="451"/>
      <point x="300" y="405" type="curve" smooth="yes"/>
      <point x="300" y="340"/>
      <point x="245" y="298"/>
      <point x="169" y="298" type="curve" smooth="yes"/>
      <point x="162" y="298" type="line" smooth="yes"/>
      <point x="78" y="298"/>
      <point x="31" y="342"/>
      <point x="31" y="410" type="curve" smooth="yes"/>
      <point x="31" y="414" type="line"/>
      <point x="85" y="414" type="line"/>
      <point x="85" y="408" type="line" smooth="yes"/>
      <point x="85" y="367"/>
      <point x="111" y="347"/>
      <point x="163" y="347" type="curve" smooth="yes"/>
      <point x="214" y="347"/>
      <point x="246" y="367"/>
      <point x="246" y="412" type="curve" smooth="yes"/>
      <point x="246" y="456"/>
      <point x="205" y="471"/>
      <point x="161" y="471" type="curve" smooth="yes"/>
      <point x="120" y="471" type="line"/>
      <point x="120" y="520" type="line"/>
      <point x="162" y="520" type="line" smooth="yes"/>
      <point x="203" y="520"/>
      <point x="237" y="540"/>
      <point x="237" y="581" type="curve" smooth="yes"/>
      <point x="237" y="621"/>
      <point x="204" y="637"/>
      <point x="165" y="637" type="curve" smooth="yes"/>
      <point x="125" y="637"/>
      <point x="94" y="618"/>
      <point x="94" y="579" type="curve" smooth="yes"/>
      <point x="94" y="574" type="line"/>
      <point x="40" y="574" type="line"/>
      <point x="40" y="584" type="line" smooth="yes"/>
      <point x="40" y="647"/>
      <point x="92" y="686"/>
    </contour>
    <contour>
      <point x="198" y="0" type="line"/>
      <point x="143" y="0" type="line"/>
      <point x="563" y="686" type="line"/>
      <point x="615" y="686" type="line"/>
    </contour>
    <contour>
      <point x="512" y="374" type="curve"/>
      <point x="567" y="374" type="line"/>
      <point x="540" y="269"/>
      <point x="468" y="163"/>
      <point x="447" y="140" type="curve"/>
      <point x="570" y="140" type="line"/>
      <point x="570" y="245" type="line"/>
      <point x="582" y="270"/>
      <point x="592" y="294"/>
      <point x="599" y="319" type="curve"/>
      <point x="624" y="319" type="line"/>
      <point x="624" y="140" type="line"/>
      <point x="670" y="140" type="line"/>
      <point x="670" y="91" type="line"/>
      <point x="624" y="91" type="line"/>
      <point x="624" y="0" type="line"/>
      <point x="570" y="0" type="line"/>
      <point x="570" y="91" type="line"/>
      <point x="397" y="91" type="line"/>
      <point x="397" y="141" type="line"/>
      <point x="447" y="217"/>
      <point x="485" y="295"/>
    </contour>
  </outline>
</glyph>
<glyph name="questiondown" format="1">
  <advance width="495"/>
  <unicode hex="00BF"/>
  <outline>
    <contour>
      <point x="292" y="400" type="line"/>
      <point x="188" y="400" type="line"/>
      <point x="188" y="511" type="line"/>
      <point x="292" y="511" type="line"/>
    </contour>
    <contour>
      <point x="290" y="326" type="line"/>
      <point x="290" y="262" type="line" smooth="yes"/>
      <point x="290" y="158"/>
      <point x="134" y="114"/>
      <point x="134" y="13" type="curve" smooth="yes"/>
      <point x="134" y="-49"/>
      <point x="182" y="-96"/>
      <point x="252" y="-96" type="curve" smooth="yes"/>
      <point x="325" y="-96"/>
      <point x="372" y="-52"/>
      <point x="372" y="16" type="curve" smooth="yes"/>
      <point x="370" y="53" type="line"/>
      <point x="468" y="53" type="line"/>
      <point x="470" y="45"/>
      <point x="471" y="32"/>
      <point x="471" y="15" type="curve" smooth="yes"/>
      <point x="471" y="-76"/>
      <point x="396" y="-185"/>
      <point x="251" y="-185" type="curve" smooth="yes"/>
      <point x="245" y="-185" type="line" smooth="yes"/>
      <point x="108" y="-185"/>
      <point x="35" y="-88"/>
      <point x="35" y="20" type="curve" smooth="yes"/>
      <point x="35" y="169"/>
      <point x="190" y="186"/>
      <point x="190" y="277" type="curve" smooth="yes"/>
      <point x="190" y="326" type="line"/>
    </contour>
  </outline>
</glyph>
<glyph name="Agrave" format="1">
  <advance width="652"/>
  <unicode hex="00C0"/>
  <outline>
    <contour>
      <point x="360" y="750" type="line"/>
      <point x="290" y="750" type="line"/>
      <point x="175" y="892" type="line"/>
      <point x="176" y="895" type="line"/>
      <point x="265" y="895" type="line"/>
    </contour>
    <contour>
      <point x="648" y="0" type="line"/>
      <point x="542" y="0" type="line"/>
      <point x="484" y="149" type="line"/>
      <point x="156" y="149" type="line"/>
      <point x="99" y="0" type="line"/>
      <point x="4" y="0" type="line"/>
      <point x="272" y="686" type="line"/>
      <point x="380" y="686" type="line"/>
    </contour>
    <contour>
      <point x="318" y="568" type="line"/>
      <point x="191" y="238" type="line"/>
      <point x="450" y="238" type="line"/>
      <point x="324" y="568" type="line"/>
    </contour>
  </outline>
</glyph>
<glyph name="Atilde" format="1">
  <advance width="652"/>
  <unicode hex="00C3"/>
  <outline>
    <contour>
      <point x="467" y="854" type="curve"/>
      <point x="517" y="854" type="line"/>
      <point x="517" y="795"/>
      <point x="472" y="750"/>
      <point x="405" y="750" type="curve" smooth="yes"/>
      <point x="385" y="750"/>
      <point x="361" y="753"/>
      <point x="335" y="761" type="curve" smooth="yes"/>
      <point x="280" y="777"/>
      <point x="265" y="784"/>
      <point x="236" y="784" type="curve" smooth="yes"/>
      <point x="206" y="784"/>
      <point x="188" y="773"/>
      <point x="181" y="750" type="curve"/>
      <point x="131" y="750" type="line"/>
      <point x="131" y="802"/>
      <point x="170" y="854"/>
      <point x="242" y="854" type="curve" smooth="yes"/>
      <point x="277" y="854"/>
      <point x="304" y="845"/>
      <point x="332" y="836" type="curve" smooth="yes"/>
      <point x="369" y="825"/>
      <point x="395" y="819"/>
      <point x="412" y="819" type="curve" smooth="yes"/>
      <point x="441" y="819"/>
      <point x="460" y="831"/>
    </contour>
    <contour>
      <point x="648" y="0" type="line"/>
      <point x="542" y="0" type="line"/>
      <point x="484" y="149" type="line"/>
      <point x="156" y="149" type="line"/>
      <point x="99" y="0" type="line"/>
      <point x="4" y="0" type="line"/>
      <point x="272" y="686" type="line"/>
      <point x="380" y="686" type="line"/>
    </contour>
    <contour>
      <point x="318" y="568" type="line"/>
      <point x="191" y="238" type="line"/>
      <point x="450" y="238" type="line"/>
      <point x="324" y="568" type="line"/>
    </contour>
  </outline>
</glyph>
<glyph name="Adieresis" format="1">
  <advance width="652"/>
  <unicode hex="00C4"/>
  <outline>
    <contour>
      <point x="274" y="749" type="line"/>
      <point x="184" y="749" type="line"/>
      <point x="184" y="847" type="line"/>
      <point x="274" y="847" type="line"/>
    </contour>
    <contour>
      <point x="463" y="749" type="line"/>
      <point x="372" y="749" type="line"/>
      <point x="372" y="847" type="line"/>
      <point x="463" y="847" type="line"/>
    </contour>
    <contour>
      <point x="648" y="0" type="line"/>
      <point x="542" y="0" type="line"/>
      <point x="484" y="149" type="line"/>
      <point x="156" y="149" type="line"/>
      <point x="99" y="0" type="line"/>
      <point x="4" y="0" type="line"/>
      <point x="272" y="686" type="line"/>
      <point x="380" y="686" type="line"/>
    </contour>
    <contour>
      <point x="318" y="568" type="line"/>
      <point x="191" y="238" type="line"/>
      <point x="450" y="238" type="line"/>
      <point x="324" y="568" type="line"/>
    </contour>
  </outline>
</glyph>
<glyph name="Aring" format="1">
  <advance width="652"/>
  <unicode hex="00C5"/>
  <outline>
    <contour>
      <point x="326" y="926" type="curve" smooth="yes"/>
      <point x="376" y="926"/>
      <point x="427" y="883"/>
      <point x="427" y="825" type="curve" smooth="yes"/>
      <point x="427" y="770"/>
      <point x="382" y="725"/>
      <point x="326" y="725" type="curve" smooth="yes"/>
      <point x="273" y="725"/>
      <point x="225" y="768"/>
      <point x="225" y="825" type="curve" smooth="yes"/>
      <point x="225" y="881"/>
      <point x="270" y="926"/>
    </contour>
    <contour>
      <point x="326" y="879" type="curve" smooth="yes"/>
      <point x="295" y="879"/>
      <point x="270" y="856"/>
      <point x="270" y="825" type="curve" smooth="yes"/>
      <point x="270" y="794"/>
      <point x="295" y="772"/>
      <point x="326" y="772" type="curve" smooth="yes"/>
      <point x="357" y="772"/>
      <point x="382" y="795"/>
      <point x="382" y="826" type="curve" smooth="yes"/>
      <point x="382" y="855"/>
      <point x="357" y="879"/>
    </contour>
    <contour>
      <point x="648" y="0" type="line"/>
      <point x="542" y="0" type="line"/>
      <point x="484" y="149" type="line"/>
      <point x="156" y="149" type="line"/>
      <point x="99" y="0" type="line"/>
      <point x="4" y="0" type="line"/>
      <point x="272" y="686" type="line"/>
      <point x="380" y="686" type="line"/>
    </contour>
    <contour>
      <point x="318" y="568" type="line"/>
      <point x="191" y="238" type="line"/>
      <point x="450" y="238" type="line"/>
      <point x="324" y="568" type="line"/>
    </contour>
  </outline>
</glyph>
<glyph name="AE" format="1">
  <advance width="983"/>
  <unicode hex="00C6"/>
  <outline>
    <contour>
      <point x="919" y="597" type="line"/>
      <point x="501" y="597" type="line"/>
      <point x="551" y="395" type="line"/>
      <point x="887" y="395" type="line"/>
      <point x="887" y="306" type="line"/>
      <point x="573" y="306" type="line"/>
      <point x="627" y="89" type="line"/>
      <point x="925" y="89" type="line"/>
      <point x="939" y="0" type="line"/>
      <point x="544" y="0" type="line"/>
      <point x="507" y="149" type="line"/>
      <point x="179" y="149" type="line"/>
      <point x="101" y="0" type="line"/>
      <point x="7" y="0" type="line"/>
      <point x="371" y="686" type="line"/>
      <point x="932" y="686" type="line"/>
    </contour>
    <contour>
      <point x="400" y="568" type="line"/>
      <point x="227" y="238" type="line"/>
      <point x="486" y="238" type="line"/>
      <point x="406" y="568" type="line"/>
    </contour>
  </outline>
</glyph>
<glyph name="Ccedilla" format="1">
  <advance width="663"/>
  <unicode hex="00C7"/>
  <outline>
    <contour>
      <point x="344" y="696" type="curve" smooth="yes"/>
      <point x="505" y="696"/>
      <point x="609" y="593"/>
      <point x="609" y="423" type="curve"/>
      <point x="511" y="423" type="line"/>
      <point x="511" y="538"/>
      <point x="453" y="607"/>
      <point x="344" y="607" type="curve" smooth="yes"/>
      <point x="225" y="607"/>
      <point x="160" y="532"/>
      <point x="160" y="388" type="curve" smooth="yes"/>
      <point x="160" y="298" type="line" smooth="yes"/>
      <point x="160" y="156"/>
      <point x="222" y="79"/>
      <point x="342" y="79" type="curve" smooth="yes"/>
      <point x="456" y="79"/>
      <point x="515" y="148"/>
      <point x="515" y="261" type="curve"/>
      <point x="609" y="261" type="line"/>
      <point x="609" y="94"/>
      <point x="506" y="-10"/>
      <point x="344" y="-10" type="curve" smooth="yes"/>
      <point x="167" y="-10"/>
      <point x="62" y="104"/>
      <point x="62" y="298" type="curve" smooth="yes"/>
      <point x="62" y="388" type="line" smooth="yes"/>
      <point x="62" y="580"/>
      <point x="167" y="696"/>
    </contour>
    <contour>
      <point x="314" y="-17" type="line"/>
      <point x="338" y="-17" type="line" smooth="yes"/>
      <point x="412" y="-17"/>
      <point x="449" y="-47"/>
      <point x="449" y="-106" type="curve" smooth="yes"/>
      <point x="449" y="-164"/>
      <point x="396" y="-197"/>
      <point x="344" y="-197" type="curve" smooth="yes"/>
      <point x="301" y="-197"/>
      <point x="266" y="-190"/>
      <point x="239" y="-175" type="curve"/>
      <point x="248" y="-126" type="line"/>
      <point x="275" y="-139"/>
      <point x="299" y="-146"/>
      <point x="320" y="-146" type="curve" smooth="yes"/>
      <point x="365" y="-146"/>
      <point x="387" y="-131"/>
      <point x="387" y="-101" type="curve" smooth="yes"/>
      <point x="387" y="-74"/>
      <point x="363" y="-60"/>
      <point x="335" y="-60" type="curve" smooth="yes"/>
      <point x="314" y="-60" type="line"/>
    </contour>
  </outline>
</glyph>
<glyph name="Eacute" format="1">
  <advance width="593"/>
  <unicode hex="00C9"/>
  <outline>
    <contour>
      <point x="469" y="892" type="line"/>
      <point x="353" y="750" type="line"/>
      <point x="284" y="750" type="line"/>
      <point x="378" y="895" type="line"/>
      <point x="468" y="895" type="line"/>
    </contour>
    <contour>
      <point x="529" y="597" type="line"/>
      <point x="190" y="597" type="line"/>
      <point x="190" y="395" type="line"/>
      <point x="497" y="395" type="line"/>
      <point x="497" y="306" type="line"/>
      <point x="190" y="306" type="line"/>
      <point x="190" y="89" type="line"/>
      <point x="535" y="89" type="line"/>
      <point x="549" y="0" type="line"/>
      <point x="92" y="0" type="line"/>
      <point x="92" y="686" type="line"/>
      <point x="542" y="686" type="line"/>
    </contour>
  </outline>
</glyph>
<glyph name="Edieresis" format="1">
  <advance width="593"/>
  <unicode hex="00CB"/>
  <outline>
    <contour>
      <point x="268" y="750" type="line"/>
      <point x="178" y="750" type="line"/>
      <point x="178" y="848" type="line"/>
      <point x="268" y="848" type="line"/>
    </contour>
    <contour>
      <point x="457" y="750" type="line"/>
      <point x="366" y="750" type="line"/>
      <point x="366" y="848" type="line"/>
      <point x="457" y="848" type="line"/>
    </contour>
    <contour>
      <point x="529" y="597" type="line"/>
      <point x="190" y="597" type="line"/>
      <point x="190" y="395" type="line"/>
      <point x="497" y="395" type="line"/>
      <point x="497" y="306" type="line"/>
      <point x="190" y="306" type="line"/>
      <point x="190" y="89" type="line"/>
      <point x="535" y="89" type="line"/>
      <point x="549" y="0" type="line"/>
      <point x="92" y="0" type="line"/>
      <point x="92" y="686" type="line"/>
      <point x="542" y="686" type="line"/>
    </contour>
  </outline>
</glyph>
<glyph name="Igrave" format="1">
  <advance width="364"/>
  <unicode hex="00CC"/>
  <outline>
    <contour>
      <point x="217" y="750" type="line"/>
      <point x="147" y="750" type="line"/>
      <point x="32" y="892" type="line"/>
      <point x="33" y="895" type="line"/>
      <point x="122" y="895" type="line"/>
    </contour>
    <contour>
      <point x="311" y="597" type="line"/>
      <point x="231" y="597" type="line"/>
      <point x="231" y="89" type="line"/>
      <point x="311" y="89" type="line"/>
      <point x="311" y="0" type="line"/>
      <point x="53" y="0" type="line"/>
      <point x="53" y="89" type="line"/>
      <point x="133" y="89" type="line"/>
      <point x="133" y="597" type="line"/>
      <point x="53" y="597" type="line"/>
      <point x="53" y="686" type="line"/>
      <point x="311" y="686" type="line"/>
    </contour>
  </outline>
</glyph>
<glyph name="Icircumflex" format="1">
  <advance width="364"/>
  <unicode hex="00CE"/>
  <outline>
    <contour>
      <point x="357" y="750" type="line"/>
      <point x="277" y="750" type="line"/>
      <point x="183" y="839" type="line"/>
      <point x="88" y="750" type="line"/>
      <point x="8" y="750" type="line"/>
      <point x="144" y="895" type="line"/>
      <point x="222" y="895" type="line"/>
    </contour>
    <contour>
      <point x="311" y="597" type="line"/>
      <point x="231" y="597" type="line"/>
      <point x="231" y="89" type="line"/>
      <point x="311" y="89" type="line"/>
      <point x="311" y="0" type="line"/>
      <point x="53" y="0" type="line"/>
      <point x="53" y="89" type="line"/>
      <point x="133" y="89" type="line"/>
      <point x="133" y="597" type="line"/>
      <point x="53" y="597" type="line"/>
      <point x="53" y="686" type="line"/>
      <point x="311" y="686" type="line"/>
    </contour>
  </outline>
</glyph>
<glyph name="Idieresis" format="1">
  <advance width="364"/>
  <unicode hex="00CF"/>
  <outline>
    <contour>
      <point x="133" y="750" type="line"/>
      <point x="43" y="750" type="line"/>
      <point x="43" y="848" type="line"/>
      <point x="133" y="848" type="line"/>
    </contour>
    <contour>
      <point x="322" y="750" type="line"/>
      <point x="231" y="750" type="line"/>
      <point x="231" y="848" type="line"/>
      <point x="322" y="848" type="line"/>
    </contour>
    <contour>
      <point x="311" y="597" type="line"/>
      <point x="231" y="597" type="line"/>
      <point x="231" y="89" type="line"/>
      <point x="311" y="89" type="line"/>
      <point x="311" y="0" type="line"/>
      <point x="53" y="0" type="line"/>
      <point x="53" y="89" type="line"/>
      <point x="133" y="89" type="line"/>
      <point x="133" y="597" type="line"/>
      <point x="53" y="597" type="line"/>
      <point x="53" y="686" type="line"/>
      <point x="311" y="686" type="line"/>
    </contour>
  </outline>
</glyph>
<glyph name="Eth" format="1">
  <advance width="681"/>
  <unicode hex="00D0"/>
  <outline>
    <contour>
      <point x="98" y="686" type="line"/>
      <point x="336" y="686" type="line" smooth="yes"/>
      <point x="509" y="686"/>
      <point x="620" y="567"/>
      <point x="620" y="378" type="curve" smooth="yes"/>
      <point x="620" y="308" type="line" smooth="yes"/>
      <point x="620" y="119"/>
      <point x="509" y="0"/>
      <point x="336" y="0" type="curve" smooth="yes"/>
      <point x="98" y="0" type="line"/>
      <point x="98" y="310" type="line"/>
      <point x="5" y="310" type="line"/>
      <point x="5" y="375" type="line"/>
      <point x="98" y="375" type="line"/>
    </contour>
    <contour>
      <point x="196" y="597" type="line"/>
      <point x="196" y="375" type="line"/>
      <point x="341" y="375" type="line"/>
      <point x="341" y="310" type="line"/>
      <point x="196" y="310" type="line"/>
      <point x="196" y="89" type="line"/>
      <point x="336" y="89" type="line" smooth="yes"/>
      <point x="453" y="89"/>
      <point x="522" y="162"/>
      <point x="522" y="308" type="curve" smooth="yes"/>
      <point x="522" y="378" type="line" smooth="yes"/>
      <point x="522" y="519"/>
      <point x="458" y="597"/>
      <point x="336" y="597" type="curve" smooth="yes"/>
    </contour>
  </outline>
</glyph>
<glyph name="Ntilde" format="1">
  <advance width="694"/>
  <unicode hex="00D1"/>
  <outline>
    <contour>
      <point x="491" y="854" type="curve"/>
      <point x="541" y="854" type="line"/>
      <point x="541" y="795"/>
      <point x="496" y="750"/>
      <point x="429" y="750" type="curve" smooth="yes"/>
      <point x="409" y="750"/>
      <point x="385" y="753"/>
      <point x="359" y="761" type="curve" smooth="yes"/>
      <point x="304" y="777"/>
      <point x="289" y="784"/>
      <point x="260" y="784" type="curve" smooth="yes"/>
      <point x="230" y="784"/>
      <point x="212" y="773"/>
      <point x="205" y="750" type="curve"/>
      <point x="155" y="750" type="line"/>
      <point x="155" y="802"/>
      <point x="194" y="854"/>
      <point x="266" y="854" type="curve" smooth="yes"/>
      <point x="301" y="854"/>
      <point x="328" y="845"/>
      <point x="356" y="836" type="curve" smooth="yes"/>
      <point x="393" y="825"/>
      <point x="419" y="819"/>
      <point x="436" y="819" type="curve" smooth="yes"/>
      <point x="465" y="819"/>
      <point x="484" y="831"/>
    </contour>
    <contour>
      <point x="602" y="0" type="line"/>
      <point x="519" y="0" type="line"/>
      <point x="184" y="502" type="line"/>
      <point x="181" y="501" type="line"/>
      <point x="181" y="0" type="line"/>
      <point x="92" y="0" type="line"/>
      <point x="92" y="686" type="line"/>
      <point x="178" y="686" type="line"/>
      <point x="510" y="190" type="line"/>
      <point x="513" y="191" type="line"/>
      <point x="513" y="686" type="line"/>
      <point x="602" y="686" type="line"/>
    </contour>
  </outline>
</glyph>
<glyph name="Ocircumflex" format="1">
  <advance width="690"/>
  <unicode hex="00D4"/>
  <outline>
    <contour>
      <point x="517" y="750" type="line"/>
      <point x="437" y="750" type="line"/>
      <point x="343" y="839" type="line"/>
      <point x="248" y="750" type="line"/>
      <point x="168" y="750" type="line"/>
      <point x="304" y="895" type="line"/>
      <point x="382" y="895" type="line"/>
    </contour>
    <contour>
      <point x="345" y="696" type="curve" smooth="yes"/>
      <point x="515" y="696"/>
      <point x="629" y="581"/>
      <point x="629" y="388" type="curve" smooth="yes"/>
      <point x="629" y="298" type="line" smooth="yes"/>
      <point x="629" y="105"/>
      <point x="515" y="-10"/>
      <point x="345" y="-10" type="curve" smooth="yes"/>
      <point x="175" y="-10"/>
      <point x="61" y="105"/>
      <point x="61" y="298" type="curve" smooth="yes"/>
      <point x="61" y="388" type="line" smooth="yes"/>
      <point x="61" y="581"/>
      <point x="175" y="696"/>
    </contour>
    <contour>
      <point x="345" y="607" type="curve" smooth="yes"/>
      <point x="229" y="607"/>
      <point x="159" y="533"/>
      <point x="159" y="388" type="curve" smooth="yes"/>
      <point x="159" y="298" type="line" smooth="yes"/>
      <point x="159" y="156"/>
      <point x="223" y="79"/>
      <point x="345" y="79" type="curve" smooth="yes"/>
      <point x="459" y="79"/>
      <point x="531" y="151"/>
      <point x="531" y="298" type="curve" smooth="yes"/>
      <point x="531" y="388" type="line" smooth="yes"/>
      <point x="531" y="530"/>
      <point x="467" y="607"/>
    </contour>
  </outline>
</glyph>
<glyph name="Otilde" format="1">
  <advance width="690"/>
  <unicode hex="00D5"/>
  <outline>
    <contour>
      <point x="488" y="854" type="curve"/>
      <point x="538" y="854" type="line"/>
      <point x="538" y="792"/>
      <point x="492" y="750"/>
      <point x="426" y="750" type="curve" smooth="yes"/>
      <point x="406" y="750"/>
      <point x="382" y="753"/>
      <point x="356" y="761" type="curve" smooth="yes"/>
      <point x="301" y="777"/>
      <point x="286" y="784"/>
      <point x="257" y="784" type="curve" smooth="yes"/>
      <point x="227" y="784"/>
      <point x="209" y="773"/>
      <point x="202" y="750" type="curve"/>
      <point x="152" y="750" type="line"/>
      <point x="152" y="804"/>
      <point x="192" y="854"/>
      <point x="263" y="854" type="curve" smooth="yes"/>
      <point x="298" y="854"/>
      <point x="324" y="844"/>
      <point x="352" y="836" type="curve" smooth="yes"/>
      <point x="388" y="824"/>
      <point x="416" y="819"/>
      <point x="433" y="819" type="curve" smooth="yes"/>
      <point x="462" y="819"/>
      <point x="481" y="831"/>
    </contour>
    <contour>
      <point x="345" y="696" type="curve" smooth="yes"/>
      <point x="515" y="696"/>
      <point x="629" y="581"/>
      <point x="629" y="388" type="curve" smooth="yes"/>
      <point x="629" y="298" type="line" smooth="yes"/>
      <point x="629" y="105"/>
      <point x="515" y="-10"/>
      <point x="345" y="-10" type="curve" smooth="yes"/>
      <point x="175" y="-10"/>
      <point x="61" y="105"/>
      <point x="61" y="298" type="curve" smooth="yes"/>
      <point x="61" y="388" type="line" smooth="yes"/>
      <point x="61" y="581"/>
      <point x="175" y="696"/>
    </contour>
    <contour>
      <point x="345" y="607" type="curve" smooth="yes"/>
      <point x="229" y="607"/>
      <point x="159" y="533"/>
      <point x="159" y="388" type="curve" smooth="yes"/>
      <point x="159" y="298" type="line" smooth="yes"/>
      <point x="159" y="156"/>
      <point x="223" y="79"/>
      <point x="345" y="79" type="curve" smooth="yes"/>
      <point x="459" y="79"/>
      <point x="531" y="151"/>
      <point x="531" y="298" type="curve" smooth="yes"/>
      <point x="531" y="388" type="line" smooth="yes"/>
      <point x="531" y="530"/>
      <point x="467" y="607"/>
    </contour>
  </outline>
</glyph>
<glyph name="multiply" format="1">
  <advance width="615"/>
  <unicode hex="00D7"/>
  <outline>
    <contour>
      <point x="516" y="407" type="line"/>
      <point x="363" y="255" type="line"/>
      <point x="516" y="104" type="line"/>
      <point x="461" y="45" type="line"/>
      <point x="308" y="195" type="line"/>
      <point x="154" y="45" type="line"/>
      <point x="99" y="104" type="line"/>
      <point x="252" y="255" type="line"/>
      <point x="99" y="407" type="line"/>
      <point x="154" y="466" type="line"/>
      <point x="308" y="314" type="line"/>
      <point x="461" y="466" type="line"/>
    </contour>
  </outline>
</glyph>
<glyph name="Oslash" format="1">
  <advance width="690"/>
  <unicode hex="00D8"/>
  <outline>
    <contour>
      <point x="624" y="754" type="line"/>
      <point x="544" y="621" type="line"/>
      <point x="601" y="567"/>
      <point x="629" y="489"/>
      <point x="629" y="388" type="curve" smooth="yes"/>
      <point x="629" y="298" type="line" smooth="yes"/>
      <point x="629" y="105"/>
      <point x="515" y="-10"/>
      <point x="345" y="-10" type="curve" smooth="yes"/>
      <point x="286" y="-10"/>
      <point x="235" y="3"/>
      <point x="190" y="30" type="curve"/>
      <point x="134" y="-65" type="line"/>
      <point x="70" y="-65" type="line"/>
      <point x="147" y="63" type="line"/>
      <point x="90" y="118"/>
      <point x="61" y="196"/>
      <point x="61" y="298" type="curve" smooth="yes"/>
      <point x="61" y="388" type="line" smooth="yes"/>
      <point x="61" y="581"/>
      <point x="175" y="696"/>
      <point x="345" y="696" type="curve" smooth="yes"/>
      <point x="405" y="696"/>
      <point x="457" y="682"/>
      <point x="501" y="655" type="curve"/>
      <point x="560" y="754" type="line"/>
    </contour>
    <contour>
      <point x="357" y="607" type="curve" smooth="yes"/>
      <point x="216" y="607"/>
      <point x="159" y="527"/>
      <point x="159" y="388" type="curve" smooth="yes"/>
      <point x="159" y="298" type="line" smooth="yes"/>
      <point x="159" y="233"/>
      <point x="172" y="182"/>
      <point x="197" y="147" type="curve"/>
      <point x="454" y="577" type="line"/>
      <point x="424" y="597"/>
      <point x="392" y="607"/>
    </contour>
    <contour>
      <point x="494" y="537" type="curve"/>
      <point x="237" y="108" type="line"/>
      <point x="266" y="89"/>
      <point x="298" y="79"/>
      <point x="333" y="79" type="curve" smooth="yes"/>
      <point x="472" y="79"/>
      <point x="531" y="158"/>
      <point x="531" y="298" type="curve" smooth="yes"/>
      <point x="531" y="388" type="line" smooth="yes"/>
      <point x="531" y="449"/>
      <point x="519" y="499"/>
    </contour>
  </outline>
</glyph>
<glyph name="Ucircumflex" format="1">
  <advance width="680"/>
  <unicode hex="00DB"/>
  <outline>
    <contour>
      <point x="514" y="750" type="line"/>
      <point x="434" y="750" type="line"/>
      <point x="340" y="839" type="line"/>
      <point x="245" y="750" type="line"/>
      <point x="165" y="750" type="line"/>
      <point x="301" y="895" type="line"/>
      <point x="379" y="895" type="line"/>
    </contour>
    <contour>
      <point x="594" y="686" type="line"/>
      <point x="594" y="219" type="line" smooth="yes"/>
      <point x="594" y="81"/>
      <point x="496" y="-10"/>
      <point x="346" y="-10" type="curve" smooth="yes"/>
      <point x="333" y="-10" type="line" smooth="yes"/>
      <point x="185" y="-10"/>
      <point x="86" y="79"/>
      <point x="86" y="219" type="curve" smooth="yes"/>
      <point x="86" y="686" type="line"/>
      <point x="184" y="686" type="line"/>
      <point x="184" y="221" type="line" smooth="yes"/>
      <point x="184" y="135"/>
      <point x="251" y="79"/>
      <point x="342" y="79" type="curve" smooth="yes"/>
      <point x="437" y="79"/>
      <point x="496" y="137"/>
      <point x="496" y="221" type="curve" smooth="yes"/>
      <point x="496" y="686" type="line"/>
    </contour>
  </outline>
</glyph>
<glyph name="Yacute" format="1">
  <advance width="572"/>
  <unicode hex="00DD"/>
  <outline>
    <contour>
      <point x="444" y="892" type="line"/>
      <point x="328" y="750" type="line"/>
      <point x="259" y="750" type="line"/>
      <point x="353" y="895" type="line"/>
      <point x="443" y="895" type="line"/>
    </contour>
    <contour>
      <point x="335" y="265" type="line"/>
      <point x="335" y="0" type="line"/>
      <point x="237" y="0" type="line"/>
      <point x="237" y="265" type="line"/>
      <point x="-5" y="686" type="line"/>
      <point x="107" y="686" type="line"/>
      <point x="290" y="367" type="line"/>
      <point x="294" y="367" type="line"/>
      <point x="475" y="686" type="line"/>
      <point x="576" y="686" type="line"/>
    </contour>
  </outline>
</glyph>
<glyph name="Thorn" format="1">
  <advance width="633"/>
  <unicode hex="00DE"/>
  <outline>
    <contour>
      <point x="190" y="562" type="line"/>
      <point x="388" y="562" type="line" smooth="yes"/>
      <point x="506" y="562"/>
      <point x="593" y="478"/>
      <point x="593" y="362" type="curve" smooth="yes"/>
      <point x="593" y="246"/>
      <point x="506" y="162"/>
      <point x="388" y="162" type="curve" smooth="yes"/>
      <point x="190" y="162" type="line"/>
      <point x="190" y="0" type="line"/>
      <point x="92" y="0" type="line"/>
      <point x="92" y="686" type="line"/>
      <point x="190" y="686" type="line"/>
    </contour>
    <contour>
      <point x="190" y="473" type="line"/>
      <point x="190" y="251" type="line"/>
      <point x="379" y="251" type="line" smooth="yes"/>
      <point x="440" y="251"/>
      <point x="495" y="299"/>
      <point x="495" y="362" type="curve" smooth="yes"/>
      <point x="495" y="425"/>
      <point x="441" y="473"/>
      <point x="379" y="473" type="curve" smooth="yes"/>
    </contour>
  </outline>
</glyph>
<glyph name="germandbls" format="1">
  <advance width="614"/>
  <unicode hex="00DF"/>
  <outline>
    <contour>
      <point x="331" y="728" type="curve" smooth="yes"/>
      <point x="455" y="728"/>
      <point x="542" y="650"/>
      <point x="542" y="543" type="curve" smooth="yes"/>
      <point x="542" y="476"/>
      <point x="501" y="414"/>
      <point x="442" y="391" type="curve"/>
      <point x="444" y="387" type="line"/>
      <point x="515" y="360"/>
      <point x="565" y="291"/>
      <point x="565" y="200" type="curve" smooth="yes"/>
      <point x="565" y="89"/>
      <point x="465" y="0"/>
      <point x="342" y="0" type="curve" smooth="yes"/>
      <point x="259" y="0" type="line"/>
      <point x="259" y="75" type="line"/>
      <point x="332" y="75" type="line" smooth="yes"/>
      <point x="414" y="75"/>
      <point x="471" y="142"/>
      <point x="471" y="214" type="curve" smooth="yes"/>
      <point x="471" y="285"/>
      <point x="408" y="346"/>
      <point x="332" y="346" type="curve" smooth="yes"/>
      <point x="259" y="346" type="line"/>
      <point x="259" y="420" type="line"/>
      <point x="324" y="420" type="line" smooth="yes"/>
      <point x="393" y="420"/>
      <point x="448" y="472"/>
      <point x="448" y="540" type="curve" smooth="yes"/>
      <point x="448" y="607"/>
      <point x="403" y="653"/>
      <point x="327" y="653" type="curve" smooth="yes"/>
      <point x="251" y="653"/>
      <point x="198" y="597"/>
      <point x="198" y="513" type="curve" smooth="yes"/>
      <point x="198" y="-66" type="line"/>
      <point x="104" y="-66" type="line"/>
      <point x="104" y="436" type="line"/>
      <point x="46" y="436" type="line"/>
      <point x="46" y="511" type="line"/>
      <point x="104" y="511" type="line"/>
      <point x="106" y="644"/>
      <point x="204" y="728"/>
    </contour>
  </outline>
</glyph>
<glyph name="agrave" format="1">
  <advance width="585"/>
  <unicode hex="00E0"/>
  <outline>
    <contour>
      <point x="314" y="575" type="line"/>
      <point x="244" y="575" type="line"/>
      <point x="129" y="717" type="line"/>
      <point x="130" y="720" type="line"/>
      <point x="219" y="720" type="line"/>
    </contour>
    <contour>
      <point x="275" y="521" type="curve" smooth="yes"/>
      <point x="284" y="521" type="line" smooth="yes"/>
      <point x="420" y="521"/>
      <point x="484" y="465"/>
      <point x="484" y="365" type="curve" smooth="yes"/>
      <point x="484" y="100" type="line" smooth="yes"/>
      <point x="484" y="75"/>
      <point x="497" y="65"/>
      <point x="512" y="65" type="curve" smooth="yes"/>
      <point x="528" y="65"/>
      <point x="543" y="70"/>
      <point x="558" y="79" type="curve"/>
      <point x="558" y="10" type="line"/>
      <point x="536" y="-3"/>
      <point x="510" y="-10"/>
      <point x="481" y="-10" type="curve" smooth="yes"/>
      <point x="421" y="-10"/>
      <point x="397" y="29"/>
      <point x="394" y="82" type="curve"/>
      <point x="353" y="21"/>
      <point x="294" y="-10"/>
      <point x="215" y="-10" type="curve" smooth="yes"/>
      <point x="105" y="-10"/>
      <point x="48" y="35"/>
      <point x="48" y="142" type="curve" smooth="yes"/>
      <point x="48" y="263"/>
      <point x="133" y="307"/>
      <point x="390" y="307" type="curve"/>
      <point x="390" y="354" type="line" smooth="yes"/>
      <point x="390" y="425"/>
      <point x="344" y="446"/>
      <point x="273" y="446" type="curve" smooth="yes"/>
      <point x="201" y="446"/>
      <point x="159" y="417"/>
      <point x="159" y="366" type="curve" smooth="yes"/>
      <point x="159" y="354" type="line"/>
      <point x="67" y="354" type="line"/>
      <point x="66" y="361"/>
      <point x="65" y="372"/>
      <point x="65" y="387" type="curve" smooth="yes"/>
      <point x="65" y="458"/>
      <point x="156" y="521"/>
    </contour>
    <contour>
      <point x="390" y="214" type="curve" smooth="yes"/>
      <point x="390" y="234" type="line"/>
      <point x="175" y="234"/>
      <point x="142" y="202"/>
      <point x="142" y="134" type="curve" smooth="yes"/>
      <point x="142" y="88"/>
      <point x="177" y="65"/>
      <point x="247" y="65" type="curve" smooth="yes"/>
      <point x="321" y="65"/>
      <point x="390" y="122"/>
    </contour>
  </outline>
</glyph>
<glyph name="ae" format="1">
  <advance width="895"/>
  <unicode hex="00E6"/>
  <outline>
    <contour>
      <point x="620" y="521" type="curve" smooth="yes"/>
      <point x="627" y="521" type="line" smooth="yes"/>
      <point x="752" y="521"/>
      <point x="841" y="439"/>
      <point x="841" y="305" type="curve" smooth="yes"/>
      <point x="841" y="234" type="line"/>
      <point x="484" y="234" type="line"/>
      <point x="487" y="128"/>
      <point x="533" y="65"/>
      <point x="629" y="65" type="curve" smooth="yes"/>
      <point x="720" y="65"/>
      <point x="752" y="130"/>
      <point x="752" y="190" type="curve"/>
      <point x="841" y="190" type="line"/>
      <point x="841" y="71"/>
      <point x="754" y="-10"/>
      <point x="627" y="-10" type="curve" smooth="yes"/>
      <point x="623" y="-10" type="line" smooth="yes"/>
      <point x="534" y="-10"/>
      <point x="463" y="29"/>
      <point x="423" y="101" type="curve"/>
      <point x="378" y="29"/>
      <point x="295" y="-10"/>
      <point x="215" y="-10" type="curve" smooth="yes"/>
      <point x="105" y="-10"/>
      <point x="48" y="35"/>
      <point x="48" y="142" type="curve" smooth="yes"/>
      <point x="48" y="263"/>
      <point x="133" y="307"/>
      <point x="390" y="307" type="curve"/>
      <point x="390" y="354" type="line" smooth="yes"/>
      <point x="390" y="425"/>
      <point x="344" y="446"/>
      <point x="273" y="446" type="curve" smooth="yes"/>
      <point x="201" y="446"/>
      <point x="159" y="417"/>
      <point x="159" y="366" type="curve" smooth="yes"/>
      <point x="159" y="354" type="line"/>
      <point x="67" y="354" type="line"/>
      <point x="66" y="361"/>
      <point x="65" y="372"/>
      <point x="65" y="387" type="curve" smooth="yes"/>
      <point x="65" y="458"/>
      <point x="156" y="521"/>
      <point x="275" y="521" type="curve" smooth="yes"/>
      <point x="284" y="521" type="line" smooth="yes"/>
      <point x="368" y="521"/>
      <point x="426" y="500"/>
      <point x="457" y="457" type="curve"/>
      <point x="497" y="500"/>
      <point x="551" y="521"/>
    </contour>
    <contour>
      <point x="622" y="446" type="curve" smooth="yes"/>
      <point x="547" y="446"/>
      <point x="497" y="400"/>
      <point x="486" y="307" type="curve"/>
      <point x="748" y="307" type="line"/>
      <point x="748" y="319" type="line" smooth="yes"/>
      <point x="748" y="395"/>
      <point x="698" y="446"/>
    </contour>
    <contour>
      <point x="390" y="214" type="curve" smooth="yes"/>
      <point x="390" y="234" type="line"/>
      <point x="175" y="234"/>
      <point x="142" y="202"/>
      <point x="142" y="134" type="curve" smooth="yes"/>
      <point x="142" y="88"/>
      <point x="177" y="65"/>
      <point x="247" y="65" type="curve" smooth="yes"/>
      <point x="321" y="65"/>
      <point x="390" y="122"/>
    </contour>
  </outline>
</glyph>
<glyph name="ccedilla" format="1">
  <advance width="544"/>
  <unicode hex="00E7"/>
  <outline>
    <contour>
      <point x="275" y="521" type="curve" smooth="yes"/>
      <point x="283" y="521" type="line" smooth="yes"/>
      <point x="406" y="521"/>
      <point x="495" y="437"/>
      <point x="495" y="310" type="curve"/>
      <point x="402" y="310" type="line"/>
      <point x="402" y="390"/>
      <point x="361" y="446"/>
      <point x="280" y="446" type="curve" smooth="yes"/>
      <point x="198" y="446"/>
      <point x="145" y="388"/>
      <point x="145" y="291" type="curve" smooth="yes"/>
      <point x="145" y="237" type="line" smooth="yes"/>
      <point x="145" y="118"/>
      <point x="198" y="65"/>
      <point x="283" y="65" type="curve" smooth="yes"/>
      <point x="367" y="65"/>
      <point x="405" y="121"/>
      <point x="405" y="200" type="curve"/>
      <point x="495" y="200" type="line"/>
      <point x="495" y="71"/>
      <point x="411" y="-10"/>
      <point x="284" y="-10" type="curve" smooth="yes"/>
      <point x="276" y="-10" type="line" smooth="yes"/>
      <point x="138" y="-10"/>
      <point x="51" y="91"/>
      <point x="51" y="243" type="curve" smooth="yes"/>
      <point x="51" y="267" type="line" smooth="yes"/>
      <point x="51" y="420"/>
      <point x="141" y="521"/>
    </contour>
    <contour>
      <point x="254" y="-17" type="line"/>
      <point x="278" y="-17" type="line" smooth="yes"/>
      <point x="352" y="-17"/>
      <point x="389" y="-47"/>
      <point x="389" y="-106" type="curve" smooth="yes"/>
      <point x="389" y="-164"/>
      <point x="336" y="-197"/>
      <point x="284" y="-197" type="curve" smooth="yes"/>
      <point x="241" y="-197"/>
      <point x="206" y="-190"/>
      <point x="179" y="-175" type="curve"/>
      <point x="188" y="-126" type="line"/>
      <point x="215" y="-139"/>
      <point x="239" y="-146"/>
      <point x="260" y="-146" type="curve" smooth="yes"/>
      <point x="305" y="-146"/>
      <point x="327" y="-131"/>
      <point x="327" y="-101" type="curve" smooth="yes"/>
      <point x="327" y="-74"/>
      <point x="303" y="-60"/>
      <point x="275" y="-60" type="curve" smooth="yes"/>
      <point x="254" y="-60" type="line"/>
    </contour>
  </outline>
</glyph>
<glyph name="egrave" format="1">
  <advance width="556"/>
  <unicode hex="00E8"/>
  <outline>
    <contour>
      <point x="320" y="575" type="line"/>
      <point x="250" y="575" type="line"/>
      <point x="135" y="717" type="line"/>
      <point x="136" y="720" type="line"/>
      <point x="225" y="720" type="line"/>
    </contour>
    <contour>
      <point x="281" y="521" type="curve" smooth="yes"/>
      <point x="288" y="521" type="line" smooth="yes"/>
      <point x="414" y="521"/>
      <point x="502" y="437"/>
      <point x="502" y="305" type="curve" smooth="yes"/>
      <point x="502" y="234" type="line"/>
      <point x="145" y="234" type="line"/>
      <point x="148" y="128"/>
      <point x="194" y="65"/>
      <point x="290" y="65" type="curve" smooth="yes"/>
      <point x="381" y="65"/>
      <point x="413" y="130"/>
      <point x="413" y="190" type="curve"/>
      <point x="502" y="190" type="line"/>
      <point x="502" y="69"/>
      <point x="413" y="-10"/>
      <point x="288" y="-10" type="curve" smooth="yes"/>
      <point x="284" y="-10" type="line" smooth="yes"/>
      <point x="139" y="-10"/>
      <point x="51" y="91"/>
      <point x="51" y="245" type="curve" smooth="yes"/>
      <point x="51" y="265" type="line" smooth="yes"/>
      <point x="51" y="417"/>
      <point x="139" y="521"/>
    </contour>
    <contour>
      <point x="283" y="446" type="curve" smooth="yes"/>
      <point x="208" y="446"/>
      <point x="158" y="400"/>
      <point x="147" y="307" type="curve"/>
      <point x="409" y="307" type="line"/>
      <point x="409" y="319" type="line" smooth="yes"/>
      <point x="409" y="395"/>
      <point x="359" y="446"/>
    </contour>
  </outline>
</glyph>
<glyph name="igrave" format="1">
  <advance width="260"/>
  <unicode hex="00EC"/>
  <outline>
    <contour>
      <point x="176" y="575" type="line"/>
      <point x="106" y="575" type="line"/>
      <point x="-9" y="717" type="line"/>
      <point x="-8" y="720" type="line"/>
      <point x="83" y="720" type="line"/>
    </contour>
    <contour>
      <point x="177" y="0" type="line"/>
      <point x="83" y="0" type="line"/>
      <point x="83" y="511" type="line"/>
      <point x="177" y="511" type="line"/>
    </contour>
  </outline>
</glyph>
<glyph name="iacute" format="1">
  <advance width="260"/>
  <unicode hex="00ED"/>
  <outline>
    <contour>
      <point x="270" y="717" type="line"/>
      <point x="154" y="575" type="line"/>
      <point x="85" y="575" type="line"/>
      <point x="179" y="720" type="line"/>
      <point x="269" y="720" type="line"/>
    </contour>
    <contour>
      <point x="177" y="0" type="line"/>
      <point x="83" y="0" type="line"/>
      <point x="83" y="511" type="line"/>
      <point x="177" y="511" type="line"/>
    </contour>
  </outline>
</glyph>
<glyph name="icircumflex" format="1">
  <advance width="260"/>
  <unicode hex="00EE"/>
  <outline>
    <contour>
      <point x="305" y="575" type="line"/>
      <point x="225" y="575" type="line"/>
      <point x="131" y="664" type="line"/>
      <point x="36" y="575" type="line"/>
      <point x="-44" y="575" type="line"/>
      <point x="92" y="720" type="line"/>
      <point x="170" y="720" type="line"/>
    </contour>
    <contour>
      <point x="177" y="0" type="line"/>
      <point x="83" y="0" type="line"/>
      <point x="83" y="511" type="line"/>
      <point x="177" y="511" type="line"/>
    </contour>
  </outline>
</glyph>
<glyph name="idieresis" format="1">
  <advance width="260"/>
  <unicode hex="00EF"/>
  <outline>
    <contour>
      <point x="83" y="622" type="line"/>
      <point x="-9" y="622" type="line"/>
      <point x="-9" y="720" type="line"/>
      <point x="83" y="720" type="line"/>
    </contour>
    <contour>
      <point x="270" y="622" type="line"/>
      <point x="179" y="622" type="line"/>
      <point x="179" y="720" type="line"/>
      <point x="270" y="720" type="line"/>
    </contour>
    <contour>
      <point x="177" y="0" type="line"/>
      <point x="83" y="0" type="line"/>
      <point x="83" y="511" type="line"/>
      <point x="177" y="511" type="line"/>
    </contour>
  </outline>
</glyph>
<glyph name="eth" format="1">
  <advance width="575"/>
  <unicode hex="00F0"/>
  <outline>
    <contour>
      <point x="114" y="700" type="curve"/>
      <point x="173" y="729" type="line"/>
      <point x="203" y="714"/>
      <point x="235" y="695"/>
      <point x="268" y="673" type="curve"/>
      <point x="362" y="717" type="line"/>
      <point x="394" y="683" type="line"/>
      <point x="307" y="643" type="line"/>
      <point x="443" y="531"/>
      <point x="522" y="408"/>
      <point x="522" y="274" type="curve" smooth="yes"/>
      <point x="522" y="237" type="line" smooth="yes"/>
      <point x="522" y="84"/>
      <point x="432" y="-10"/>
      <point x="287" y="-10" type="curve" smooth="yes"/>
      <point x="142" y="-10"/>
      <point x="52" y="84"/>
      <point x="52" y="237" type="curve" smooth="yes"/>
      <point x="52" y="274" type="line" smooth="yes"/>
      <point x="52" y="429"/>
      <point x="145" y="521"/>
      <point x="287" y="521" type="curve" smooth="yes"/>
      <point x="297" y="521"/>
      <point x="308" y="520"/>
      <point x="319" y="518" type="curve"/>
      <point x="295" y="547"/>
      <point x="267" y="576"/>
      <point x="236" y="605" type="curve"/>
      <point x="145" y="562" type="line"/>
      <point x="132" y="573"/>
      <point x="121" y="584"/>
      <point x="109" y="595" type="curve"/>
      <point x="203" y="639" type="line"/>
      <point x="172" y="666"/>
      <point x="135" y="685"/>
    </contour>
    <contour>
      <point x="287" y="446" type="curve" smooth="yes"/>
      <point x="199" y="446"/>
      <point x="146" y="385"/>
      <point x="146" y="265" type="curve" smooth="yes"/>
      <point x="146" y="246" type="line" smooth="yes"/>
      <point x="146" y="131"/>
      <point x="196" y="65"/>
      <point x="287" y="65" type="curve" smooth="yes"/>
      <point x="374" y="65"/>
      <point x="428" y="126"/>
      <point x="428" y="246" type="curve" smooth="yes"/>
      <point x="428" y="265" type="line" smooth="yes"/>
      <point x="428" y="380"/>
      <point x="378" y="446"/>
    </contour>
  </outline>
</glyph>
<glyph name="ntilde" format="1">
  <advance width="593"/>
  <unicode hex="00F1"/>
  <outline>
    <contour>
      <point x="447" y="720" type="curve"/>
      <point x="497" y="720" type="line"/>
      <point x="497" y="661"/>
      <point x="452" y="616"/>
      <point x="385" y="616" type="curve" smooth="yes"/>
      <point x="365" y="616"/>
      <point x="341" y="619"/>
      <point x="315" y="627" type="curve" smooth="yes"/>
      <point x="260" y="643"/>
      <point x="245" y="650"/>
      <point x="216" y="650" type="curve" smooth="yes"/>
      <point x="186" y="650"/>
      <point x="168" y="639"/>
      <point x="161" y="616" type="curve"/>
      <point x="111" y="616" type="line"/>
      <point x="111" y="668"/>
      <point x="150" y="720"/>
      <point x="222" y="720" type="curve" smooth="yes"/>
      <point x="257" y="720"/>
      <point x="284" y="711"/>
      <point x="312" y="702" type="curve" smooth="yes"/>
      <point x="349" y="691"/>
      <point x="375" y="685"/>
      <point x="392" y="685" type="curve" smooth="yes"/>
      <point x="421" y="685"/>
      <point x="440" y="697"/>
    </contour>
    <contour>
      <point x="335" y="521" type="curve" smooth="yes"/>
      <point x="444" y="521"/>
      <point x="515" y="462"/>
      <point x="515" y="344" type="curve" smooth="yes"/>
      <point x="515" y="0" type="line"/>
      <point x="421" y="0" type="line"/>
      <point x="421" y="327" type="line" smooth="yes"/>
      <point x="421" y="414"/>
      <point x="377" y="446"/>
      <point x="313" y="446" type="curve" smooth="yes"/>
      <point x="241" y="446"/>
      <point x="177" y="383"/>
      <point x="177" y="304" type="curve" smooth="yes"/>
      <point x="177" y="0" type="line"/>
      <point x="83" y="0" type="line"/>
      <point x="83" y="511" type="line"/>
      <point x="151" y="511" type="line"/>
      <point x="164" y="436" type="line"/>
      <point x="207" y="493"/>
      <point x="264" y="521"/>
    </contour>
  </outline>
</glyph>
<glyph name="ograve" format="1">
  <advance width="574"/>
  <unicode hex="00F2"/>
  <outline>
    <contour>
      <point x="323" y="575" type="line"/>
      <point x="253" y="575" type="line"/>
      <point x="138" y="717" type="line"/>
      <point x="139" y="720" type="line"/>
      <point x="228" y="720" type="line"/>
    </contour>
    <contour>
      <point x="287" y="521" type="curve" smooth="yes"/>
      <point x="429" y="521"/>
      <point x="522" y="429"/>
      <point x="522" y="274" type="curve" smooth="yes"/>
      <point x="522" y="237" type="line" smooth="yes"/>
      <point x="522" y="84"/>
      <point x="432" y="-10"/>
      <point x="287" y="-10" type="curve" smooth="yes"/>
      <point x="142" y="-10"/>
      <point x="52" y="84"/>
      <point x="52" y="237" type="curve" smooth="yes"/>
      <point x="52" y="274" type="line" smooth="yes"/>
      <point x="52" y="429"/>
      <point x="145" y="521"/>
    </contour>
    <contour>
      <point x="287" y="446" type="curve" smooth="yes"/>
      <point x="199" y="446"/>
      <point x="146" y="385"/>
      <point x="146" y="265" type="curve" smooth="yes"/>
      <point x="146" y="246" type="line" smooth="yes"/>
      <point x="146" y="131"/>
      <point x="196" y="65"/>
      <point x="287" y="65" type="curve" smooth="yes"/>
      <point x="374" y="65"/>
      <point x="428" y="126"/>
      <point x="428" y="246" type="curve" smooth="yes"/>
      <point x="428" y="265" type="line" smooth="yes"/>
      <point x="428" y="380"/>
      <point x="378" y="446"/>
    </contour>
  </outline>
</glyph>
<glyph name="otilde" format="1">
  <advance width="574"/>
  <unicode hex="00F5"/>
  <outline>
    <contour>
      <point x="430" y="720" type="curve"/>
      <point x="480" y="720" type="line"/>
      <point x="480" y="658"/>
      <point x="434" y="616"/>
      <point x="368" y="616" type="curve" smooth="yes"/>
      <point x="348" y="616"/>
      <point x="324" y="619"/>
      <point x="298" y="627" type="curve" smooth="yes"/>
      <point x="243" y="643"/>
      <point x="228" y="650"/>
      <point x="199" y="650" type="curve" smooth="yes"/>
      <point x="169" y="650"/>
      <point x="151" y="639"/>
      <point x="144" y="616" type="curve"/>
      <point x="94" y="616" type="line"/>
      <point x="94" y="670"/>
      <point x="134" y="720"/>
      <point x="205" y="720" type="curve" smooth="yes"/>
      <point x="240" y="720"/>
      <point x="266" y="710"/>
      <point x="294" y="702" type="curve" smooth="yes"/>
      <point x="330" y="690"/>
      <point x="358" y="685"/>
      <point x="375" y="685" type="curve" smooth="yes"/>
      <point x="404" y="685"/>
      <point x="423" y="697"/>
    </contour>
    <contour>
      <point x="287" y="521" type="curve" smooth="yes"/>
      <point x="429" y="521"/>
      <point x="522" y="429"/>
      <point x="522" y="274" type="curve" smooth="yes"/>
      <point x="522" y="237" type="line" smooth="yes"/>
      <point x="522" y="84"/>
      <point x="432" y="-10"/>
      <point x="287" y="-10" type="curve" smooth="yes"/>
      <point x="142" y="-10"/>
      <point x="52" y="84"/>
      <point x="52" y="237" type="curve" smooth="yes"/>
      <point x="52" y="274" type="line" smooth="yes"/>
      <point x="52" y="429"/>
      <point x="145" y="521"/>
    </contour>
    <contour>
      <point x="287" y="446" type="curve" smooth="yes"/>
      <point x="199" y="446"/>
      <point x="146" y="385"/>
      <point x="146" y="265" type="curve" smooth="yes"/>
      <point x="146" y="246" type="line" smooth="yes"/>
      <point x="146" y="131"/>
      <point x="196" y="65"/>
      <point x="287" y="65" type="curve" smooth="yes"/>
      <point x="374" y="65"/>
      <point x="428" y="126"/>
      <point x="428" y="246" type="curve" smooth="yes"/>
      <point x="428" y="265" type="line" smooth="yes"/>
      <point x="428" y="380"/>
      <point x="378" y="446"/>
    </contour>
  </outline>
</glyph>
<glyph name="divide" format="1">
  <advance width="615"/>
  <unicode hex="00F7"/>
  <outline>
    <contour>
      <point x="349" y="369" type="line"/>
      <point x="266" y="369" type="line"/>
      <point x="266" y="460" type="line"/>
      <point x="349" y="460" type="line"/>
    </contour>
    <contour>
      <point x="563" y="213" type="line"/>
      <point x="51" y="213" type="line"/>
      <point x="51" y="297" type="line"/>
      <point x="563" y="297" type="line"/>
    </contour>
    <contour>
      <point x="349" y="51" type="line"/>
      <point x="266" y="51" type="line"/>
      <point x="266" y="141" type="line"/>
      <point x="349" y="141" type="line"/>
    </contour>
  </outline>
</glyph>
<glyph name="oslash" format="1">
  <advance width="574"/>
  <unicode hex="00F8"/>
  <outline>
    <contour>
      <point x="511" y="568" type="line"/>
      <point x="447" y="466" type="line"/>
      <point x="497" y="422"/>
      <point x="522" y="358"/>
      <point x="522" y="274" type="curve" smooth="yes"/>
      <point x="522" y="237" type="line" smooth="yes"/>
      <point x="522" y="84"/>
      <point x="432" y="-10"/>
      <point x="287" y="-10" type="curve" smooth="yes"/>
      <point x="242" y="-10"/>
      <point x="202" y="-1"/>
      <point x="167" y="17" type="curve"/>
      <point x="122" y="-55" type="line"/>
      <point x="63" y="-55" type="line"/>
      <point x="126" y="45" type="line"/>
      <point x="77" y="89"/>
      <point x="52" y="153"/>
      <point x="52" y="237" type="curve" smooth="yes"/>
      <point x="52" y="274" type="line" smooth="yes"/>
      <point x="52" y="429"/>
      <point x="145" y="521"/>
      <point x="287" y="521" type="curve" smooth="yes"/>
      <point x="331" y="521"/>
      <point x="371" y="512"/>
      <point x="406" y="494" type="curve"/>
      <point x="452" y="568" type="line"/>
    </contour>
    <contour>
      <point x="294" y="446" type="curve" smooth="yes"/>
      <point x="195" y="446"/>
      <point x="146" y="381"/>
      <point x="146" y="265" type="curve" smooth="yes"/>
      <point x="146" y="246" type="line" smooth="yes"/>
      <point x="146" y="195"/>
      <point x="156" y="155"/>
      <point x="175" y="124" type="curve"/>
      <point x="363" y="425" type="line"/>
      <point x="341" y="439"/>
      <point x="318" y="446"/>
    </contour>
    <contour>
      <point x="398" y="388" type="curve"/>
      <point x="210" y="86" type="line"/>
      <point x="231" y="72"/>
      <point x="254" y="65"/>
      <point x="279" y="65" type="curve" smooth="yes"/>
      <point x="380" y="65"/>
      <point x="428" y="130"/>
      <point x="428" y="246" type="curve" smooth="yes"/>
      <point x="428" y="265" type="line" smooth="yes"/>
      <point x="428" y="316"/>
      <point x="418" y="357"/>
    </contour>
  </outline>
</glyph>
<glyph name="thorn" format="1">
  <advance width="583"/>
  <unicode hex="00FE"/>
  <outline>
    <contour>
      <point x="177" y="720" type="line"/>
      <point x="177" y="455" type="line"/>
      <point x="213" y="499"/>
      <point x="262" y="521"/>
      <point x="324" y="521" type="curve" smooth="yes"/>
      <point x="453" y="521"/>
      <point x="531" y="421"/>
      <point x="531" y="255" type="curve" smooth="yes"/>
      <point x="531" y="244" type="line" smooth="yes"/>
      <point x="531" y="89"/>
      <point x="456" y="-10"/>
      <point x="324" y="-10" type="curve" smooth="yes"/>
      <point x="261" y="-10"/>
      <point x="212" y="15"/>
      <point x="177" y="65" type="curve"/>
      <point x="177" y="-181" type="line"/>
      <point x="83" y="-181" type="line"/>
      <point x="83" y="720" type="line"/>
    </contour>
    <contour>
      <point x="307" y="446" type="curve" smooth="yes"/>
      <point x="216" y="446"/>
      <point x="176" y="383"/>
      <point x="176" y="256" type="curve" smooth="yes"/>
      <point x="176" y="124"/>
      <point x="219" y="65"/>
      <point x="307" y="65" type="curve" smooth="yes"/>
      <point x="395" y="65"/>
      <point x="437" y="126"/>
      <point x="437" y="256" type="curve" smooth="yes"/>
      <point x="437" y="388"/>
      <point x="392" y="446"/>
    </contour>
  </outline>
</glyph>
<glyph name="ydieresis" format="1">
  <advance width="512"/>
  <unicode hex="00FF"/>
  <outline>
    <contour>
      <point x="210" y="622" type="line"/>
      <point x="120" y="622" type="line"/>
      <point x="120" y="720" type="line"/>
      <point x="210" y="720" type="line"/>
    </contour>
    <contour>
      <point x="399" y="622" type="line"/>
      <point x="308" y="622" type="line"/>
      <point x="308" y="720" type="line"/>
      <point x="399" y="720" type="line"/>
    </contour>
    <contour>
      <point x="500" y="511" type="line"/>
      <point x="309" y="20" type="line" smooth="yes"/>
      <point x="240" y="-151"/>
      <point x="193" y="-186"/>
      <point x="117" y="-186" type="curve" smooth="yes"/>
      <point x="91" y="-186"/>
      <point x="68" y="-181"/>
      <point x="47" y="-172" type="curve"/>
      <point x="47" y="-95" type="line"/>
      <point x="68" y="-104"/>
      <point x="84" y="-109"/>
      <point x="97" y="-109" type="curve" smooth="yes"/>
      <point x="153" y="-109"/>
      <point x="187" y="-72"/>
      <point x="211" y="5" type="curve"/>
      <point x="12" y="511" type="line"/>
      <point x="112" y="511" type="line"/>
      <point x="259" y="134" type="line"/>
      <point x="263" y="134" type="line"/>
      <point x="408" y="511" type="line"/>
    </contour>
  </outline>
</glyph>
<glyph name="Amacron" format="1">
  <advance width="652"/>
  <unicode hex="0100"/>
  <outline>
    <contour>
      <point x="485" y="837" type="line"/>
      <point x="167" y="837" type="line"/>
      <point x="167" y="911" type="line"/>
      <point x="485" y="911" type="line"/>
    </contour>
    <contour>
      <point x="648" y="0" type="line"/>
      <point x="542" y="0" type="line"/>
      <point x="484" y="149" type="line"/>
      <point x="156" y="149" type="line"/>
      <point x="99" y="0" type="line"/>
      <point x="4" y="0" type="line"/>
      <point x="272" y="686" type="line"/>
      <point x="380" y="686" type="line"/>
    </contour>
    <contour>
      <point x="318" y="568" type="line"/>
      <point x="191" y="238" type="line"/>
      <point x="450" y="238" type="line"/>
      <point x="324" y="568" type="line"/>
    </contour>
  </outline>
</glyph>
<glyph name="Abreve" format="1">
  <advance width="652"/>
  <unicode hex="0102"/>
  <outline>
    <contour>
      <point x="451" y="912" type="curve"/>
      <point x="519" y="912" type="line"/>
      <point x="519" y="850"/>
      <point x="421" y="788"/>
      <point x="326" y="788" type="curve" smooth="yes"/>
      <point x="229" y="788"/>
      <point x="134" y="851"/>
      <point x="134" y="912" type="curve"/>
      <point x="201" y="912" type="line"/>
      <point x="212" y="876"/>
      <point x="263" y="850"/>
      <point x="326" y="850" type="curve" smooth="yes"/>
      <point x="387" y="850"/>
      <point x="440" y="876"/>
    </contour>
    <contour>
      <point x="648" y="0" type="line"/>
      <point x="542" y="0" type="line"/>
      <point x="484" y="149" type="line"/>
      <point x="156" y="149" type="line"/>
      <point x="99" y="0" type="line"/>
      <point x="4" y="0" type="line"/>
      <point x="272" y="686" type="line"/>
      <point x="380" y="686" type="line"/>
    </contour>
    <contour>
      <point x="318" y="568" type="line"/>
      <point x="191" y="238" type="line"/>
      <point x="450" y="238" type="line"/>
      <point x="324" y="568" type="line"/>
    </contour>
  </outline>
</glyph>
<glyph name="Aogonek" format="1">
  <advance width="652"/>
  <unicode hex="0104"/>
  <outline>
    <contour>
      <point x="692" y="-82" type="curve"/>
      <point x="705" y="-119" type="line"/>
      <point x="678" y="-135"/>
      <point x="648" y="-143"/>
      <point x="616" y="-143" type="curve" smooth="yes"/>
      <point x="557" y="-143"/>
      <point x="519" y="-120"/>
      <point x="519" y="-69" type="curve" smooth="yes"/>
      <point x="519" y="-40"/>
      <point x="549" y="-16"/>
      <point x="573" y="0" type="curve"/>
      <point x="542" y="0" type="line"/>
      <point x="484" y="149" type="line"/>
      <point x="156" y="149" type="line"/>
      <point x="99" y="0" type="line"/>
      <point x="4" y="0" type="line"/>
      <point x="272" y="686" type="line"/>
      <point x="380" y="686" type="line"/>
      <point x="648" y="0" type="line"/>
      <point x="627" y="0" type="line"/>
      <point x="607" y="-11"/>
      <point x="581" y="-35"/>
      <point x="581" y="-58" type="curve" smooth="yes"/>
      <point x="581" y="-83"/>
      <point x="596" y="-96"/>
      <point x="625" y="-96" type="curve" smooth="yes"/>
      <point x="640" y="-96"/>
      <point x="662" y="-91"/>
    </contour>
    <contour>
      <point x="450" y="238" type="line"/>
      <point x="324" y="568" type="line"/>
      <point x="318" y="568" type="line"/>
      <point x="191" y="238" type="line"/>
    </contour>
  </outline>
</glyph>
<glyph name="aogonek" format="1">
  <advance width="585"/>
  <unicode hex="0105"/>
  <outline>
    <contour>
      <point x="591" y="-82" type="curve"/>
      <point x="604" y="-119" type="line"/>
      <point x="577" y="-135"/>
      <point x="547" y="-143"/>
      <point x="515" y="-143" type="curve" smooth="yes"/>
      <point x="456" y="-143"/>
      <point x="418" y="-120"/>
      <point x="418" y="-69" type="curve" smooth="yes"/>
      <point x="418" y="-45"/>
      <point x="439" y="-24"/>
      <point x="460" y="-8" type="curve"/>
      <point x="415" y="0"/>
      <point x="397" y="36"/>
      <point x="394" y="82" type="curve"/>
      <point x="353" y="21"/>
      <point x="294" y="-10"/>
      <point x="215" y="-10" type="curve" smooth="yes"/>
      <point x="105" y="-10"/>
      <point x="48" y="35"/>
      <point x="48" y="142" type="curve" smooth="yes"/>
      <point x="48" y="263"/>
      <point x="133" y="307"/>
      <point x="390" y="307" type="curve"/>
      <point x="390" y="354" type="line" smooth="yes"/>
      <point x="390" y="425"/>
      <point x="344" y="446"/>
      <point x="273" y="446" type="curve" smooth="yes"/>
      <point x="201" y="446"/>
      <point x="159" y="417"/>
      <point x="159" y="366" type="curve" smooth="yes"/>
      <point x="159" y="354" type="line"/>
      <point x="67" y="354" type="line"/>
      <point x="66" y="361"/>
      <point x="65" y="372"/>
      <point x="65" y="387" type="curve" smooth="yes"/>
      <point x="65" y="458"/>
      <point x="156" y="521"/>
      <point x="275" y="521" type="curve" smooth="yes"/>
      <point x="284" y="521" type="line" smooth="yes"/>
      <point x="420" y="521"/>
      <point x="484" y="465"/>
      <point x="484" y="365" type="curve" smooth="yes"/>
      <point x="484" y="100" type="line" smooth="yes"/>
      <point x="484" y="75"/>
      <point x="497" y="65"/>
      <point x="512" y="65" type="curve" smooth="yes"/>
      <point x="528" y="65"/>
      <point x="543" y="70"/>
      <point x="558" y="79" type="curve"/>
      <point x="558" y="10" type="line"/>
      <point x="545" y="2"/>
      <point x="531" y="-3"/>
      <point x="516" y="-6" type="curve"/>
      <point x="498" y="-19"/>
      <point x="480" y="-39"/>
      <point x="480" y="-58" type="curve" smooth="yes"/>
      <point x="480" y="-83"/>
      <point x="495" y="-96"/>
      <point x="524" y="-96" type="curve" smooth="yes"/>
      <point x="539" y="-96"/>
      <point x="561" y="-91"/>
    </contour>
    <contour>
      <point x="390" y="214" type="curve" smooth="yes"/>
      <point x="390" y="234" type="line"/>
      <point x="175" y="234"/>
      <point x="142" y="202"/>
      <point x="142" y="134" type="curve" smooth="yes"/>
      <point x="142" y="88"/>
      <point x="177" y="65"/>
      <point x="247" y="65" type="curve" smooth="yes"/>
      <point x="321" y="65"/>
      <point x="390" y="122"/>
    </contour>
  </outline>
</glyph>
<glyph name="Dcaron" format="1">
  <advance width="675"/>
  <unicode hex="010E"/>
  <outline>
    <contour>
      <point x="378" y="750" type="line"/>
      <point x="300" y="750" type="line"/>
      <point x="164" y="895" type="line"/>
      <point x="244" y="895" type="line"/>
      <point x="339" y="806" type="line"/>
      <point x="433" y="895" type="line"/>
      <point x="513" y="895" type="line"/>
    </contour>
    <contour>
      <point x="92" y="686" type="line"/>
      <point x="330" y="686" type="line" smooth="yes"/>
      <point x="503" y="686"/>
      <point x="614" y="567"/>
      <point x="614" y="378" type="curve" smooth="yes"/>
      <point x="614" y="308" type="line" smooth="yes"/>
      <point x="614" y="119"/>
      <point x="503" y="0"/>
      <point x="330" y="0" type="curve" smooth="yes"/>
      <point x="92" y="0" type="line"/>
    </contour>
    <contour>
      <point x="190" y="597" type="line"/>
      <point x="190" y="89" type="line"/>
      <point x="330" y="89" type="line" smooth="yes"/>
      <point x="447" y="89"/>
      <point x="516" y="162"/>
      <point x="516" y="308" type="curve" smooth="yes"/>
      <point x="516" y="378" type="line" smooth="yes"/>
      <point x="516" y="519"/>
      <point x="452" y="597"/>
      <point x="330" y="597" type="curve" smooth="yes"/>
    </contour>
  </outline>
</glyph>
<glyph name="dcaron" format="1">
  <advance width="583"/>
  <unicode hex="010F"/>
  <outline>
    <contour>
      <point x="500" y="0" type="line"/>
      <point x="430" y="0" type="line"/>
      <point x="427" y="13"/>
      <point x="422" y="36"/>
      <point x="417" y="70" type="curve"/>
      <point x="379" y="17"/>
      <point x="326" y="-10"/>
      <point x="259" y="-10" type="curve" smooth="yes"/>
      <point x="131" y="-10"/>
      <point x="52" y="90"/>
      <point x="52" y="256" type="curve" smooth="yes"/>
      <point x="52" y="267" type="line" smooth="yes"/>
      <point x="52" y="421"/>
      <point x="127" y="521"/>
      <point x="259" y="521" type="curve" smooth="yes"/>
      <point x="322" y="521"/>
      <point x="371" y="496"/>
      <point x="406" y="446" type="curve"/>
      <point x="406" y="720" type="line"/>
      <point x="500" y="720" type="line"/>
    </contour>
    <contour>
      <point x="673" y="601" type="line"/>
      <point x="638" y="451" type="line"/>
      <point x="586" y="451" type="line"/>
      <point x="613" y="575" type="line"/>
      <point x="572" y="575" type="line"/>
      <point x="572" y="686" type="line"/>
      <point x="673" y="686" type="line"/>
    </contour>
    <contour>
      <point x="276" y="446" type="curve" smooth="yes"/>
      <point x="187" y="446"/>
      <point x="146" y="385"/>
      <point x="146" y="255" type="curve" smooth="yes"/>
      <point x="146" y="123"/>
      <point x="189" y="65"/>
      <point x="276" y="65" type="curve" smooth="yes"/>
      <point x="363" y="65"/>
      <point x="407" y="128"/>
      <point x="407" y="255" type="curve" smooth="yes"/>
      <point x="407" y="387"/>
      <point x="362" y="446"/>
    </contour>
  </outline>
</glyph>
<glyph name="Edotaccent" format="1">
  <advance width="593"/>
  <unicode hex="0116"/>
  <outline>
    <contour>
      <point x="297" y="911" type="curve" smooth="yes"/>
      <point x="334" y="911"/>
      <point x="363" y="881"/>
      <point x="363" y="844" type="curve" smooth="yes"/>
      <point x="363" y="807"/>
      <point x="333" y="779"/>
      <point x="297" y="779" type="curve" smooth="yes"/>
      <point x="261" y="779"/>
      <point x="231" y="809"/>
      <point x="231" y="846" type="curve" smooth="yes"/>
      <point x="231" y="882"/>
      <point x="260" y="911"/>
    </contour>
    <contour>
      <point x="529" y="597" type="line"/>
      <point x="190" y="597" type="line"/>
      <point x="190" y="395" type="line"/>
      <point x="497" y="395" type="line"/>
      <point x="497" y="306" type="line"/>
      <point x="190" y="306" type="line"/>
      <point x="190" y="89" type="line"/>
      <point x="535" y="89" type="line"/>
      <point x="549" y="0" type="line"/>
      <point x="92" y="0" type="line"/>
      <point x="92" y="686" type="line"/>
      <point x="542" y="686" type="line"/>
    </contour>
    <contour>
      <point x="297" y="0" type="move" name="Bottom"/>
    </contour>
  </outline>
</glyph>
<glyph name="edotaccent" format="1">
  <advance width="556"/>
  <unicode hex="0117"/>
  <outline>
    <contour>
      <point x="278" y="736" type="curve" smooth="yes"/>
      <point x="315" y="736"/>
      <point x="344" y="706"/>
      <point x="344" y="669" type="curve" smooth="yes"/>
      <point x="344" y="632"/>
      <point x="314" y="604"/>
      <point x="278" y="604" type="curve" smooth="yes"/>
      <point x="242" y="604"/>
      <point x="212" y="634"/>
      <point x="212" y="671" type="curve" smooth="yes"/>
      <point x="212" y="707"/>
      <point x="241" y="736"/>
    </contour>
    <contour>
      <point x="281" y="521" type="curve" smooth="yes"/>
      <point x="288" y="521" type="line" smooth="yes"/>
      <point x="414" y="521"/>
      <point x="502" y="437"/>
      <point x="502" y="305" type="curve" smooth="yes"/>
      <point x="502" y="234" type="line"/>
      <point x="145" y="234" type="line"/>
      <point x="148" y="128"/>
      <point x="194" y="65"/>
      <point x="290" y="65" type="curve" smooth="yes"/>
      <point x="381" y="65"/>
      <point x="413" y="130"/>
      <point x="413" y="190" type="curve"/>
      <point x="502" y="190" type="line"/>
      <point x="502" y="69"/>
      <point x="413" y="-10"/>
      <point x="288" y="-10" type="curve" smooth="yes"/>
      <point x="284" y="-10" type="line" smooth="yes"/>
      <point x="139" y="-10"/>
      <point x="51" y="91"/>
      <point x="51" y="245" type="curve" smooth="yes"/>
      <point x="51" y="265" type="line" smooth="yes"/>
      <point x="51" y="417"/>
      <point x="139" y="521"/>
    </contour>
    <contour>
      <point x="283" y="446" type="curve" smooth="yes"/>
      <point x="208" y="446"/>
      <point x="158" y="400"/>
      <point x="147" y="307" type="curve"/>
      <point x="409" y="307" type="line"/>
      <point x="409" y="319" type="line" smooth="yes"/>
      <point x="409" y="395"/>
      <point x="359" y="446"/>
    </contour>
    <contour>
      <point x="278" y="0" type="move" name="Bottom"/>
    </contour>
  </outline>
</glyph>
<glyph name="Eogonek" format="1">
  <advance width="593"/>
  <unicode hex="0118"/>
  <outline>
    <contour>
      <point x="589" y="-82" type="curve"/>
      <point x="602" y="-119" type="line"/>
      <point x="575" y="-135"/>
      <point x="545" y="-143"/>
      <point x="513" y="-143" type="curve" smooth="yes"/>
      <point x="454" y="-143"/>
      <point x="416" y="-120"/>
      <point x="416" y="-69" type="curve" smooth="yes"/>
      <point x="416" y="-40"/>
      <point x="446" y="-16"/>
      <point x="470" y="0" type="curve"/>
      <point x="92" y="0" type="line"/>
      <point x="92" y="686" type="line"/>
      <point x="542" y="686" type="line"/>
      <point x="529" y="597" type="line"/>
      <point x="190" y="597" type="line"/>
      <point x="190" y="395" type="line"/>
      <point x="497" y="395" type="line"/>
      <point x="497" y="306" type="line"/>
      <point x="190" y="306" type="line"/>
      <point x="190" y="89" type="line"/>
      <point x="535" y="89" type="line"/>
      <point x="549" y="0" type="line"/>
      <point x="524" y="0" type="line"/>
      <point x="504" y="-11"/>
      <point x="478" y="-35"/>
      <point x="478" y="-58" type="curve" smooth="yes"/>
      <point x="478" y="-83"/>
      <point x="493" y="-96"/>
      <point x="522" y="-96" type="curve" smooth="yes"/>
      <point x="537" y="-96"/>
      <point x="559" y="-91"/>
    </contour>
    <contour>
      <point x="297" y="0" type="move" name="Bottom"/>
    </contour>
  </outline>
</glyph>
<glyph name="eogonek" format="1">
  <advance width="556"/>
  <unicode hex="0119"/>
  <outline>
    <contour>
      <point x="502" y="234" type="line"/>
      <point x="145" y="234" type="line"/>
      <point x="148" y="128"/>
      <point x="194" y="65"/>
      <point x="290" y="65" type="curve" smooth="yes"/>
      <point x="381" y="65"/>
      <point x="413" y="130"/>
      <point x="413" y="190" type="curve"/>
      <point x="502" y="190" type="line"/>
      <point x="502" y="94"/>
      <point x="446" y="25"/>
      <point x="361" y="0" type="curve"/>
      <point x="370" y="0" type="line"/>
      <point x="350" y="-11"/>
      <point x="324" y="-35"/>
      <point x="324" y="-58" type="curve" smooth="yes"/>
      <point x="324" y="-83"/>
      <point x="339" y="-96"/>
      <point x="368" y="-96" type="curve" smooth="yes"/>
      <point x="383" y="-96"/>
      <point x="405" y="-91"/>
      <point x="435" y="-82" type="curve"/>
      <point x="448" y="-119" type="line"/>
      <point x="421" y="-135"/>
      <point x="391" y="-143"/>
      <point x="359" y="-143" type="curve" smooth="yes"/>
      <point x="300" y="-143"/>
      <point x="262" y="-120"/>
      <point x="262" y="-69" type="curve" smooth="yes"/>
      <point x="262" y="-45"/>
      <point x="282" y="-25"/>
      <point x="302" y="-10" type="curve"/>
      <point x="288" y="-10" type="line"/>
      <point x="284" y="-10" type="line" smooth="yes"/>
      <point x="139" y="-10"/>
      <point x="51" y="91"/>
      <point x="51" y="245" type="curve" smooth="yes"/>
      <point x="51" y="265" type="line" smooth="yes"/>
      <point x="51" y="417"/>
      <point x="139" y="521"/>
      <point x="281" y="521" type="curve" smooth="yes"/>
      <point x="288" y="521" type="line" smooth="yes"/>
      <point x="414" y="521"/>
      <point x="502" y="437"/>
      <point x="502" y="305" type="curve" smooth="yes"/>
    </contour>
    <contour>
      <point x="409" y="307" type="line"/>
      <point x="409" y="319" type="line" smooth="yes"/>
      <point x="409" y="395"/>
      <point x="359" y="446"/>
      <point x="283" y="446" type="curve" smooth="yes"/>
      <point x="208" y="446"/>
      <point x="158" y="400"/>
      <point x="147" y="307" type="curve"/>
    </contour>
    <contour>
      <point x="278" y="0" type="move" name="Bottom"/>
    </contour>
  </outline>
</glyph>
<glyph name="Ecaron" format="1">
  <advance width="593"/>
  <unicode hex="011A"/>
  <outline>
    <contour>
      <point x="337" y="750" type="line"/>
      <point x="259" y="750" type="line"/>
      <point x="123" y="895" type="line"/>
      <point x="203" y="895" type="line"/>
      <point x="298" y="806" type="line"/>
      <point x="392" y="895" type="line"/>
      <point x="472" y="895" type="line"/>
    </contour>
    <contour>
      <point x="529" y="597" type="line"/>
      <point x="190" y="597" type="line"/>
      <point x="190" y="395" type="line"/>
      <point x="497" y="395" type="line"/>
      <point x="497" y="306" type="line"/>
      <point x="190" y="306" type="line"/>
      <point x="190" y="89" type="line"/>
      <point x="535" y="89" type="line"/>
      <point x="549" y="0" type="line"/>
      <point x="92" y="0" type="line"/>
      <point x="92" y="686" type="line"/>
      <point x="542" y="686" type="line"/>
    </contour>
    <contour>
      <point x="297" y="0" type="move" name="Bottom"/>
    </contour>
  </outline>
</glyph>
<glyph name="Gbreve" format="1">
  <advance width="677"/>
  <unicode hex="011E"/>
  <outline>
    <contour>
      <point x="464" y="912" type="curve"/>
      <point x="532" y="912" type="line"/>
      <point x="532" y="850"/>
      <point x="434" y="788"/>
      <point x="339" y="788" type="curve" smooth="yes"/>
      <point x="242" y="788"/>
      <point x="147" y="851"/>
      <point x="147" y="912" type="curve"/>
      <point x="214" y="912" type="line"/>
      <point x="225" y="876"/>
      <point x="276" y="850"/>
      <point x="339" y="850" type="curve" smooth="yes"/>
      <point x="400" y="850"/>
      <point x="453" y="876"/>
    </contour>
    <contour>
      <point x="344" y="696" type="curve" smooth="yes"/>
      <point x="505" y="696"/>
      <point x="607" y="596"/>
      <point x="607" y="445" type="curve"/>
      <point x="509" y="445" type="line"/>
      <point x="509" y="547"/>
      <point x="452" y="607"/>
      <point x="344" y="607" type="curve" smooth="yes"/>
      <point x="225" y="607"/>
      <point x="160" y="532"/>
      <point x="160" y="388" type="curve" smooth="yes"/>
      <point x="160" y="298" type="line" smooth="yes"/>
      <point x="160" y="155"/>
      <point x="222" y="79"/>
      <point x="344" y="79" type="curve" smooth="yes"/>
      <point x="459" y="79"/>
      <point x="511" y="133"/>
      <point x="511" y="261" type="curve" smooth="yes"/>
      <point x="511" y="274" type="line"/>
      <point x="317" y="274" type="line"/>
      <point x="317" y="362" type="line"/>
      <point x="607" y="362" type="line"/>
      <point x="607" y="128" type="line" smooth="yes"/>
      <point x="607" y="73"/>
      <point x="609" y="30"/>
      <point x="613" y="0" type="curve"/>
      <point x="555" y="0" type="line"/>
      <point x="547" y="25"/>
      <point x="540" y="52"/>
      <point x="535" y="82" type="curve"/>
      <point x="492" y="21"/>
      <point x="429" y="-10"/>
      <point x="344" y="-10" type="curve" smooth="yes"/>
      <point x="167" y="-10"/>
      <point x="62" y="104"/>
      <point x="62" y="298" type="curve" smooth="yes"/>
      <point x="62" y="388" type="line" smooth="yes"/>
      <point x="62" y="580"/>
      <point x="167" y="696"/>
    </contour>
    <contour>
      <point x="339" y="0" type="move" name="Bottom"/>
    </contour>
  </outline>
</glyph>
<glyph name="gbreve" format="1">
  <advance width="568"/>
  <unicode hex="011F"/>
  <outline>
    <contour>
      <point x="409" y="737" type="curve"/>
      <point x="477" y="737" type="line"/>
      <point x="477" y="675"/>
      <point x="379" y="613"/>
      <point x="284" y="613" type="curve" smooth="yes"/>
      <point x="187" y="613"/>
      <point x="92" y="676"/>
      <point x="92" y="737" type="curve"/>
      <point x="159" y="737" type="line"/>
      <point x="170" y="701"/>
      <point x="221" y="675"/>
      <point x="284" y="675" type="curve" smooth="yes"/>
      <point x="345" y="675"/>
      <point x="398" y="701"/>
    </contour>
    <contour>
      <point x="471" y="603" type="curve"/>
      <point x="551" y="603" type="line"/>
      <point x="551" y="536"/>
      <point x="513" y="486"/>
      <point x="449" y="473" type="curve"/>
      <point x="447" y="470" type="line"/>
      <point x="480" y="441"/>
      <point x="497" y="405"/>
      <point x="497" y="360" type="curve" smooth="yes"/>
      <point x="497" y="265"/>
      <point x="422" y="200"/>
      <point x="296" y="200" type="curve" smooth="yes"/>
      <point x="228" y="200" type="line" smooth="yes"/>
      <point x="188" y="200"/>
      <point x="158" y="177"/>
      <point x="158" y="145" type="curve" smooth="yes"/>
      <point x="158" y="113"/>
      <point x="185" y="93"/>
      <point x="228" y="93" type="curve" smooth="yes"/>
      <point x="421" y="93" type="line" smooth="yes"/>
      <point x="501" y="93"/>
      <point x="551" y="37"/>
      <point x="551" y="-38" type="curve" smooth="yes"/>
      <point x="551" y="-129"/>
      <point x="477" y="-188"/>
      <point x="361" y="-188" type="curve" smooth="yes"/>
      <point x="160" y="-188" type="line" smooth="yes"/>
      <point x="90" y="-188"/>
      <point x="36" y="-125"/>
      <point x="36" y="-68" type="curve" smooth="yes"/>
      <point x="36" y="-11"/>
      <point x="67" y="32"/>
      <point x="111" y="51" type="curve"/>
      <point x="80" y="70"/>
      <point x="65" y="98"/>
      <point x="65" y="134" type="curve" smooth="yes"/>
      <point x="65" y="183"/>
      <point x="96" y="218"/>
      <point x="145" y="235" type="curve"/>
      <point x="100" y="260"/>
      <point x="78" y="302"/>
      <point x="78" y="360" type="curve" smooth="yes"/>
      <point x="78" y="458"/>
      <point x="154" y="521"/>
      <point x="284" y="521" type="curve" smooth="yes"/>
      <point x="288" y="521" type="line" smooth="yes"/>
      <point x="326" y="521"/>
      <point x="360" y="515"/>
      <point x="390" y="504" type="curve"/>
      <point x="437" y="527"/>
      <point x="464" y="560"/>
    </contour>
    <contour>
      <point x="287" y="446" type="curve" smooth="yes"/>
      <point x="222" y="446"/>
      <point x="171" y="423"/>
      <point x="171" y="360" type="curve" smooth="yes"/>
      <point x="171" y="297"/>
      <point x="222" y="275"/>
      <point x="287" y="275" type="curve" smooth="yes"/>
      <point x="352" y="275"/>
      <point x="404" y="297"/>
      <point x="404" y="360" type="curve" smooth="yes"/>
      <point x="404" y="423"/>
      <point x="352" y="446"/>
    </contour>
    <contour>
      <point x="393" y="3" type="curve" smooth="yes"/>
      <point x="187" y="3" type="line" smooth="yes"/>
      <point x="155" y="3"/>
      <point x="129" y="-23"/>
      <point x="129" y="-55" type="curve" smooth="yes"/>
      <point x="129" y="-87"/>
      <point x="155" y="-113"/>
      <point x="187" y="-113" type="curve" smooth="yes"/>
      <point x="380" y="-113" type="line" smooth="yes"/>
      <point x="423" y="-113"/>
      <point x="458" y="-84"/>
      <point x="458" y="-52" type="curve" smooth="yes"/>
      <point x="458" y="-20"/>
      <point x="436" y="3"/>
    </contour>
  </outline>
</glyph>
<glyph name="gcommaaccent" format="1">
  <advance width="568"/>
  <unicode hex="0123"/>
  <outline>
    <contour>
      <point x="234" y="676" type="line"/>
      <point x="263" y="801" type="line"/>
      <point x="316" y="801" type="line"/>
      <point x="294" y="702" type="line"/>
      <point x="335" y="702" type="line"/>
      <point x="335" y="591" type="line"/>
      <point x="234" y="591" type="line"/>
    </contour>
    <contour>
      <point x="471" y="603" type="curve"/>
      <point x="551" y="603" type="line"/>
      <point x="551" y="536"/>
      <point x="513" y="486"/>
      <point x="449" y="473" type="curve"/>
      <point x="447" y="470" type="line"/>
      <point x="480" y="441"/>
      <point x="497" y="405"/>
      <point x="497" y="360" type="curve" smooth="yes"/>
      <point x="497" y="265"/>
      <point x="422" y="200"/>
      <point x="296" y="200" type="curve" smooth="yes"/>
      <point x="228" y="200" type="line" smooth="yes"/>
      <point x="188" y="200"/>
      <point x="158" y="177"/>
      <point x="158" y="145" type="curve" smooth="yes"/>
      <point x="158" y="113"/>
      <point x="185" y="93"/>
      <point x="228" y="93" type="curve" smooth="yes"/>
      <point x="421" y="93" type="line" smooth="yes"/>
      <point x="501" y="93"/>
      <point x="551" y="37"/>
      <point x="551" y="-38" type="curve" smooth="yes"/>
      <point x="551" y="-129"/>
      <point x="477" y="-188"/>
      <point x="361" y="-188" type="curve" smooth="yes"/>
      <point x="160" y="-188" type="line" smooth="yes"/>
      <point x="90" y="-188"/>
      <point x="36" y="-125"/>
      <point x="36" y="-68" type="curve" smooth="yes"/>
      <point x="36" y="-11"/>
      <point x="67" y="32"/>
      <point x="111" y="51" type="curve"/>
      <point x="80" y="70"/>
      <point x="65" y="98"/>
      <point x="65" y="134" type="curve" smooth="yes"/>
      <point x="65" y="183"/>
      <point x="96" y="218"/>
      <point x="145" y="235" type="curve"/>
      <point x="100" y="260"/>
      <point x="78" y="302"/>
      <point x="78" y="360" type="curve" smooth="yes"/>
      <point x="78" y="458"/>
      <point x="154" y="521"/>
      <point x="284" y="521" type="curve" smooth="yes"/>
      <point x="288" y="521" type="line" smooth="yes"/>
      <point x="326" y="521"/>
      <point x="360" y="515"/>
      <point x="390" y="504" type="curve"/>
      <point x="437" y="527"/>
      <point x="464" y="560"/>
    </contour>
    <contour>
      <point x="287" y="446" type="curve" smooth="yes"/>
      <point x="222" y="446"/>
      <point x="171" y="423"/>
      <point x="171" y="360" type="curve" smooth="yes"/>
      <point x="171" y="297"/>
      <point x="222" y="275"/>
      <point x="287" y="275" type="curve" smooth="yes"/>
      <point x="352" y="275"/>
      <point x="404" y="297"/>
      <point x="404" y="360" type="curve" smooth="yes"/>
      <point x="404" y="423"/>
      <point x="352" y="446"/>
    </contour>
    <contour>
      <point x="393" y="3" type="curve" smooth="yes"/>
      <point x="187" y="3" type="line" smooth="yes"/>
      <point x="155" y="3"/>
      <point x="129" y="-23"/>
      <point x="129" y="-55" type="curve" smooth="yes"/>
      <point x="129" y="-87"/>
      <point x="155" y="-113"/>
      <point x="187" y="-113" type="curve" smooth="yes"/>
      <point x="380" y="-113" type="line" smooth="yes"/>
      <point x="423" y="-113"/>
      <point x="458" y="-84"/>
      <point x="458" y="-52" type="curve" smooth="yes"/>
      <point x="458" y="-20"/>
      <point x="436" y="3"/>
    </contour>
  </outline>
</glyph>
<glyph name="imacron" format="1">
  <advance width="260"/>
  <unicode hex="012B"/>
  <outline>
    <contour>
      <point x="289" y="662" type="line"/>
      <point x="-29" y="662" type="line"/>
      <point x="-29" y="736" type="line"/>
      <point x="289" y="736" type="line"/>
    </contour>
    <contour>
      <point x="177" y="0" type="line"/>
      <point x="83" y="0" type="line"/>
      <point x="83" y="511" type="line"/>
      <point x="177" y="511" type="line"/>
    </contour>
  </outline>
</glyph>
<glyph name="Iogonek" format="1">
  <advance width="364"/>
  <unicode hex="012E"/>
  <outline>
    <contour>
      <point x="353" y="-82" type="curve"/>
      <point x="366" y="-119" type="line"/>
      <point x="339" y="-135"/>
      <point x="309" y="-143"/>
      <point x="277" y="-143" type="curve" smooth="yes"/>
      <point x="218" y="-143"/>
      <point x="180" y="-120"/>
      <point x="180" y="-69" type="curve" smooth="yes"/>
      <point x="180" y="-40"/>
      <point x="210" y="-16"/>
      <point x="234" y="0" type="curve"/>
      <point x="53" y="0" type="line"/>
      <point x="53" y="89" type="line"/>
      <point x="133" y="89" type="line"/>
      <point x="133" y="597" type="line"/>
      <point x="53" y="597" type="line"/>
      <point x="53" y="686" type="line"/>
      <point x="311" y="686" type="line"/>
      <point x="311" y="597" type="line"/>
      <point x="231" y="597" type="line"/>
      <point x="231" y="89" type="line"/>
      <point x="311" y="89" type="line"/>
      <point x="311" y="0" type="line"/>
      <point x="288" y="0" type="line"/>
      <point x="268" y="-11"/>
      <point x="242" y="-35"/>
      <point x="242" y="-58" type="curve" smooth="yes"/>
      <point x="242" y="-83"/>
      <point x="257" y="-96"/>
      <point x="286" y="-96" type="curve" smooth="yes"/>
      <point x="301" y="-96"/>
      <point x="323" y="-91"/>
    </contour>
  </outline>
</glyph>
<glyph name="iogonek" format="1">
  <advance width="260"/>
  <unicode hex="012F"/>
  <outline>
    <contour>
      <point x="179" y="633" type="line"/>
      <point x="81" y="633" type="line"/>
      <point x="81" y="720" type="line"/>
      <point x="179" y="720" type="line"/>
    </contour>
    <contour>
      <point x="239" y="-82" type="curve"/>
      <point x="252" y="-119" type="line"/>
      <point x="225" y="-135"/>
      <point x="195" y="-143"/>
      <point x="163" y="-143" type="curve" smooth="yes"/>
      <point x="104" y="-143"/>
      <point x="66" y="-120"/>
      <point x="66" y="-69" type="curve" smooth="yes"/>
      <point x="66" y="-40"/>
      <point x="96" y="-16"/>
      <point x="120" y="0" type="curve"/>
      <point x="83" y="0" type="line"/>
      <point x="83" y="511" type="line"/>
      <point x="177" y="511" type="line"/>
      <point x="177" y="0" type="line"/>
      <point x="174" y="0" type="line"/>
      <point x="154" y="-11"/>
      <point x="128" y="-35"/>
      <point x="128" y="-58" type="curve" smooth="yes"/>
      <point x="128" y="-83"/>
      <point x="143" y="-96"/>
      <point x="172" y="-96" type="curve" smooth="yes"/>
      <point x="187" y="-96"/>
      <point x="209" y="-91"/>
    </contour>
  </outline>
</glyph>
<glyph name="Idotaccent" format="1">
  <advance width="364"/>
  <unicode hex="0130"/>
  <outline>
    <contour>
      <point x="182" y="911" type="curve" smooth="yes"/>
      <point x="219" y="911"/>
      <point x="248" y="881"/>
      <point x="248" y="844" type="curve" smooth="yes"/>
      <point x="248" y="807"/>
      <point x="218" y="779"/>
      <point x="182" y="779" type="curve" smooth="yes"/>
      <point x="146" y="779"/>
      <point x="116" y="809"/>
      <point x="116" y="846" type="curve" smooth="yes"/>
      <point x="116" y="882"/>
      <point x="145" y="911"/>
    </contour>
    <contour>
      <point x="311" y="597" type="line"/>
      <point x="231" y="597" type="line"/>
      <point x="231" y="89" type="line"/>
      <point x="311" y="89" type="line"/>
      <point x="311" y="0" type="line"/>
      <point x="53" y="0" type="line"/>
      <point x="53" y="89" type="line"/>
      <point x="133" y="89" type="line"/>
      <point x="133" y="597" type="line"/>
      <point x="53" y="597" type="line"/>
      <point x="53" y="686" type="line"/>
      <point x="311" y="686" type="line"/>
    </contour>
  </outline>
</glyph>
<glyph name="dotlessi" format="1">
  <advance width="260"/>
  <unicode hex="0131"/>
  <outline>
    <contour>
      <point x="177" y="0" type="line"/>
      <point x="83" y="0" type="line"/>
      <point x="83" y="511" type="line"/>
      <point x="177" y="511" type="line"/>
    </contour>
  </outline>
</glyph>
<glyph name="Kcommaaccent" format="1">
  <advance width="623"/>
  <unicode hex="0136"/>
  <outline>
    <contour>
      <point x="349" y="383" type="line"/>
      <point x="609" y="0" type="line"/>
      <point x="495" y="0" type="line"/>
      <point x="287" y="308" type="line"/>
      <point x="190" y="206" type="line"/>
      <point x="190" y="0" type="line"/>
      <point x="92" y="0" type="line"/>
      <point x="92" y="686" type="line"/>
      <point x="190" y="686" type="line"/>
      <point x="190" y="329" type="line"/>
      <point x="488" y="686" type="line"/>
      <point x="601" y="686" type="line"/>
    </contour>
    <contour>
      <point x="362" y="-125" type="line"/>
      <point x="333" y="-250" type="line"/>
      <point x="280" y="-250" type="line"/>
      <point x="302" y="-151" type="line"/>
      <point x="261" y="-151" type="line"/>
      <point x="261" y="-40" type="line"/>
      <point x="362" y="-40" type="line"/>
    </contour>
    <contour>
      <point x="312" y="0" type="move" name="Bottom"/>
    </contour>
  </outline>
</glyph>
<glyph name="kcommaaccent" format="1">
  <advance width="535"/>
  <unicode hex="0137"/>
  <outline>
    <contour>
      <point x="177" y="226" type="line"/>
      <point x="405" y="511" type="line"/>
      <point x="508" y="511" type="line"/>
      <point x="311" y="263" type="line"/>
      <point x="521" y="0" type="line"/>
      <point x="407" y="0" type="line"/>
      <point x="254" y="190" type="line"/>
      <point x="177" y="110" type="line"/>
      <point x="177" y="0" type="line"/>
      <point x="83" y="0" type="line"/>
      <point x="83" y="720" type="line"/>
      <point x="177" y="720" type="line"/>
    </contour>
    <contour>
      <point x="318" y="-125" type="line"/>
      <point x="289" y="-250" type="line"/>
      <point x="236" y="-250" type="line"/>
      <point x="258" y="-151" type="line"/>
      <point x="217" y="-151" type="line"/>
      <point x="217" y="-40" type="line"/>
      <point x="318" y="-40" type="line"/>
    </contour>
    <contour>
      <point x="268" y="0" type="move" name="Bottom"/>
    </contour>
  </outline>
</glyph>
<glyph name="Lacute" format="1">
  <advance width="536"/>
  <unicode hex="0139"/>
  <outline>
    <contour>
      <point x="300" y="892" type="line"/>
      <point x="184" y="750" type="line"/>
      <point x="115" y="750" type="line"/>
      <point x="209" y="895" type="line"/>
      <point x="299" y="895" type="line"/>
    </contour>
    <contour>
      <point x="190" y="89" type="line"/>
      <point x="505" y="89" type="line"/>
      <point x="519" y="0" type="line"/>
      <point x="92" y="0" type="line"/>
      <point x="92" y="686" type="line"/>
      <point x="190" y="686" type="line"/>
    </contour>
    <contour>
      <point x="268" y="0" type="move" name="Bottom"/>
    </contour>
  </outline>
</glyph>
<glyph name="lacute" format="1">
  <advance width="268"/>
  <unicode hex="013A"/>
  <outline>
    <contour>
      <point x="266" y="892" type="line"/>
      <point x="150" y="750" type="line"/>
      <point x="81" y="750" type="line"/>
      <point x="175" y="895" type="line"/>
      <point x="265" y="895" type="line"/>
    </contour>
    <contour>
      <point x="181" y="0" type="line"/>
      <point x="87" y="0" type="line"/>
      <point x="87" y="720" type="line"/>
      <point x="181" y="720" type="line"/>
    </contour>
    <contour>
      <point x="134" y="0" type="move" name="Bottom"/>
    </contour>
  </outline>
</glyph>
<glyph name="Lcommaaccent" format="1">
  <advance width="536"/>
  <unicode hex="013B"/>
  <outline>
    <contour>
      <point x="190" y="89" type="line"/>
      <point x="505" y="89" type="line"/>
      <point x="519" y="0" type="line"/>
      <point x="92" y="0" type="line"/>
      <point x="92" y="686" type="line"/>
      <point x="190" y="686" type="line"/>
    </contour>
    <contour>
      <point x="318" y="-125" type="line"/>
      <point x="289" y="-250" type="line"/>
      <point x="236" y="-250" type="line"/>
      <point x="258" y="-151" type="line"/>
      <point x="217" y="-151" type="line"/>
      <point x="217" y="-40" type="line"/>
      <point x="318" y="-40" type="line"/>
    </contour>
    <contour>
      <point x="268" y="0" type="move" name="Bottom"/>
    </contour>
  </outline>
</glyph>
<glyph name="lcommaaccent" format="1">
  <advance width="268"/>
  <unicode hex="013C"/>
  <outline>
    <contour>
      <point x="181" y="0" type="line"/>
      <point x="87" y="0" type="line"/>
      <point x="87" y="720" type="line"/>
      <point x="181" y="720" type="line"/>
    </contour>
    <contour>
      <point x="184" y="-125" type="line"/>
      <point x="155" y="-250" type="line"/>
      <point x="102" y="-250" type="line"/>
      <point x="124" y="-151" type="line"/>
      <point x="83" y="-151" type="line"/>
      <point x="83" y="-40" type="line"/>
      <point x="184" y="-40" type="line"/>
    </contour>
    <contour>
      <point x="134" y="0" type="move" name="Bottom"/>
    </contour>
  </outline>
</glyph>
<glyph name="Lcaron" format="1">
  <advance width="536"/>
  <unicode hex="013D"/>
  <outline>
    <contour>
      <point x="190" y="89" type="line"/>
      <point x="505" y="89" type="line"/>
      <point x="519" y="0" type="line"/>
      <point x="92" y="0" type="line"/>
      <point x="92" y="686" type="line"/>
      <point x="190" y="686" type="line"/>
    </contour>
    <contour>
      <point x="526" y="601" type="line"/>
      <point x="491" y="451" type="line"/>
      <point x="439" y="451" type="line"/>
      <point x="466" y="575" type="line"/>
      <point x="425" y="575" type="line"/>
      <point x="425" y="686" type="line"/>
      <point x="526" y="686" type="line"/>
    </contour>
    <contour>
      <point x="268" y="0" type="move" name="Bottom"/>
    </contour>
  </outline>
</glyph>
<glyph name="lcaron" format="1">
  <advance width="268"/>
  <unicode hex="013E"/>
  <outline>
    <contour>
      <point x="181" y="0" type="line"/>
      <point x="87" y="0" type="line"/>
      <point x="87" y="720" type="line"/>
      <point x="181" y="720" type="line"/>
    </contour>
    <contour>
      <point x="348" y="601" type="line"/>
      <point x="313" y="451" type="line"/>
      <point x="261" y="451" type="line"/>
      <point x="288" y="575" type="line"/>
      <point x="247" y="575" type="line"/>
      <point x="247" y="686" type="line"/>
      <point x="348" y="686" type="line"/>
    </contour>
    <contour>
      <point x="134" y="0" type="move" name="Bottom"/>
    </contour>
  </outline>
</glyph>
<glyph name="Lslash" format="1">
  <advance width="539"/>
  <unicode hex="0141"/>
  <outline>
    <contour>
      <point x="193" y="445" type="line"/>
      <point x="332" y="517" type="line"/>
      <point x="332" y="446" type="line"/>
      <point x="193" y="374" type="line"/>
      <point x="193" y="89" type="line"/>
      <point x="508" y="89" type="line"/>
      <point x="522" y="0" type="line"/>
      <point x="95" y="0" type="line"/>
      <point x="95" y="324" type="line"/>
      <point x="33" y="293" type="line"/>
      <point x="33" y="364" type="line"/>
      <point x="95" y="395" type="line"/>
      <point x="95" y="686" type="line"/>
      <point x="193" y="686" type="line"/>
    </contour>
  </outline>
</glyph>
<glyph name="Nacute" format="1">
  <advance width="694"/>
  <unicode hex="0143"/>
  <outline>
    <contour>
      <point x="479" y="892" type="line"/>
      <point x="363" y="750" type="line"/>
      <point x="294" y="750" type="line"/>
      <point x="388" y="895" type="line"/>
      <point x="478" y="895" type="line"/>
    </contour>
    <contour>
      <point x="602" y="0" type="line"/>
      <point x="519" y="0" type="line"/>
      <point x="184" y="502" type="line"/>
      <point x="181" y="501" type="line"/>
      <point x="181" y="0" type="line"/>
      <point x="92" y="0" type="line"/>
      <point x="92" y="686" type="line"/>
      <point x="178" y="686" type="line"/>
      <point x="510" y="190" type="line"/>
      <point x="513" y="191" type="line"/>
      <point x="513" y="686" type="line"/>
      <point x="602" y="686" type="line"/>
    </contour>
    <contour>
      <point x="347" y="0" type="move" name="Bottom"/>
    </contour>
  </outline>
</glyph>
<glyph name="Ncommaaccent" format="1">
  <advance width="694"/>
  <unicode hex="0145"/>
  <outline>
    <contour>
      <point x="602" y="0" type="line"/>
      <point x="519" y="0" type="line"/>
      <point x="184" y="502" type="line"/>
      <point x="181" y="501" type="line"/>
      <point x="181" y="0" type="line"/>
      <point x="92" y="0" type="line"/>
      <point x="92" y="686" type="line"/>
      <point x="178" y="686" type="line"/>
      <point x="510" y="190" type="line"/>
      <point x="513" y="191" type="line"/>
      <point x="513" y="686" type="line"/>
      <point x="602" y="686" type="line"/>
    </contour>
    <contour>
      <point x="397" y="-125" type="line"/>
      <point x="368" y="-250" type="line"/>
      <point x="315" y="-250" type="line"/>
      <point x="337" y="-151" type="line"/>
      <point x="296" y="-151" type="line"/>
      <point x="296" y="-40" type="line"/>
      <point x="397" y="-40" type="line"/>
    </contour>
    <contour>
      <point x="347" y="0" type="move" name="Bottom"/>
    </contour>
  </outline>
</glyph>
<glyph name="Ncaron" format="1">
  <advance width="694"/>
  <unicode hex="0147"/>
  <outline>
    <contour>
      <point x="387" y="750" type="line"/>
      <point x="309" y="750" type="line"/>
      <point x="173" y="895" type="line"/>
      <point x="253" y="895" type="line"/>
      <point x="348" y="806" type="line"/>
      <point x="442" y="895" type="line"/>
      <point x="522" y="895" type="line"/>
    </contour>
    <contour>
      <point x="602" y="0" type="line"/>
      <point x="519" y="0" type="line"/>
      <point x="184" y="502" type="line"/>
      <point x="181" y="501" type="line"/>
      <point x="181" y="0" type="line"/>
      <point x="92" y="0" type="line"/>
      <point x="92" y="686" type="line"/>
      <point x="178" y="686" type="line"/>
      <point x="510" y="190" type="line"/>
      <point x="513" y="191" type="line"/>
      <point x="513" y="686" type="line"/>
      <point x="602" y="686" type="line"/>
    </contour>
    <contour>
      <point x="347" y="0" type="move" name="Bottom"/>
    </contour>
  </outline>
</glyph>
<glyph name="OE" format="1">
  <advance width="1032"/>
  <unicode hex="0152"/>
  <outline>
    <contour>
      <point x="340" y="696" type="curve" smooth="yes"/>
      <point x="419" y="696"/>
      <point x="482" y="673"/>
      <point x="531" y="628" type="curve"/>
      <point x="531" y="686" type="line"/>
      <point x="981" y="686" type="line"/>
      <point x="968" y="597" type="line"/>
      <point x="629" y="597" type="line"/>
      <point x="629" y="395" type="line"/>
      <point x="936" y="395" type="line"/>
      <point x="936" y="306" type="line"/>
      <point x="629" y="306" type="line"/>
      <point x="629" y="89" type="line"/>
      <point x="974" y="89" type="line"/>
      <point x="988" y="0" type="line"/>
      <point x="531" y="0" type="line"/>
      <point x="531" y="58" type="line"/>
      <point x="484" y="13"/>
      <point x="422" y="-10"/>
      <point x="345" y="-10" type="curve" smooth="yes"/>
      <point x="175" y="-10"/>
      <point x="61" y="105"/>
      <point x="61" y="298" type="curve" smooth="yes"/>
      <point x="61" y="388" type="line" smooth="yes"/>
      <point x="61" y="581"/>
      <point x="176" y="696"/>
    </contour>
    <contour>
      <point x="345" y="607" type="curve" smooth="yes"/>
      <point x="229" y="607"/>
      <point x="159" y="533"/>
      <point x="159" y="388" type="curve" smooth="yes"/>
      <point x="159" y="298" type="line" smooth="yes"/>
      <point x="159" y="156"/>
      <point x="223" y="79"/>
      <point x="345" y="79" type="curve" smooth="yes"/>
      <point x="459" y="79"/>
      <point x="531" y="151"/>
      <point x="531" y="298" type="curve" smooth="yes"/>
      <point x="531" y="388" type="line" smooth="yes"/>
      <point x="531" y="530"/>
      <point x="467" y="607"/>
    </contour>
  </outline>
</glyph>
<glyph name="Rcaron" format="1">
  <advance width="670"/>
  <unicode hex="0158"/>
  <outline>
    <contour>
      <point x="375" y="750" type="line"/>
      <point x="297" y="750" type="line"/>
      <point x="161" y="895" type="line"/>
      <point x="241" y="895" type="line"/>
      <point x="336" y="806" type="line"/>
      <point x="430" y="895" type="line"/>
      <point x="510" y="895" type="line"/>
    </contour>
    <contour>
      <point x="92" y="686" type="line"/>
      <point x="384" y="686" type="line" smooth="yes"/>
      <point x="501" y="686"/>
      <point x="592" y="628"/>
      <point x="592" y="525" type="curve" smooth="yes"/>
      <point x="592" y="433"/>
      <point x="535" y="367"/>
      <point x="469" y="354" type="curve"/>
      <point x="469" y="349" type="line"/>
      <point x="530" y="325"/>
      <point x="579" y="261"/>
      <point x="579" y="170" type="curve" smooth="yes"/>
      <point x="579" y="56"/>
      <point x="598" y="42"/>
      <point x="630" y="31" type="curve"/>
      <point x="630" y="3" type="line"/>
      <point x="615" y="-3"/>
      <point x="599" y="-6"/>
      <point x="583" y="-6" type="curve" smooth="yes"/>
      <point x="528" y="-6"/>
      <point x="481" y="16"/>
      <point x="481" y="130" type="curve" smooth="yes"/>
      <point x="481" y="243"/>
      <point x="427" y="302"/>
      <point x="364" y="302" type="curve" smooth="yes"/>
      <point x="190" y="302" type="line"/>
      <point x="190" y="0" type="line"/>
      <point x="92" y="0" type="line"/>
    </contour>
    <contour>
      <point x="190" y="597" type="line"/>
      <point x="190" y="391" type="line"/>
      <point x="385" y="391" type="line" smooth="yes"/>
      <point x="441" y="391"/>
      <point x="494" y="433"/>
      <point x="494" y="492" type="curve" smooth="yes"/>
      <point x="494" y="496" type="line" smooth="yes"/>
      <point x="494" y="553"/>
      <point x="452" y="597"/>
      <point x="385" y="597" type="curve" smooth="yes"/>
    </contour>
    <contour>
      <point x="335" y="0" type="move" name="Bottom"/>
    </contour>
  </outline>
</glyph>
